<mxfile host="app.diagrams.net" modified="2024-04-22T22:18:20.978Z" agent="Mozilla/5.0 (Windows NT 10.0; Win64; x64) AppleWebKit/537.36 (KHTML, like Gecko) Chrome/124.0.0.0 Safari/537.36" version="24.2.8" etag="3JghKSFTQ03qES6pwTuy" type="device">
  <diagram id="M2KPmTJKZx4JcgKDlfaf" name="PÃ¡gina-1">
    <mxGraphModel dx="1434" dy="738" grid="1" gridSize="10" guides="1" tooltips="1" connect="1" arrows="1" fold="1" page="1" pageScale="1" pageWidth="827" pageHeight="1169" math="0" shadow="0">
      <root>
        <mxCell id="0" />
        <mxCell id="1" parent="0" />
        <mxCell id="OZp4CBMIkcKh4JHKjuI_-1" value="" style="shape=image;verticalLabelPosition=bottom;labelBackgroundColor=default;verticalAlign=top;aspect=fixed;imageAspect=0;image=data:image/png,iVBORw0KGgoAAAANSUhEUgAAAukAAADmCAYAAABoDRv3AAAAAXNSR0IArs4c6QAAAARnQU1BAACxjwv8YQUAAAAJcEhZcwAADsMAAA7DAcdvqGQAAPv3SURBVHhe7J0HYFTF1oC/ZDedENIDCaFDQg+IBRAVSCgRlCZKURBBKYJSFJAiPsSCqIhKEQgCIohUURSliUoVSICQECCkkAbpbbPZ8s/d3UASkgCKir/zvbeSO3fuzJlzzsw9Mzt3r9WBAweMSCQSiUQikUgkkrsGa8u/EolEIpFIJBKJ5C5BBukSiUQikUgkEsldhgzSJRKJRCKRSCSSuwwZpEskEolEIpFIJHcZMkiXSCQSiUQikUjuMmSQLpFIJBKJRCKR3GXIIF0ikUgkEolEIrnLkEG6RCKRSCQSiURyl/GXBOnGwiQi9u3g6682sePnM6QV/V3vSzJScPkke7Z/xbovN7HrWDwFt1m1NjWCA7t/Ys9v0WTpLYkK+mS2T+jJI71eZW+mfP+TRCKRSCQSieSv4w6/cVRP+uHlzHpjPZEFliQFj+68u/JV2jlbjv8SdCR9M41R7x8j35Ki4NltLkte6YDbrUxHjOnsmvQkb53QiYMa9Hj/C14JcjSf08Wz7rln+CyuCZM3LibUw8qcLpFIJBKJRCKR3GHu6Eq6Pnknb81WAnQ7AvtOZN6HHzJvymA6uOWQpb0+FzDqtGhLr1KXwlCsRVfhtMFAsbio8hmFkWKDF4+MeoPFa9fxyYQHqCZSr/z0NSdzzDluhuHKEb47JQJ0tVocZfHb92fLBPx/HAM6fWnJjeh1VbdFpzNY/i5PVXpQzumqKFcikUgkEolE8m/gDgbpWmJ3buD3IrC/dzJvjO3FA61a8UDP55i79E2C3Qs5t2kuLwzoRufgbnTr2pk+Yz5kX4qyag2a2G94c0QoXUK6Edw5lFGfRJgCZEPuGTbOHcljj3QhpFtXOoc+w6wvwsm6IYa1oc5jU5j01IME+Nakyb1t8VaSVbbYKK00ZHJ48RTGTf2M4zkVhbEGrhz5jtM6NS1HjCTIBrIP7uRMnuV0GbTEbZzAY90HMvewOUNx7DrG9e7JkPknxJGe5B2T6dNnAmEbFzLu8S4Ei/b2nbSaY8c38vrQ7nQN7krI0LfYlay0v3T+jxjfpzPBwV149IVF/JZuns1UrQcNsd+8yYhQ5VywODeKTyLuzPRCIpFIJBKJRPL3c+eCdGMuMb9fFn9Y0ahLG9zLl6y7SvjP0dgG9WXki+MZ/rA3WWe38dGaMxQa0/n5o4/46WINQifOYdbL/WnqqMdgEOnvvsqnu89j/8AAhj/di1aqeA4sn8GHv2XduGJsyOLMzi9ZvWIRc2Ys5QKONHvqGdpUF+eKU/l93zHOHN7H8bRic/7S6FM59N0Z9OqmdO/cmZ4tRJSee5idp3MtGcqizb5CTtEVrhSaZwuGoiyu5BZyJV3Z52OkOOcqWVkRrP50JwWBD9KsBmQeD2PKpE857XYf9/mr0SXu4tPPT1FQJv+35DR5iCBvK/KjN7NoY4wovGo96NN/5qOPfuJijVAmzpnFy/2b4qivbCVeIpFIJBKJRHK3c+eCdH0B2aanNG1xrmYjQvVyqP0ZsHANH00fxYCQhwnu/TC1RHJW/FWKjHq0RcqKcR5XMqyo+8gzvDQ8iGqZR9n8Wz64Pcr0GWN4evjLzH7pHmxEvqO7om/ciiIC8V/XLSNs7WYOxIpA3NETN6s8NErRdg3pP2UyL74ymT71bM35S6FPPcjOKCPqpt1p6+FOUI8WpnqOfBfBLe6WqRCfJ95j0bw3+N+4IJRNNHZtJvPx+2/wxoyBpvZnxyaQWyqe9nliAZ+89Tpzp3ZHxPWkRadgvJke9FrM6rtChlVdHnnmJYYH/aUPAEgkEolEIpFI/kLuXJCucsTF9IxlEelXC7hhHdeYz7nNcxn5eBdCevVl0MT1JCnJRpHT2pOHxgwjyCWHI6tm8exjg5m1+SK5mZfJUApyb4C3vVKIFQ5evriIvwoycjFvlCmFXRNGrdnL3j07+fKdITTRxnFg1eu8/2uWOKnG655Q+vYIwl1lzn4dHcm/fk+0mGOoCg6y4t13WPZzHkq2gmPfEZ71x3d5u/j74ChmLDbVnMX0BRx8/KguClZVc8VByWDQYShVfEl+tbMHTuLYoDNQfBM9GDwfYsywIFxyjrBq1rM8NngWmy9qlIwSiUQikUgkkn8hdy5It3KmYZCv6c9zO37iktb0p4ni3HRykn7k/Y93c96xN3NWfs2mJcPxt5xXgk7n5k/z/lcbWDjpMRqpUziw+GMOaatjp5zOTiLLskNFm3UFZRe4k2d1bMxJN2Jlj0/bbjxSWzko5HJCtikZvYaCohumDyJGT+KX72NMf+oTj3Hg5585cCzePAko/J1vT964tcZapYTwRjQ5GjEhMaLNzhbTk78GlaNL1XoQum/+9Pt8tWEhkx5rhDrlAIs//oWMPz63kEgkEolEIpH8g9y5IB1b6j86mHsdROgas5wXx8ziw6VLWTR3AoOenMZ3l/PQKEGjyhZVUSKHd+wl0XyhCJKT2S2C8vW/XUbt15Days+yCNFs3FvTUYnk07azcOlmfvhuDR988hsaqvNA90AsP45oxpjO7pnPM2X+SjZs2czaj+azNlY54UWb1l5iphDH+tE9Ce05ls1J5ocxSyi+fIAfLoo/6j/Pim++47vvlM+3rHm5qZCiiBPfHiezTGyvxrW2p2n7yrnV7/PJ0reZPHsXlqnAHUflEVSlHmySd4ugfD2/XVbj17C26VdtxCzixi1HEolEIpFIJJJ/BXcwSBfBpE93Zrw3ls71HSm4cIBt69ezeXcU9m2DadcsmKHBNSFxIzNGv8T7J2vQRESTViohgpUKQ9Juls6ZyNiXF7An04MHRr3A/d4NGThjHA/W1BG1ZRFviwB8X6oX9z37BmPbOZcNQq0c8KljQ5QIYJd8tIgV2yPIc6hHlwlzGdFU2VhiRK/8DKLRgL70/hL0XDm2j0virwZdH6CWEnmbsMbrvh40E8faUz9yJl9MGpRzVmrUVta43j+CpwLsIP0wm9fvQ/9QX9o4iavUikqtsDZnRq02S2mltjFtn1GJ80qKlSjHtOtGpcbaqoL81ubzKuWnaWzrV6kHlcpA0u6lzJk4lpcX7CHT4wFGvXA/rjJKl0gkEolEIvlXckdfZmQ0lhRlQJORQmqukWpePrg7mMJRU3ph+mVS8h2pWdsd2+JCtNb22JsCU3HuSiJJOeDq64ebfen5QzHZSYlcKbLDw68mNWwqjz6NRZkkJaWjUdWglp8HDqWKMWpzydLaU6P8g60GLYVFYOdge8OsxShk1OhtsLdXY2UoolBng4OtJZexiPSEJPKr1aK2m50oX4NObY/5tIGiQh0218o0UqxRKrGnRHx9UaHI74CdST3l85vP620cLOUpVKEHQyFXEpPIwRVfPzdK1GclJgASiUQikUgkkn8XdzRIf/3119m/f7/lSPJPM3v2bB5++GHLkUQikUgkEonk38IdDdLPnDnDlStXLEeSf5qmTZvi5eVlOZJIJBKJRCKR/Fu4o0G6RCKRSCQSiUQi+fNc2+0skUgkEolEIpFI7g5kkC6RSCQSiUQikdxlyCBdIpFIJBKJRCK5y5BB+k3QF+uo4B2lEolEIpFIJBLJX8adDdKLkjnxy+8kFv5dz6Lm8/ubvQl97SC5lpTbpTjhJ1aFfc+lG97pbyB93xwGDnqLXzP+TJhuIPfiYfYdOE26zpJk4s/LLrlFCiJ4f+gg3vo935Lwb6CAk/OfpP8bR8izpPxd5P/+Jr1DX+Pgv9AxK+/PfxHFCfy0Kozv/7YKJRVTQMT7Qxn01u9iZL0d/ug4rCcr5ii/HjjAgZLPwTNcLbacVtCmE33wR3bs2Mn+E3HkWl50rc+K4eivpa478AtHzmWJEk0niTn6a6lzBzh45ipKsYacC/x+6CRxeaXvR8r95TgnLuXJxSSJ5P8hdzRI16XsYeGc9/n+cumR6q/EiK6wkILCMtHvbZEfu4fNm/dyIb/sxMKYdZQVyy/x0PSX6Oj2J9RUHMeWOVOZM2sai46Wvg38edklt4ixiLzsbPKKbn4bK4r9hk8/+4m/zYUrRfiHppBC4R9/988vGXWi3oJC/o2eWVl//svIj2XP5s3svZB/C3YqIvabT/nsp8umoEtyJzFSlJdNdl7RbQarf3Ac1l3muzdfYcY7n7Dss8/4TPmEbSEiW6ndSO6Zdbz6VH9eeGs1O77fyvLZw+k74mMi8nVc/u5NXpkxn2WrPufzz5XPar78KV54h1Lsd7z5ygze+WSZuUzxCdsSQbZBR+K3/2PytJcZNfMbkq6Jm8/plbOZszaaQkuKRCL5/8N/frtLjU7z2P7NO3RxK/dmTvt6PPHWQsYEOZd9O+ltor20mx/TG9MlUM+xHSfI+rsjLsltob38Czu+PUKq1pIg+VdRaX/+q6jRiXnbv+GdLm63ME5oufzLDr49kir+kvy7MYr/qan1+FxWrF7NauWzbAadPawx5hzm45mfEd3sFVZvXMOSj5eyZvNG3u1bBxsx/isv5lbX6s3sxctZvlz5LOODMS1xNBVrOsnjc1eYyxSfZTM6I4rFKOJ/lXM9qkWEsfJIlqhfIpH8f+dvCdJ1qQdYPusFnuwVTNeQxxg2/XNOZFWw3qE5w9KXphD27XImDuhOr9FruCDuZtqkvXwyaQi9QoLp3nckc9afJqeCy6usx1jAxe8WMGFQL7p3f4yhEz9hX4qOwtMfM3L4fE6UfEdanMz+pVMZ/tRQnnv2KQaNnsfG0znm1RmLfJ/v3shbz/elW3Avhr72BWdyKxsui7jw426ymj7B0KfawIlv+D2j4rwFEYsYM24JZ0qWQwpFXeNGsyiiQBxoOLP0JaZ8/hMb5o7k8eBgHh/1LrvikvjtsykMCg2m55OTCTuRZVlFKsm/m41vPU/fbsH0GvoaX5zJvTawFyfvZ+nUYfTp1pXg0IGMnreR0xalGjKOEjbtaXqL63oOGMtHv2XcsDqlObOUl6d+wb5N7zC6f3dRxlNMXPobVy1f6ZbocVifbnQNDmVgaT0aMjgaNo2ne3cjuOcAxn70G+YdRVqS9n7CpCG9CAnuTt+Rc1hfco1y9hb9AGMeUZvmMrKPItcQpn1xmusm0pF6YDmzXniSXsFdCXlsGNM/F5Mng4G0n15n7PyjFGbv5X/C9sNmfU+qaM+f1VXleYpJ3r+UqcP60K1rMKEDRzNvY9k2GYti+fadF+jfXZx/aiJLD6abvxb/K/tKaQoiWDRmHEuuO6bwrXGMXhSByTOFH7w05XN+2iD0/XgwwY+P4t1dcST99hlTBoUK+z7J5DBFv8q1f71flunPN+uvlflhJWOFua1hfLt8IgO692L0mgtKhXw8cjjzzRWK9r3M1C/2semd0ddt9ttV9IY0fnp9LPOPFpK99388+9QwZn2fKmxZlQ8YyDgaxrSnewvZezJg7Ef8dsPWu8r82XK6NJW0q0pfqMjPcm7X9yx2D/uW5RMH0L3XaNZEJ3Bg+SxeeLIXwV1DeGzYdD4vGb8qHR9KYyQvahNzR/ahuxhfhkz7gtNlxuGqx5LKuOV+USkGrvz6JXtyW/Dc2G7UtrMkq90J6t2LwGqW4z+IyvNhhne2Ys/ir4jWWBIlEsn/W/6WIL0oLR5986HMXbWVLSsn0uz8at77WtzgyqMvJO3iMVZ/fJg6z85h5rMP4KmLIuzVdzlcexRLtn3LutkdSVs9i4/LbB0xU1U9+RHLmPbBMWoOnU9Y2HxGtsrjTEIh+vwULl1KxrzNT8PZFa/wv+9VhM5eyYY1C3i23hkWT32X/ekig0W+VQt/wXPQPJa89wy+ESt5b1tcxV9fF57j+315NOvZltqte9JWdYpvjlyp8Eahz08lPj6VfFMEJjAUkBofT0qekqCnMO0ix1Yt4rDvcN5b+jpdC78XgccLLEnryNRFHzC68XnWvL+Zi6YlupL8C/nFcxDzlrzHM74RrHxvG3GKoJqzrHjlf3yvCmX2yg2sWfAs9c4sZuq7+0k3aIj64j025vbiw6072SDaGFTjRjfRF6Zx4fByFuytzoC5S/n45bakbniTDw5kiNtn1XrURH3Bextz6fXhVnZuELIF1TA5oiYqjFffPUztUUvY9u06ZndMY/WsjzGZWnPrflBw6jNmfnISv+HvsfzD0QTEbOWYSY8KRaTF62k+dC6rtm5h5cRmnF/9Hl9f0OFx33NMHtIUG6e24uY8m+kjO+BR/Gd1VXkezdkVvPK/71GFzmblhjUseLYeZxZP5d396RYfMVB4Yh2/1hjI3KWLeKlNipikvc8BZaL3F/aVMujzTX6Yet0xKUiNJz4lzzRZUPzg4rFVLDrsy/D3lvJ610K+FwH4C0vS6Dh1ER+Mbsz5Ne+z2eSYf4Nflu7PN+mvlflhpWOFqa2r+fhwHZ6dM5NnH/A06Sfl0iWSzRWK9l3g8PIF7K0+QNjsY15um8qGNz/gQJYb9z03mSFNbXBqKwLp2dMZ2cGD4qp8QPj8F+9tJLfXh2zduYH3ngnixiZX5s+mgaAMlbWrSl+oyM+sbtf3LHZf/TGH6zzLnJnP8kD1DOL1zRk6dxVbt6xkYrPzrH7va1OwX5ldylBwis9mfsJJPzEeLv+Q0QExbD1m9kmFKseSKrjlfmHBoM0jKyvL/MnVKj2WhOOx6Gq1o3kV2yT1ebH8tmsnO3eKz66DxBWUnmAY0OZZyhSfXO31O4YRR1oOG0HrK5tZ/EPSv3JLmkQiuXUqH0XuIE4tBvP8Ex1o6O6Es989PNLSmayLVyxny6Om8bOzGdvjPu5t1xCb89/y45UmDHqyHe5WBhyb9KBvQCHHD8TesAev8noKiP52H5lNn2Fk9wBq1mxMp2deZWw7Z/OFJRRE8c0PKTQa9iL9Wvvi7hNAt1Ejaac7yo6IHEsmO4ImzGbEQwHUa9WDfu2cSDt9WYRiN5If9R2/aFoS2toFa+cW9LzXljM7DppWZ/8IdkHjmTGsPQ3r30ev7v5YVw/m1UmP0bJ+czr3aku1K2dIKvX8ml3QBGaPeIiAeq3o0a8dTmmnuSwELYj6hh9SGjHsxX609nXHJ6Abo0a2Q3d0BxE5VliprCjOTCAhQ0e1OvfyYNMKbpIKdkG8OOcFOgfUoUmXYSIA0XJyzznyb6JHKysVVsWZJCRkoKtWh3sfbCqCj0LOffsjV5oM4sl27lgZHGnSoy8Bhcc5EFso5ju36geFXPjpV7IaDWZUaHPqNOrAMzOn0N5RZTnvRIvBz/NEh4a4Oznjd88jtHTO4uKVImEjP+rVdEKtrk7thgE0ru1M0Z/WVWV5Coj65gdSGg3jxX6t8XX3IaDbKEa203F0RwRmb7MSKn6J10c9QkCdALoOH0pT7Un2nCv52uev6Ct/AOEH42cMo33D+tzXqzv+1tUJfnUSj7WsT/POvWhb7QpnSjnmX+6XZai8v1bshzcZK9SNeXb2WHrcdy/tGlY3p5XDLuhF5rzQWdisCV2GDbHYTCP0XI+aTmrU1WvTMKAxtZ2LqvYBKytUVsVkJiSQoatGnXsfpOkNUXrl/lyWytt1c18o62fVTSLcvu+pGz/L7LE9uO/edjSs2YrBzz9Bh4buOIl+d88jLXHOuogidsV2sRRiofDCT/ya1YjBo0JpXqcRHZ6ZyZT2jph7edVjSVXcXr/QkbLxZQb26UMf8en73MecLhST2CxRh70L14acCjDmXeDI/r3s3Ss++48QW/phUF0KG18eaCqzT5++PPfx6VL914jaJ5gXBnhxOmwlR7MsyRKJ5P8lN7/H3QEMuWf4+u3xDO2vDDqDmL0nG72h9MpBKaxscfN1EbcAM7rMy2QXneLTcU8zdOhQ8RnLkkRXcUOzvWEPaOX1aMlIysexpjcOVW0c1V4lPs8BX1/n64qx96K2i4Gsq/nmVRpxA7FzsLHUbY2dky2G4oqi7lxOf/MrGfY2RH/zBWvXbuW0VTV0Z7/ll+Q/sv4hbth2DtiYKrbGvpot1jYO2FkEtbZzxNao47paS+dXzjthayg2tUF7NZ48B198na+b396rNi6GLK7mq2kyaDrPNjjBW0P68PRrK/gttWJ5rVR2VLO1VGDlgKePPUXpORTfRI9qcfOc/mwDTrw1hD5Pv8aK31LF7U5H5uVsik59yrinFTuLz9glJLqKIF/Ucet+oCMrOQ97n1o4l9wkhZx2126YBnLPfM3b44fSX7kJDprNnmx9Kb2V5c/ryq6SPFquxufh4OvL9aLt8artgiHrquUbFcWGwm7XVOyJt30R6TmW723+kr5y+yh+4GBxNGv7atha2+Bw3TFxtDWiu1b2X++XZaiiv9pV6IdVjxVWtm74upRovCKU9gkdWK5VbOZT2mZluIkPqEXQO/1ZGpx4iyF9nua1Fb9xY5Nv1Z8rb9dNfaGcn5m4bd+zwtbNl2uqM+Ry5uu3GT+0v6izD4Nm7yFbbzBte6rYLmXRZSWTZ+9DreudHLtrnbzqsaQqbq9fqKk1+DN+UAJt8dmzYSItHVQ4uTpA/lVyq3BPtU9XXnrzXd59V3zenMDDXqUienUtBn/2gzmA37uHDRNbIkoshR2NBoylq9U+lmy5SHHVTZJIJP9irt8N/zIKOb1sNktjWvNK2Ca2bPmSuSE1LCseN8fKwQV7uzZMWrmRjRstn6/WsXB4gLidlaaqelQiqFWhycy9YbAvg8oBZ7WGjOxSXxUX55BWoMLF3emWZVYwZoWz42ghfvVtuHo5kcTEy1xR1ae+zXl27r98gxxW1tZY6TXoSu4HRoO4/f41qBycUWsyKNvMNApULrg7qbCu0ZKn3ljNlrUzeSh7I3Pm7SKtAmGUR6eu3b6MWrIztNi5irJvpkfrGrR86g1Wb1nLzIey2ThnHrvSjDi42GPXZhIrS+wsPl+tW8jwAPvb8AMRiFWzQZOVg7YiXRaeZtnspcS0foWwTVvY8uVcQmqUt+z1dt0JXVWcR4WDsxpNRrYIn0ooJietAJWLO6JoM8qDZCVoc8jU2lGjWsVB4p3pK+WwssbaSo/mumNi+Isc80755S1ToR9a3dpYUSlCT6VsZtRmkyFs5ipsfY1r52/mA9bUaPkUb6zewtqZD5G9cQ7zdqWVHRduyZ8VKhsD/9z4XMKt+56ZwtPLmL00htavhLFpyxa+nBvCNbErtEtZQ1uLiZCNJouc6528lF9aVTmWVM6d0IU9/vc0RH35Fw4lVTQxuzNYVb+HYSNakvb1Cg7lKC2WSCT/H/kLgvRy++k0RWSn5qGq4UdNJ2v0V0+w/0z2tb2DN8OpwYM0V5/m62+jMf+qmhFNchTnMsrfQnVV1ONIo45NMJ7cwDdR+eIeqSHxwFq+OF7uu0KnRjwUaM2pr7aaH0JSHkDcvpajxiBCW1X81XbFGMk88Q3Hjfcyaup0pk6dav5Mm864Li5c+n4P8aUCEQVbj7q4FMbwa2QWhuI0fgtbyoGSH9a9wzg1eohA61N8tdX8QKUxL4rta49iDAqlVbUC4o6cJFkDDr5teLC1B4b8fIpL7oWlMBYcYenyn0kWN8qC6G/46pQ1TR9ujFOVeqxGQdwRTporoM2DrfEw5JNf7EiDB5ujPv0130Zbfs5O2Ck56hyKqW/dDxyoe18jVGe3suuiBqPQ5a9hS67rUpdNap6KGn41cbLWc/XEfs5kX9ezta0jqvxkkvP06LV6HP6sroyV5XGi0UOBWJ/6iq2nlQcnlQfhtrP2qJGg0FaYvc1AwZHPWHEgWUw4lO0KX3HKuikPN3EynS3Pnekr5bD1oK5LITG/RpJlKCbttzCWHsi95f57O9wpv7w1hM9W6IcOtzZWVIoo98hSlv9ssdk3Fps1Vmxmja2jivzkZPL0erR6UVcVPlCtII4jJ5PRCJ/2bfMgrT0M5OcXi1yluIk/X6eyMTD9T43PJdy675nRZaeSp6qBX00nrPVXObH/DGaxK7NLWUM71L2PRqqzbN11EY1R+OWvYSy55pdOVY4llXMb/aJSrHF/YAg9PGNZ9cbH7IrJQifky4zZR9jc+exOs5RmFPYv0qDRmD9F1ybBt4qKmsEv0N/9FDsjru/F16f9wooFS9nzh76tlUgkdxt3NEi3EgGOg770fro+PP7qMeoN7kfds28xpH9/+owM44qvB7bWFc39rbC2ti4jlJX7Q7z8Sg90616g96N96P94T3qN+kAMQpZVClGOlamoarSutB4V3iGTeLFDFmGjHyU4pAfDPgoXY7ny6L21uN4ii7UXXaZMoZthIy/27k5oj96M+VpNn5mTedhdkaoC+UT51uXbYswm4rsIrNv0oFWN0uccCejRCbfLe9ifIKL0a7KLWKjuozzX3YHvp/ahW+hwlmbcR3BNe5HFnEFZaRf/v4a5XtX1FRQrpR3X13zK5zedFwlKfmuvLkyZ0g3Dxhfp3T2UHr3H8LW6DzMnP4y7Ssvlve/ydK/epq/Px2xzps+ortSsYDnJSu1P3eQlPNMzhNDRq8l/eAIvPeQu6q1Kjyq0l/fy7tO96K18pTxmG859RtG1phr3h17mlR461r3Qm0f79Ofxnr0Y9cEeFFPf1A+uYY3XIy/yfLs0lj7Xk249h7Mi72FC/RzMdq7WmsH96nL2rSH0F/WPDLuCr4etYgoTjgE9ecT7DAueDKHXS9tIc/+zuqosj5CzyxSmdDOw8cXedA/tQe8xX6PuM5PJDwsdiiutrOzw6tiSlI+fpmfIo7ywKpdO4ydU7ou3rKOq+opCqT5hW5dHn+uOw/dT6dMtlOFLM7gvuCb2iu8q55WV9rKOafIzVUlRipyirBKV/PV+WUr2inRk6jfm8xX7oW3lY0X5tlpQ2netueIvtX9dkpc8I2wWyujV+Tw84SUeMtlM9P+ej+B9ZgFPhvTipW1puFfhAyrtZfa++zS9eitbQsawzbkPo7rWLLuyexN/vk5lY6DbTXzhRh1WqNeb+F55u1drPZh+dc/y1pD+wp4jCbvii4et2Q8qtktZQ1t7PcKLz7cjbelz9OzWk+Er8ng41A8Hky2sqhxLbkDxZVNzb9YvSiN8WiRbi35cHivnNoxdMJ1Qp194e1QfgjuH0PeFjznu1IrGNdRiouaAPnk9Y3v3oEcPy+flH0lX4nRlP77QbAXFmnzXSlVqzLdrxBMvPYav8qey/VH8q005zM4d33EoudwqkEQi+VdideDAgdudwv8xinNISSvA0cuH6qpitAYxWKlvHPwMWjG42JoHnDIYNGSkXkH56tvbs/q1Pa3iAhEG2YqB1HJcZT1GtFmppBXa4+VTw7Jv1IC5ytI1GihITyFd62jKZ1dKzBvkU+o3ivrLBQvG4iJ0arvrcl7DSLFGi7W9Harysot6NempZFq74eNqJ8rQYrSxNd+Uy+c16tDqVNheV4Roh1GIZhGkgrLLnFcwFJCeko7W0QufGnbXB39FRqGnlHw1bj4e17delCL/2P8YNLuAV9e/SZA2hSxrd5PMZZtbuR6NxVmkpuSjdvPBo1wFBk0GqVeUr/y98axesp/YQmV+cANK3alkq4RcNWzNulQLXVryF+ekkFagyFUdlThnEOeuuYmil9RcbDy8EdVfT/uDurpZHkNBOinpWpPP1iitJL2WYitbbFDqzsba3QfXUudvu6+Up9K+cmOfMGjSSc20FvK7YmcUeY02Fp8vn9eITqtDZXvdboqcRiGnOftf65fl5blZf63cD291rChdRz7H/jeI2QWvsv7NIBEwZd1gMwXF3qm5Nnh4C9uUSqvQB4Sus1JTyFeLMcGj8i13VfpzGSpql6CKcbMiP7tt37vB7grF5KSkUaDYubqKYq0Bta3aZO+qxofSmHSZrcJdaYvJL4Xc12eIVY8lJZSX7RbvVUadGONVFY3x19EXZJKeB87urjhU3oxSiP5TJPqPXQWyKu3TVyCL0YBRmeyaDoSPanSo7SuwjUQi+dfx9wXpkv9XXA/S36J9uR/JkUj+m5QK0t9qj+wWEolEIvkzyMm25A9h49mW4JD78LG1JEgk/3ls8GwbTMh9PshuIZFIJJI/i1xJl0gkEolEIpFI7jLkSrpEIpFIJBKJRHKXIYN0iUQikUgkEonkLkMG6RKJRCKRSCQSyV2GDNIlN8eoIz8n7w++gVFyHeWtiP/NR0CMBvMr3yUSiURBl59LgbypSCRVIoP0yjDkcuHwXn7avZ8TSZpSAYaGqGXDCe78JB9EFFrS/v9izDrKwuE9eXzku/yc/gffwW7IImJLGBuPpaMXmkz/aSK9hi4nRms5//8eI7kRq5jYrwtduoQw6otLlvTbwJjBnlf6MGxlDLevNj1ZUb/x29ms23x74p/HmBvBqon9RLu7EDLqCy5V9DKZKjGSsecV+gxb+cf8xVjA5Yjf+OXAAQ5YPr8ejyNPTBqyIrYQtvEY6X9SKcb0n5jYayjLb1vAImLCRjJg2j5u9X2mdwJDVgRbwjZy7M82vBTFGTEc3v0tO74X42XcX/NG2r+fsvb5K/R2p/nX2KEohrWTnyR0wBx+yZLTd4mkMmSQXiEGru6Zx/ipb/Dm3NeZuSycfMsZ9JlEHruEzlidup7KG0v/P2Pgyi9h7GQIy9a+QWfTWxP/AIUxbF+3nUNJReJAQ/zR82g8G+L9X/mdOnFDWj9/HVdCPmT7j9+woL+/5cRtoEng9wtFeNb3vP2f99Mn88Pbr/HBnpS/+dsQEeSsn8+6KyF8uP1HvlnQH/+St/fcMhoSfr9AkWd9PP+Av+iTv+P1l17j3cXL+Oyzz0yfVVtPkW0oJGb7OrYfShJS/jk08Uc5r/Gk4e06tDGXmGMJqP19cLAk/R0Uxmxn3fZDmLrjn0WfzpHlL/NEv+eZt/obdm5eymvDnmDSpnhuez52t1HOPndUb9co4uK2T1m+J/nP9c1/mx3sGjHsrZdppoklLvv/x5ROIvkrkEF6ReSfZu2yQxRYOZre4pafmEhuyThSGMfJy+Jf90Aa1rhN9Rn16MosRhvQ6atYRbgh/3WUN5oWV3LOUKylqmJvnXxifk3A7f57qXXbwVUpnNoxY+MWFvSuhUrcTM6dzcW7dT0cLaf/v6NLPcavKbXo2aMpzmp7nO1uv9vpM84RletBizpOlpTboED4bLINdVvW4m+dVupSOfZrCrV69qCpsxp7Z7vbH3D0GZyLysWjRR3+QMspuHSCJLt7mbJkDatXrzZ9PnvjUXzVTrSbsZEtC3pT65beBFkZetLPnSXXuzX1btehCxMIT1JRp/nfaxendjPYuGUBvf9cwwWFRH3+Cq9tyCN43no2fb6ET5Z9waZVr9GrqStqS65/LeXsc+f0VgptIvs2buVI9p+5Gf877aDNSCDHxgd/t3+9p0gkfxkySL+BYuK++YRvrqhp9uwI7lFG5/QLpFpWT7SpkVwsALV/S/wctFxYM47HQgcz/4Sy1m4k68AcBvZ4jInbktAXx7FhQh/6TVnP1o/G069LV4K7DuHdfRc4+vk0BgV3EceP8uLqaDRK4aXyb1s0gf5dRf4ufZm6Oc6yGlJE/O5PmDioG51DuhPSJZinXv2ck1lKtK4n42gYrwwKoUtIN7p27sOUTSXXlcIgAn+druxHX0m0r03mTBzUaeFrCSJEQHJkNbNG9adnSA/6jpjN+rP5GHOPMP/5l1l93qIk3WW2TxvJrN3pYhoiQv3jCxg1djlRymkRMJ5IdaRRoMdNbx769COsnjWK/j1D6NF3BLPXnyVfTD50Vw+yYupQegUH03vEHFZ/OYfRs3ej7MbJP/Eh41770qS/AT37MWN/Fsb8E3w47jW+3LaICQN60m/GfrKMRnKjtjF/wiBRTle69x/N/J3x5q0kFebXcfXgCqYO7UVwcG9GzFnNl3NGM9vSxorRk7xzFiMmhBGni2f9lOFM/OICWmMuUdvmM2GQKKtrd/qPns/OeMtWCWVFbPUsRvXvSUiPvoyYvZ6zotEFceGkOdTG9uD7jHlCnOs1gnd3X18Zr0on2qTTXNT6EOSvRJEFhAtfnLFpL+vffEHoKITez81nX5plFloUxw/vj+fJ0BBCHn2SiWFRZt+sRK7K0CfvZNaICYTF6YhfP4XhE7/ggrYKnVfmW8JfwtMcqG17kPfHPCHO9WLEu7tJud5wDq6YytBewQT3HsGc1V8yZ/Rsdpu2ZmlJPhOL1rslpqaXJv84C0aNZbnZKavWidBy5bYvIO5EKo6NAvG4mUMLWQ+tnMrTQtZufZ4Tsv7IqTwvWtVRhMvlyPzneXn1ecvKvo7L26cxclYVfl1l2xWTVdR/8jm+YBRjl0eZ6zHkcHrT24wbGCrGmhAeHz6TNSezLD5dtV508d/w4ZeXaTH+DZ5/wMvSn61wqNORLoHOWFUlX0V9LPef6qcWqrRPWb1VaI/b7NenYrbx2ojJrLtczIXPX2Lws3M5kGkUJjnNprfHMTA0WIzljzN85hrLGC+ooM1X4v4OOyhfLESxbf4EBolyunbvz+j5OzE3L58TH47jtS+3sWjCAHr2m8F+cUFVY5Jyr8yPPUWmZ2vq/p1fI0kk/zJkkF4OQ8avrPjiHAbPUEY92owGbiIx6xLJhUpAYiQvNoIU8ZdPi3pUM2QRdTCSnAIbarkpYayG+CMRpGl0OPtUxzr3HAfPZJFxbCkf7dUT2LYmVsbL7Jw7lqlfpeF/bwMR/BZw+tsfuSgiIWOp/B/u1hLQrrYYcDM5vGUvCcUGru57mwlzv+ZEUXMee+YZQgNUpBxZxbsbzlGUc5iF4oZ0NL8dI2e8wbSRwTT1rUaZNR9NJJ8OFoG/GDTLfHpM5qf0GwOu4sSD/JbdkIeamNcwCyJXMGnmdozB01myZikzQj3JzyumMOEwx0Qw5uVq+bq/4AK/RKTj5OYgHEzL5aOHOV/shZuNEveLgLHYl6A6NxmZCyJZMWkm243BTF+yhqUzQvHMz6O48Bxrps5mmz6E6Z8uZU4o7Fi2jxRHNxystST9fpQzB9eyPqUtY2ZPY0hLZ4qTfufomYOsXZ9C2zGzmTakJXax65k2aTXZD05n1Q5xc+mjZ9fi1USIuZa2gvw2MWuYOnsb+pDpfLp0DqHsYNm+FBxNbawMFe73DmFQUDXUDYbx2uszebl3LRLXT2PS6mwenL6KHeJG2Ee/i8WrI8StroDIFZOYud1I8PQlrFk6g1DPfPKKtaRExpKXc4ItJ714as58xrdI5fsNv3FFiZc0VelEBDnCZ69Wa0KAp7h9i4nX8aOnObRqGSd9B/PGe+NpJgLqdb+kiYJ0xG2ey/tH6jE+bAffrJxJ/yA34YOVyWVqZIWo3O9lyKAgqqkbMOy115n5cm9qJVau88p8S5sSSWxeDie2nMTrqTnMH9+C1O838Ju54ZxbM5XZ2/SETP+UpeaGsy/FETcHYRURNF06dQV7fzG5ycsiK0t88rSiFws1XD7K4fPFeJmdsgqdKOqtwvbi2tMXi/ENqnOTLSsaote8yqyterrNWMziGV3RfL+TZMfGBCjRvSaBw8fi0Hm5WrYzFXDhlwjSnSrzaxtiqmp7Zf1He5mjh89T7OWGjUl/U5j8eRptxy1kzbpFjKxzipVvr+OcEolWqRctsbu2EV3tEYZ2rll2nDFRtW0q6mN2Kf9UP1W4iX3K6K0ie9gRe5v9uqB6e4Y+2QxHdQDPzXyd2TNGcY9dDGumTObztLaMW7iGdYtGUufUSt5ed84k5Y1tDiD9x7/eDs7FF1k/bRKrsx9k+qodYnLSB/2uxaw2G4Lfj57h4Nr1pLQdw+xpQ2hpI9pR6ZikyKUnJyUDg4sPLuZZhUQiqYCqx63/HIWcXb+MA3l2tB3+FM1cPKnnpmx4ucp501K6hsTwBDG8OFKvqRc2hQmcTBS3fOeG5oFcBO0XojNEPl9a+zuiSQwnQYklqj3ItCUfMeuFYHFGYFWf5xZ9yluTnqCBcqy2x0ZY4nr+Dkxb+jFzxj9GnZLzRdF8tUR5gKkuw+e/xUvDhjF6ZCecxem06FTysuKIVxbzrVXYezen86AxDL/fvayB7Zsy5su97N1b7rPrfbq6K+0sQc/V31by+hs/4TV0DA97iFIMaexfvoXM9hOZ0r8N/t7+tOk7jhHtqpN3MZIst+bUq2Yuo+jyKeL0vrTyF2GLCJQuhqfj1rwBLkrAeFEEHq5i8lO9KtczkLZ/OVsy2zNxSn/a+Hvj36Yv40bcg/FIGF8nBzF+6mAeaFSfoJ4D6ORlh18rfxxEXbGnUoX6ezNzxtM8ct89BLhaiyD1FKlC871nzuDpR+7jnsYGflu6lrigsYzr7ocuIYIjp9JQ1W6Cl50S1JbL3wSOhn1NctB4pg5+gEb1g+g5oJPI62duYxXYurmhTy3Ao+29tApsjK/2N5aujSNo7Di6++lIiDjCqTQVtZt4oU7bz/ItmbSfOIX+bfzx9m9D33EjaOeSb25XrUeZMXs4DwY2oIGvE2qVnfAbI5mHqtCJ8On4kwkYfVthMkf+JSJSjNQMncGsYQ8SWL8BftXUqOyV/UzFZCWmU2wtjlXW2Hk1o31rL6wrk6tGaZ8ph60bbvpUCjzacm+rQBr7aivXuboy33IxrbalUotHZ8xm+IOBNGjgi5NahZ3oMMbMQ4R9nUzQ+KkMfqAR9YN6MqCTF3Z+5rYq2xVOJujIOzCbQX360Ed8npi4kbhixQ/DSRc+28BFlFOVToyZHKrC9sbci0Sku9KsgZiUm1teIcaMg0LWFJOsT93XkPpt+/B0sBe2QtbaQlZDzkUis9xoXq+aaYud6EScitPjW4lfN+FoFW2vrP+0wyXvIuHpop4GLmLg2MuS9cncO3kmwx5siI93EzqFNMM+PYYUMdxVqRdDBpFHk8WQ0pGGFexDqto2FfSxgBoU/IP99Gb2UexcojfrCuzR2HD7/fo+bzdcitLQ+NzLfS0DCajvQe7+JaxPvpfJM4fxYEMfvJt0IqSZPekxytJQBW1ubCT6r7ZDgAtZB5ayNi6IseO646dLIOLIKdJUtWkixhljbixmdcxkxtOPcJ/ZEFWMSQpqvO95CL/YVSz56U/ux5dI/h9T1X3lP4cucSeLtySLv5ww/B7G/Hc+5cc0Zd0tk9hUjYhdM4mJMgfhQWLQ112NIiZXOWxtHsizozkcL45N+9VF8BQTjZK7zsARPOytQpMUjbIG5dLlOXrXt6MoJZor4thO3HS8bfWl8j/HI0r+5ChT/mr1G+KcdoiDYiCkfg861zGvtenzc0xfvTq6VcO+1sM82dkHMZqy6MUneG7BAa6av5W+hj7rPL8f/I3ffiv1OXiYiMQC0+ridYzotbmkpqto0Ko29kpSTiQ/RapoFdKC6mVis0ISTiZjU7c5tUx7YvRkREWQWRK0a+LFRMYa/5a1sROTnAQxybGu0wpfU6GVkUPkT5GoWoXQokxl+Zzbcxp90x7cY3mIVZ8RRUSGJbjRJBKeqKbloD4EXLsnKxOrRNQtB9GnJDEvkl3hBWhOL2bCqBeZ/sFW4huNYeHb/fBXV5A//xx7Tutp2uMezNWa25hRamJSKYXxhCepqdPcvGUoL3IX4QUaTi+ewKgXp/PB1ngajVnI2/38KYz8iUhVK0JaVDcHaiWIdkVcVtN8UH+aKTdiYz7x0dnUCKhLNaub6MSyp9u9RQOcFXMknCRB1ZJBfQNNzwQY8+OJzq5BQJ1q4siBpoPHEFptJ1OfGML0teEo37LnVCZXlYjJQXgS6jrN8TU3vHKdF1bmW8IWEZdRNx9Ef3PDyY+PJrtGAHWF3vPP7eG0vik97rFMRkVboyIyxISwntCLOMyMITrPiwGffn9tQrpr2WDq2mjExCURa/+W1BayVamTm9hekyAm1tZ1aFW1Q5MXvYdT+kC6l5PVtVl9k10KhQzJNnVpbu5EZhtmVu7XVbe9sv4j2hp/kkRrf1qKhudE7hZ2bU2PIFeLXY1oc7LRObjjrLqJXoqzSM4GZx9XlOldeaqWr4I+9g/305vZp7TelP5Y3h5/qF9TQJwYO+0bNMXLpERht93Cbq17EORqyWnUkpOtw8FdWY6poM1/hx3II3JXOAWa0yyeMIoXp3/A1vhGjFn4Nv381abFpUS18JM+AZYA/CZjkpJgzOLMTwfJ9G1FgG81s2wSieQGZN8oQQwah1eu4oyY0lvZFRL128/8/PNvnEpXTupIi72KVtkfmyQO3QNEEK4SN9ZTKCG9e6M6OFtriNm6msMiajbvV1cGYNMTprRs6SUG0CKSTsWiRU39++or0wCyL0SagvSareqIm2Dp/N4iv46rUTEocwC/IH9UWcmIsRjr6l5UV77TNGRwfNcpUZ4dTTvWx1Fdk24zP2fDu8/Q0l5H3I61HLTsTTWjJ+3QOpYtM//CxfVPGFtPZYuzpVHj/fBQ+vsmceRMpumcLjuJdL0L/h7mIOIaunSiz+fj0aK2eYDWxPDt5nOo6pmDdn1GDGdzvWhdV9zmxQ3iXGQuXq1EcGm6uBJ02SSl63Hx97DshbdgyCUpRYNLXW/zxEHcUM5/t5UYdT1TcGMKynK9aRvoet2xlYlVdC7ebQNxtSTqMuNJ1fsx5P11bFi3hhWfvMO0ESE0cRYZKshvyE0iReNCXW9LIKY5z3dbY1Bb2lgVuqvRROd7i/Yr2tGRGZ+K3m8I76/bwLo1K/jknWmMCGki/EdHdlI6ehd/yqtYn3mOqBwv2jW1tEt5oC3RitqtfLG/iU7MD42qqWt6rkBP1vkocr3vIdDSuEIRZCZa1b4WZNrU6sqkpRv57MV6nFr5HtsuFVQqV5XorhIdnY9367omv6hK55X6lrDFuagcvNo1tdhCTAhFAGFVW5nkGchNSkHjUpfrZvmOrTFq6lke9CuIO0mKui4tTLOEUgg/jDkr/FDI5ngTnVRtexEEnosk16uVmDSYT1eMnrzkFLTV61yTtejC92w7pxJ2UWTVkR59nnyPFqbJvmLDmG83c05VmV/fpO2V9R8hR0bMWSFva+o66shNEXZ19qVkl5ryM58n98ViG9iBeo438RWVA872RvJSMsQYVJ6byFdBH/tn++nN7FNab0rV5e3xx/o12lQiLxZRM0gZ/wW6XFKE3Zx9S7Y8KSY5yb5YWwI71KuwzX+HHYQhiE/V4zfkfdZtWMeaFZ/wzrQRhDRxFu03Ly7lere95ic3G6cVdAnfs/R7O56eOYHegUo5EomkImTfsKCJ/oole0VI7DeYJdu+47vvzJ/1M4NEyApXL6SRmxrJBeWhUREk+ImBUZufaxoYMyN2EPbuJCatjjWVZdqvLgbgMxcLlcy0qi2GKmXbxxlTSC4CNmVVsJD4E4ni3+o0buKBunx+JWiPUKYAXjSrXx17Vz9cxZHh3FY27NjFpkWzePeXAqzqD2R421y+X7KCHYfPk26wRa1YtXpdajmVNq+Kmt1nsTQsjLDSn5VLmNWjpqmNZdBeIS7HDp9a5n3t1g7OOBiucubsFYqVwf/8HjbvT6JY3Fiu5Bsw6gwYNPHs+mgeG0WzapkmHkqgdIJUx0bm/dDXHhr1FPUZyDy2ivmf/kRS+e86rcWNx8HA1TNnuVKsjPnn2bN5P0nFtjiIu1dOXAJ5eg3xuz7izY0JSmUoz3YpD1emOjSkqWepNSVlYpXqQMOmntdWmqwdXMUkIYPo2GwhhYKWjMRUCpSDCvJb2TqIm2YOcQl56E1tfBNztUobq2iHQJHpSrUmNHFXNGyNg6uI5jKiic22TKC0GSSmFohSxDlnBwxXz3DW3GjO79nM/qRiS7saEWhebhMx5jkRJHjSSvmlF6uqdVLy0Ghr08NvBVw6mYJDo0DMKlKCTHGD9RR5nQxknTvB+Rwhl5Uj3n4e2NtWx9XRplK5MGRybNV8Pv0pSYQp5VD0eKUaTZq4m3yrKp1X6lsWWzQKVCa5AmWSJwIIT6F3J6ywNTechDw9mvhdfPTmRhKoZXnQr+Sh0dYmPZShxA8DFD+sSic3s/31h0YV9zZkHmPV/E/56UaHxtZJ9OmcBC7n6ylK3M2iN78kDh+LrCJgvpKPwajDYDDbcJ65E1Xi1zdpe6X9p0TeACGvCicPV6wyzhJ9VWQyFnBxx0I+Oe7J48Pux82qar2grsm9Hf0o/G0pn+2JI99gRJMawbdLF7I1trhq+SroYxWl3dl++mfsU1pvFdnjj/VritK4kGGNs4s9VjotepUTHq5WZJyNxmySi+xY+AnHPR9n2P1uFevtb7CD4k/m5sVyvXmJpJoNQVx4Kg4Nm1r8RHCTMUm0jJzogyR5daS1ZaVdIpFUjOwhCsq+01WbScSFR57vR6NSKx72XvVMwXHR1TTS48+Ytp/4BilfFVpRPbAzrcXYbojbxcZfrOj8ZFtxM3CmSQtvbAoSiDRlbm3Z9nGZM8lGcAmkhbcYzXRXOXcxTwyydU1bZyifX5tCdIKYAtg3pLUI2m3q9GLsgAAcC8JZt+AtPt56Bqegp5j71lCaqLKIPrCWBVPHMmbqZxxXt+DJ6aNordxM/yCmvbaZXgRZflfO2qMDQ3t6EfHBELoFh9D31e1kuTqjtvOnY3sf4lcOp8ej49hi/QgP1fQmQARnKnFTTYuMpdivDcpzotq0SGKL/Whjemg0j1MbvuC78ByMZb8DViqjw9CeeEV8wJBuwYT0fZXtWa4427rSbmAXXI6+xYBuvRi/1ZpO7b3wCgzAXaXlStQlUVeQeT+yBe2VKC6JOk06tmDt2ZER/f0JnzuQxwYMoE9ob55fcoIcYZ6K8lu5tmNgFxeOvjWAbr3Gs9W6E+29vAgMUNpYRTtM355cQm/ZD650N8+OI+jvH87cgY8xYEAfQns/z5IT4lpxzqPDUHp6RfDBkG4Eh/Tl1e1ZuDobrrWr5Flb5RucNKfGNFOCdquqdAL5cadIr9ZUBBQiuhATryhx4/ZtXbIvtJCEU2k4NW6Gl00xVw5+xoS+vejX/3EGzDxJsxcmEexjU4lcory8U2z44jvCheLKN70o6RSXSp5LEFSl88p8y1Bii+sN51SaE42bKUG7Fa7tBtLF5ShvDehGr/Fbse7UHi+vQAKUhitbgk6nU03oofyvrpTxwyp1chPba9OIFNf6tTE/NJp3agNffBcu2lReG4qsTxJc4yjz+ocQOuYrDB064OURYH6WBTv8O7bHJ34lw3s8yrgt1jzyUE28A5pU4tc3aXtl/cdQWl5Rxv0jeCrgAh8O6UWvRx9j5Mosus58h+GBN9cLIhxuNHgOL3W25sf/DePRLp3p8eRMtl2tTTNvuyrlq6iP/fX99E/Yp4ydK7LHH+nXolx7X1o3MPD7nH70HLGc6CJX7h/xFAEXPmRIr148+thIVmZ1ZeY7wzGb5MY2/x12EIag44j++IfPZeBjAxjQJ5Tezy/hhNkQRF0Sugkq8RPBTcYkZWU9MSJZ3NoaI399USKpGqsDBw6IniYxFheiMdrhYFt+3mKkuLAQvY0D9moDmkIdtg7Xf+/ZUJBGQpoeN7+aOKv1FBUZsbVTi2Ef9EXm60qKNGgL0apEOaaBSqlTI8I4O+xtzDeN8vlN563EefX1m4ouN8W0QqN298PX1dZUjwmDhvTEy2QZXahV28PyBP0fR3PmQ4ZOy2Tyl3O471qwb6QoM4U0jQPePjWwvVa5jty0KxQ5eeHhpEKvLcbK1sasI4NW3NZsLW0yoBXzDltxUHBmKaNfOU7nBR/yzLW9j2UxFmWSkqbBwduHGtcrEzpI44rWGW93EWroteisbE0P3patq4TrdZZHl5dGSoay39MbdyG3mcrym9uodRZ5HaxEG3WmNmqqaof+Ml+PfpbtHRaz4pn611emRFl5aSlk6Bxw93bnWtUKxiIyU9LQOHjjU8Ni3/LtMuoo0lmbHp4soVKdmPIqD1qa9WcwN+6a/xp1ReislQdQzcd6oZPkLCMuPt7Cn81pJm6Qq4AzS0fzyvHOLPjwmVLPACjoufz1aJ7d3oHFK56h/vWGV6JzhYp8q7wtjOiKdFjbWXxLQZdL2hUtzkKPDlZ6tDorbC2NMbVNJdp23XUslC33ZjqpzPbK6WvXFpxh6ehXON55AR8+U7I3txwWWZ28FJsLWYuvy6pgsmGRkwgOnVAJGxZX6deCKtquUFH/Kd9WRRcF6cmkax3w9HbDvlQdN9eLGYMmi4w8cHKtgUNpk1YqX0V97K/tp3/WPmV0UZk9brdfKxgKSU/NQeXudX2MMxSQnpyO1sETbzf7MraqTEcKf7UdhCFIS8kwPbPg7S581JJ8o0+ZqXRMKo5l9cjxnBz6OQu6uF3XhUQiuQEZpEsqRBuznGGjtuLW91VeH/MgHqUH/T+LuGEufvFdcoe9z6QHzatc/0oqbUcxSb98y97j+9jwXRGDln7Ek3VKRar/Dyg4s5gX381l2PuTeNC8PGaiOOkXvt17nH0bvqNo0FI+erJOqcnJ/1fEhGXxi7ybO4z3Jz1oWS2U3D1I+9wt6NMOsOz9ZXxzvgmvffYaHUoekJVIJBUig3RJxRg1JEccIcaqKe1b3vzFQ7eFsZj8QiucHP/l33VW2o48zny5mC0JzrToPpBHW7r+eycilWAszqfQyonyTc878yWLtyTg3KI7Ax9tiet/IiAyUpxfiJWT453tJ5I7hLTP3YIh9wJHjl/BreU9NHaV1pBIboYM0iUSiUQikUgkkruMCjaeSSQSiUQikUgkkn8SGaRLJBKJRCKRSCR3GTJIl0gkEolEIpFI7jJkkC6RSCQSiUQikdxl3PkgXZfF+WO/cuDAAQ788iuHjp/lcm7Zl87/VWgubuHtSRN5Y+NFS8ptoLnIlrcnMfGNjVwssqRJJBKJRCKRSCT/AHc8SM89PJ8Xp8xg1qxZzJo5g2mTxjCk92Dm7kqmgrem3wIGMo6uZv68D9lSZfSsJWHP1/xw/ARR6VpL2q2jTdjD1z8c50RUuihJIpFIJBKJRCL557jDQXoRlyMuoBF/1Xn6bT75eD6Te/qIo1R2r99Pcuko3ViMtriiX380UKzVc/1MPmc2reO7H38jsbDi/DqDkm5Lw8EfELZiHctGBphPWTCazpfHSOlk24aD+SBsBeuWjSTAzpKoIOQsKjZYDirGqNcJKSrCKNpSXKotpTCI9usrPCORSCQSiUQi+Y9zZ4N0Yy6xp9PEH+60bteKps3uocO9/igxr5VjdexEbdqkfSyZMojunUPoFtKZXiPnsyupGPQZHA17hUEhXQjp1pXOfaawKeYMq8YO5Y3Dygr6Fba/8gRD5x8nK24DE/r0ZWJYGK8N7ErwEx8QkXOJDVOfZ8xrq4hSZgnGQmJ3vs+LA4Lp3KUzj4SO4L1f0tEVxrLz/RcZENyZLp0fIXTEe/ySXsSlDVN5fsxrrDJdLKYb8bv5ZOIgugk5uwuZgp96lc9PZpmC8WJT/f2Ysn4biyb0p2vXYLr0ncrmONEOBW0S+5ZMYVD3zqItIXTuNZL5u5JQzuozjhL2yiBCuoj2d+1MnymbUC7Tpezlw8njmP55lGmSI5FIJBKJRCL573Jng/TCeE4mKqvD1amedZbDu1Yxf9ERinCly1MP4Jb1KwvGz2HDKRe6vzidyQMaozn/HYvXniHn8ELmrD5KfruRzHhjGiODm+LrpMLex9P8tkaHxtx7b3s6P+iP7txBzmRlcmL1ak7aNqH1A/fiqz3HwdNZFKp9cLM1kL7/XV5+9xtO65rS48knCK6jJVOTwc/vvsy735xG17QHTz4RTB1tJkVicnHu4GmyCtX4uNliuLqPtyfM5esTRTR/7BmeCQ1AlXKEVe9u4FyRkVxT/RkcW/ohu7UBtKuthszDbNmbQLEhg18XjGfOhlO4dH+R6ZMH0Fhznu8Wr+VMQQ6HF85h9dF82o2cwRvTRhLc1JdqKj1XfvuSbb+f4fTlgkpW5SUSiUQikUgk/xXuaJCuuxrNuRzlr1jWzJzI1Lc+57eilgx8fRGTOzhxaesSdqVD/YHPERpQHV1evmmfuptvNbLi4skXf1ur7PFu3plBY4Zzf60Aej9a37QSX+3+55g+eyrD73ciKTwB5VHUah2msSJsMR9M6ojj5XASRHTrWL8pXsbzbP5sH9nU4Zn35vPK86OZ/ukaZvvvY8W+bKjzDO/Nf4XnR0/n0zVv0sXpMuHmi2nqZSD6qyXsy4K6w+fz1kvDGDZ6JJ2cRYVp0aQWaUgsVf/Sj+cw/rE64gjU9jYUX9zKEnMjeU4E99V1eeSbG0kNsoiLN7USlb03zTsPYszw+3G3VuH+wHBeGjeNN0e3wtFUmkQikUgkEonkv8odDdIL4sJJFv/aBT3PGzOeJkiJNvOuYPByx644iYP7E035Lq6ezKix01j2ezUeHPoGcwc0pNbDT9LZB7IOLOLFJ55jwYGrIhDWcTUqGiXu923tj4NysT6TmOgM8UdtBox4BB+1KZHMmGgyxV9KPpvkI/ySJA7q9aBLHVslg6CY5CO/YE7uwrVkgT4zhmjzxfjbXObQwVRxUJ8enetgyqbPJ0fZcePoRjVRi7n+Ogx87hG8VRqSo5QtPtWo39CZtIP7MbXy4momjxrLtGW/U+3BobwxdwB1HWvx8JOd8RHB+oFFL/LEcws4cNX8yze2NR/gsX4htHA1fW8gkUgkEolEIvkPcweD9CKSTl0S/wX/jg/RvstTjAjxEEfJ/HIgHm1xBglKIFztYd7evoe9e/fw7YYlvPHsg9QUkbC6Zjdmfr6Bd59pib0ujh1rD5JuKCAuXAn7PQhs4GIWtiCOk5fFv26taO1jo6QICrgUroTf7gQ0rIE+Pd4UsKtda1LDFMQrFJMeb0rFtWYN8d/rFFwKNwXv7gENqaHLIjlbHFhXx6u6EjAbyDi+i1NaMflo2lGE7pb63VvS0lvUr7tKVEyuSPAjyF9NhrmRPPz2dvbs3cuebzew5I1neVBppKi1ZreZfL7hXZ5paY8ubgdrD6abtrcYtIUU/T2/VCmRSCQSiUQiucu5c0G6MZeLZ8wPjTYRgbIKe2o19zPtJ0+JOE+OlRPu1cRB3il++Okw4ScPs3tzGGG7EiiI38mSFTs4fF4ErLZqk1DV69bCyZDF5VTlBxELuLh3Ext/TiI/9QwXC0FVuxV+9uKUgjaFSCVRXZtWIlFdzVOEySJ+PvMly7/8mrUfvsKEjyJRe5pSOfPlcr78ei0fvjKBj8KzSIm8SKEIoGu38sPe1hU/V5HNcI6tG3awa9MiZr37CwVW9Rk4/H6c0sz1q0X9tZX6xaQhQplHeDWjfnUbnMyN5NQPP3E4/CSHd28mLGwXCcXFxO9cwoodhzmfbsBWbWoldWs5URwTxsjuPen58vekyx98kUgkEolEIvnPc+eCdM1lziSLCNO2Hm1M0Ss4+TdD+QFGY0oUSTTgsWdD8FOls/ejabz08lTmfvw9ibaOGLKiObB2AVPHjmHqZ8dRt3iS6aNa46T2oGkbP1FCARGbwth31UhhQiTKVMAvqD7OVkotgoJEIpVE3yDqVbPCtv6jPPOwFxRFsX3ZJ6z4IYvGHRoT8OgzmJO3s+yTFfyQ1ZgO9Qwkmi8mqF41rGzq0GvsAAIcCwhft4C3Pt7KGacgnpr7FkOb2FNgqd+3dT1EVWJ+EE2CmEfYN2wtgnY7Gjz2LCF+KtL3fsS0l15m6tyP+T7RFkdVMVnRB1i7YCpjx0zls+NqWjw5nVGtncQkJZw4oTrvxrVxKmmTRCKRSCQSieQ/i9WBAwfu2Nrt+nVfcCbqHCrr65GmQa/DaKW6lmY0aCksKMJgZYOdgz02lmmCUV9EQWEx2DjgaKeiVAkUazQUY4u9vbLKbkCvF7MLlXWpPEo9pkSuV21EX1SIRmeNbal6REUUFWrQWdviYG9jnqUY9OjFX6XlVn7HXFNYhM5KBNgOtqXKLV+/UVxuKFu30YC2sIAigxU2dg7YX69cyFSAuZmO2KksF4j8xcV6VLYWeQSvv/665S+JRCKRSCQSyX+NkpjwjqCysUWtBK9WVtc+KrVNmTRrlR1OztVxruaArQhSr6Wr7anm7Ew1JRC3pJk/KhFkO+HkYIPKcqxWKwFx6TxKPWpTkH09zRq1vRPVytVjZa3G3qka1UTgbS5PfFTqG+S2Uokgvpozzk525cotX78I7svXLQJ2OydnqjtXw8FWTDhK5VXbV8NZpNurS9Un8tvalZJHfCQSiUQikUgk/13u6Eq6RCKRSCQSiUQi+fPc0ZV0iUQikUgkEolE8ueRQbpEIpFIJBKJRHKXIYN0iUQikUgkEonkLkMG6RKJRCKRSCQSyV2GDNL/H2AoLja9tVQikUgkEolE8v8DGaRXRnEGMYd38+2O79l/Io7cW3hlvyErgi1hGzmWLjIb0/lpYi+GLo9BeWfqX4OBjF/m8dSgefycfothuiGLiC1hbDyWzi006b9BUQxhIwcwbV+WJUEikUgkEonkn0UG6TegJ/3Icl5+oh/Pz1vNNzs3s/S1YTwxaRPxxZYslVAYs5112w+RVCQONPEcPa/Bs6E3tubTdxxDxq8sXhJL55kTecj9Fk1ZGMP2dds5ZBJSomDMjeFYghp/HwdLikQikUgkEsk/i/yd9HIURq1k3ItfYt3nDd4c9QBeahHEFcbx628FtOociPMtvmdIn7iB4UO/oeuqVTxdRxTyF2AsTCUuwxF/X2c52/oTFJx4i8Ezspn45ds8WN2SKJFIJBKJRPIPIoP00uji+WrcCFY6jidsfi9qqizpJeQeYf7kL/Ge8jZPN7QT+S+zfebrHOv6Nq93sefkgpdZ4TKR958LQPvrVPrPc2DuV7Np52S53oIxN4rtSxaz4edI0opdaNRlBNMm9MDftoi4Hz5hQdhuojKscGvej9fnDSfA3nKhiVyOzJ/Ml95TePvphtih4/L2mbx+rCtvv94Fd004H03diG+f5kRt2MSvF4uoFTyReRMfxku0J//4Al5e4cLE958jwE751uALFi7fzrFL+djXvpcnJr/CwEAHck9v4dMlX3Eg+irFTv7c128Ckwa3pka52UBB+Ee8+pU3j7c4z8ZNv3JR48MjY+cypXstlKmJ7upBPn/vU7b+noKVf0f6d4WDUR2ZO7sL9uEf8urX3gT7HGLtzkSavLqC/3XQcejz9/h06++kWPnT0XwBHefOpkv5bwv06Rz5YiHLtx/jUr49te99gsmvDCTQLp2DVZShu3qI1UKmLb+noq7Tnm6No9l0thcrPnsKf65WeW1pqm67kdyo7SxZvIGfI9ModmlElxHTmNDDH9v8E3z46td4B/twaO1OEpu8yorX6nJ48QLCdkeRYeVG836vM294APaGHE5v+ZQlXx0g+moxTv730W/CJAa3riEmZgWEfzSVjb59aB61gU2/XqSoVjAT503kYcXYwjeuHvyc9z7dyu8pVvh37E9XDhLVcS6zu7jLiZ1EIpFIJHcx8j5dCm3sLrZFV+ORoZ1vDNAFmoTDHIvT4eVq2cBScIFfItJxcnPAWnuZo4fPU+zlhg1akk9fpNg3iDrld1BoL7J+2iRWZz/I9FU72LaoD/pdi1kdkY8ubjNz3z9CvfFh7PhmJTP7B+FWfhFek8DhY3HovFwt22gKuPBLBOlObjgIa2qTj3P09CFWLTuJ7+A3eG98M5J3ruOXNGXPupbLRw9zvtgLNxtxZeQKJs3cjjF4OkvWLGVGqCf5ecUUnlvDlMmfk9Z2HAvXrGPRyDqcWvk2686V3yIj2nn8KKcPruWzk74M+t9HzHw4j12ffUlkoTitOceaqbPZpg9h+qdLmRMKO5btI8VRkVVL0u9HOSOuXZ/SljGzpzGkpQ0xa6Yye5uekOmfstR8AftSHHFTGleGAiJXTGLmdiPB05ewZukMQj3zySsu5FxVZWiiWfPqLLbquzFj8WJmdNXw/c5kHBsH4KHWVH1tGapuu/bieqZNWk32g9NZtWMbi/ro2bV4NcLMaJN+5+iZg6xdn0LbMbOZNiSQjK1zef9IPcaH7eCblTPpH+QmAn1FnilM/jyNtuMWsmbdIkbWOcXKt9dhMoU2meNHT3No1TJO+g7mjffG0yx5J+t+STNJqBF2nDp7G/qQ6Xy6dA6h7GDZvhQcFX815ZBIJBKJRHK38i+6VxvRZiaTmJho+iSlF4qUO4mBjMijJNs3pWPDckvfJgzkXIwky6059aqZ97wUXT5FnN6XVv4OGHMvEp7uRvMGLlgbc7kognfXZg2oXkbDBtIPLGVtXBBjx3XHT5dAxJFTpKlq08TLjuKsRNKLrVGrVFjbedGsfWvTdpvSGHIuEpkl6qlXDZMURZc5FafHt5U/QgryL0WQYqxJ6IxZDHswkPoN/KimVmFvI3IrcoWn49a8AS6ksX/5FjLbT2RK/zb4e/vTpu84RrTVsn/JepLvnczMYQ/S0MebJp1CaGafTkxKuSDdmE9sRAr4PsrMWcPoFNCQ1g80wjE/hWydkcxDYXydHMT4qYN5oFF9gnoOoJNop58iq5Al9lSquLY3M2c8zSP33UMTjhL2dTJB46cyWJRTP6gnAzp5YefXCqHiMhjS9rN8SybtJ06hfxt/vP3b0HfcCO4xHqmiDCMZB4VMKYpMT3Ffw/q07fM0wV62Qqba2GUeuuX6q2x7UToHlq4lLmgs47r7oUuI4MipNFS1m+BlZyQ39hSp+NJ75gyefuQ+7glwJjcxnWJrNSqVNXZezWjf2gvrtL0sWZ/MvZNnCls2xMe7CZ1CmmGfHoNiCmP+JSJSjNQMncEsYavA+g3wqybKsBczMGMmh8K+JjloPFMHP0Cj+kH0HNBJ1O9n8leJRCKRSCR3N/+eIF2XyLbpz/L00KEMHfo0L8w/SOYdjdKLyUrOBmcfXEWMcyOFJJxMxqZuc2rZKcd6MqIiyLQE7Zr4kyRa+9OytjipSSA8wZo6rXwps1OFPCJ3hVOgOc3iCaN4cfoHbI1vxJiFb9PPX41D08GMCa3GzqlPMGT6WsKzbvzFlsKEkyTb1KW5WQj0GVFEZJYE7RohYwKqloPoG+gozoqgPT6a7BoB1FEmFpp4TiZa499SBKQ5kfwUqaJVSAuql95nL9J3i/TWPYJwtaQbtTki6HbA3bnc1wumdqpoObgfTZXqxCSkMD0DbTUfXNT5nNtzGn3THtxj2SZikjXDIqsmkfBENS0H9SHAEjPmn9vDaX1Tetxj2YqhzyAqIkNMKuphmRddIyfyJyJVrQhpUd08WbFQdRl5RO85hT6wezmZXGlW35nC26i/yrYXRbIrvADN6cVMGPUi0z/YSnyjMSx8ux/+ag2J4YmohY36lDRcTK+aDh5DaLWdTH1iCNPXhqOYPidyt2hja3oEuVraKCaqOdnoHNxRTKERvpCgasmgvoGYrJ0fT3R2DQLqVFMUwZ7Tepr2uAdzU83+mlFqkimRSCQSieTuxRyp/BtQ12bA4p3s2buXvXv3sP3tzrjd0VhDhYOzPca8FDIq+s1EXTrR5/PxaFFbhFQCTQzfbj6Hqp4StIsAKOYsuV6tqSuiJX3GOSJzvWhVVwRLpdFlEp+qx2/I+6zbsI41Kz7hnWkjCGliefDTphZdJy1l42cvUu/USt7bdklMHUqjIz36PPkeLahtFoKYbzdzTlXPHLTrszgflYv3PYG4mgoUEwsREFrVboWvmC3oM2I4K+RqLYTUZSeRrnfB38Mc7Jegy00R6c74lmzpEYFhxsl9xNoG0qGeKRq9hj7rPFG5PtwbWMMcRBoyOLk3FvumD1DXLpekFA0udb0tExUN57/bSozaLKs+M4boXG/aBrpanNBAblIKGpe6eFtmNprz37E1Rk295rUoJyXZSenoXfwpK/5NytDnkZyipXqdEpmKuPD9NqG/urSoZXMb9Vfddl8xGUrV+zHk/XVsWLeGFZ+8w7QRITRxFi3VZxITLWzUtsRGZmxqdWXS0o189mI9Tq18j22XCshNEW109uW6KUQd+2KxDexAPUc9WeejyPW+h0BLQYUJ4SRa1aaVMLYhN4kUjQt1rzeG77bGoDb5qzlJIpFIJBLJ3UupMOG/jpqa93bEr/A3ln62h7h8A0ZNKhHfLmXh1li0ulyuKGk6AwYRhO36aB4bE6FWqzo4UkDciVQcGwXgqYaCuBOkOjYiUDkojbUDriJuz4iOJduySK7NSCS1QJSZdY4T53NEmGmFo7cfHva2VHd1LGcgHblX8jEYdRgMGuJ3fcQ8sxDUUeLngkucTHGgUaAnpi8D9BmcEwGhp5BR2cBTIleAkMvawRkHw1XOnL0iJgIiuD2/h837k9A7eeBqlcFZ5YFREaAXXNzBwk+O4/n4MO4vNysquHSSJG0GUacS0RiLSd6zhGWnPHn0qTZUt7LFQQSXOXEJ5OnNsr65MeGarAVx4aQ6NKSpZ8nXFlbYmi8gIU+PJn4XH725kQRq0crUuNJYiwmVA4arZzh7RUxjDLmc37OZ/UnFVZdhbYuTiFlzEi6Try8icfci3vwyDnwUmW6n/qrb7urgSjUyiI7NFppV0JKRmIows9JwwlMdaNjUYiORI+vcCc7niJNWjnj7eWBvWx1XRyGrhytWGWdND4xiLODijoV8ctyTx4fdLyaoBVw6mYJDo0DMKhQTxXPR5HqKtghjW9k6YEsOcQl56E3++iZm9Sv+qiXuu49ZsPq4acVeIpFIJBLJ3YcM0kth22gwc17qjPWP/2PYo13o3ONJZm67Su1m3tja+dOxvQ/xK4fT49FxbLF+hIdqehPQxB2VNo3I2GL82tTBQQRAaZGxFPu1ufGhUWtPOo7oj3/4XAY+NoABfULp/fwSTuQYKb5ykM8m9KVXv/48PmAmJ5u9wKRgH8puMLHDv2N7fOJXMrzHo4zbYs0jD9XEO6AJ7iKj9koUscW+tC7Zc1yYwKk0Jxo38zI9zFpaLmuPDgzt6UXEB0PoFhxC31e3k+XqjK3r/Yx4KoALHw6hV69HeWzkSrK6zuSd4YHmbxCuoSU18iJaz0ZkrxpBz5AQBr0TTeuX5jIsUETCVq60G9gFl6NvMaBbL8ZvtaZTey+8AgOErFquRF0SsgSV2utthWu7gXRxOcpbA7rRa/xWrDu1x8srkAClcWWwxqPDUHp6RfDBkG4Eh/Tl1e1ZuDrbVl2GItOTwdQ4Oo/+IaGM+cpAhw5eeAQoD43eTv1Vt93asyMj+vsTPncgjw0YQJ/Q3jy/5ATCzCYbXSr2I+haw4u5cvAzJvTtRb/+jzNg5kmavTCJYB81rveP4KmAC3w4pBe9Hn2MkSuz6DrzHYYHimu1V4gSPufbWnkWQaGQhFNpODVuhpcI2q1c2zGwiwtH3xpAt17j2WrdifZeXgQGCH/VJfPrxk18f/KKmPZJJBKJRCK5G5E/wVgRBg1ZGXng5EoNh9IBmo7ctCsUOYnAzkmFXluMla2NaaZj0GpFlG9rnvUYtCKMs8W2simQLo+0lAzT3mJvd6frgbhepCdnYXTxwdu5/M+6XEeXm8aVIie8PMS1ei3FVrbYmCvGLEZJxUZ0RTqs7cwy3iiXkaLMFNI0Dnj71MC21EK5oSCd5HQtDp7euNlX0BBjBj++NJiVTT4g7Pna5KXmoPbwoUbpQgQmWbXOop0OWAlZdSWyVqYjXS5pV7Q4e7vjYKVHq7PC1ty4GzEWkZmShsbBG58atuZtJwo3KcMsk9Cfovsy+jOdvHn9t9r2vDRSMnQ4uHvjLvzFTHkbmdGLvMlZRlx8vClregMF6cmkax3w9HajtCnK+JzAqCtCZ213vS0Wf9U6i/odrIS/6kr5ayFalQP25ecfEolEIpFI7gpkkC75YxSGM3/odK6O/5J3Ov3H3gD0X267RCKRSCSSv4Wyy3kSya1iUFOrfR96B1T0c5X/z/kvt10ikUgkEsnfglxJl0gkEolEIpFI7jLkSrpEIpFIJBKJRHKXIYN0iUQikUgkEonkLkMG6RJJeXS5JCdmUHTDRjADxcV/7w+L6/OSuZyhRe5Jk0gkEonkv4UM0iujOIOYw7v5dsf37D8RR67ekv4fxpj+ExN7DWV5TEWvZP2bMGaw55U+DF8Zw18ihTGPE4tG8vzHR6+9cMqEIYNf5j3FoHk/k35LcbqBrIgthG08Rvof9h0jWb+8yahp35FyS3UWERM2kgHT9pFlSfk7KYoJY+SAaez7JyqXSCQSieT/GTJIvwE96UeW8/IT/Xh+3mq+2bmZpa8N44lJm4gv+47+/xya+KOc13jS0LvkPfX/AJoEfr+gxaOBN3+FFJroL1jwgwuDx3TB69pviBvI+HUxS2I7M3PiQ7jfUq8pJGb7OrYfShKh8x/Fimr+TXBKPEJsviWpKoy5xBxLQO3vU+7FU38HRnJjjpGg9sfn769cIpFIJJL/d8ggvRyFUZ/zymsbyAuex/pNn7Pkk2V8sWkVr/Vqimvl7xf6DyAmL+fOkuvdmno3viX/b0OfcY6oXA9a3vA61zuAIY3dS7aQ/8goQv1LG9sKh8aDeef9kbR0LvvCospxot2MjWxZ0Jtaf+KFQeoaPjgVJXIp8xbeDVqYQHiSijrNa2FnSfr7KCQhPAlVnebU+vsrl0gkEonk/x3yJxhLo4vnq3EjWOk4nrD5vah5Q3Cl4+rBz3nv0638nmKFf8f+dOUgUR3nMruLPeEfvsrX3sH4HFrLzsQmvLriVaqvmlYu7X90UkWzfcliNvwcSVqxC426jGDahB742+Zz4oYy/kcH3SE+f+9Ttv6egpV/R/p3hYNRHZk7u8sNq7rG3KhKyi4i7odPWBC2m6gMK9ya9+P1ecMJsLdcaKHy63P5dWp/5jnM5avZ7UQIWoqCcD6auhHfPs2J2rCJXy8WUSt4IvMmPmxejTbkcHrLpyz56gDRV4tx8r+PfhMmMbh1DaxN136NX/8WRH3xFQcu6an32HReD83hq4Ur+OF0NjUeeJ43Z/TG3wZyf5vBoHetGDLQmZ+37COm0IeHx/yPKT18saFi/VWub7P4JWjPr+TZ5/fS5bOVDK+vVHaE+ZO/xHvK2zzdUESeustsn/k6x7q+zetdHDj10VQ2+vahedQGNv16kaJawUycN5GHlUbnH2fByytwmfg+zwXYoU8/whcLl7P92CXy7Wtz7xOTeWVgIA65p9ny6RK+OhDN1WIn/O/rx4RJg2ldw2xY49UdPD9wDUGfrGa0KKcMuqscWv0en275nVR1Hdp3a0z0prP0WvEZT4lJRuW2tFxfgj6dI18sZPn2Y1zKt6f2vU8w+ZWBBNqlc/BzUf7W30mx8qej2fHoOHc2XdwNXD20WvSFLfyeqqZO+240jt7E2V4r+Owpf9RCtsqvLeu0lenGLv1g5X5feIIPX/0a72AfDq3dSWKTV1nxanVWTSuX9r9OqKK3s2TxBn6OTKPYpRFdRkxjQg9/bPMrKON/HdAdqqyPu8tVDYlEIpH8bch7Tim0sbvYFl2NR4Z2riBAB825NUydvQ19yHQ+XTqHUHawbF8Kjm4OWGuT+P3oGQ6uXU9K2zHMnjaElnYpFaTFsn7aJFZnP8j0VTvYtqgP+l2LWR2RLwSooAybGNZMnc02fQjTP13KnFDYsWwfKY5uOJS3nvZipWXr4jYz9/0j1Bsfxo5vVjKzfxBu5b8ZqOJ6tMmcvliMb1CdG7ZSaJOPc/T0IVYtO4nv4Dd4b3wzkneu45c0ZSO1hnNrpjD58zTajlvImnWLGFnnFCvfXse5olLXLjmO39C5vPOsL+e/nsuEV7Zg6DaN+VM7kHdgI7sTlB3oWlIiY8nL/p3NJzwZOGchr3XK5ccVXxFVqJyuyAZV6LsMRVz84XuSavegszIbEGgSDnMsToeXqyWqLbjALxHpOJnsnczxo6c5tGoZJ30H88Z742mWvJN1v6SZsmovH+Xw+WK83ERZBZGsmDST7cZgpi9Zw9IZoXjm51FceI41UybzeVpbxi1cw7pFI6lzaiVvrztnKkNBX5hHkVGFrbr8Cr6G6DWvMmurnm4zFrN4Rlc03+8k2bExAR7CsFXZsgwFRK6YxMztRoKnL2HN0hmEeuaTV1wo7DaV2dv0hEz/lKVmx2NfiiNuwvE00Wt4ddZW9N1msHjxDLpqvmdnsiONAzxQm2xe+bVlqEo3Vfi9Nul3jp45yNr1KbQdM5tpQ1pil1JBWux6pk1aTfaD01m1YxuL+ujZtXg15u52Y36bmCr6uEVkiUQikUj+Dv5F9x0j2sxkEhMTTZ+k9MI7/IsXBjIij5Js35SODSt4k6Qxk0NhX5McNJ6pgx+gUf0geg7ohJedH638HTDmxnIqFXx7z2TG049w3z0B1Cgon9YYw29LWRsXxNhx3fHTJRBx5BRpqto08bKroIwmcDSMr5ODGD91MA80qk9QzwF0Enn9WvmXC5YNpB+ovOzirETSi61Rq1RY23nRrH1rvMoE6VVfb8y9SES6K80aVC/nNEbyL0WQYqxJ6IxZDHswkPoN/KimVmFvY4UhbS9L1idz7+SZ4lxDfLyb0CmkGfbpMaQUlVzrQ8/XZvF0xwAaNPTB3mik8eg5jOvWggYN/KkuZLZXi1qNecQqCvLrxczXh9MpsBFtOjTGMS+JLJ04fYP+qtZ3GYovc+i3K3h3vJeaJr0YyLkYSZZbc+pVMwfIRZdPEaf3Nds7/xIRKUZqhs5g1rAHCazfAL9qalT2SoBvJPdiOOni2gYukLZ/OVsy2zNxSn/a+Hvj36Yv40a0Rbt/CeuT72XyzGE8KNrt3aQTIc3sSY9JMdWnUJweTybO+LiaJw4lGDMOEvZ1CkHjp/LUfQ2p37YPTwd7YevXitoOVduyNIa0/Szfkkn7iVPo38Yfb/829B03gnuMR0T5yabyBz/QiPpBPRnQyQs7Ub6/XQYHRV9IUfrCU/fRsH5b+jwdjJet6Au1hW4yD1V+bRmnNVSim3swHqnK74V+Y0+Rii+9Z87g6Ufu456AGhSUT2ts4Lela4kLGsu47n7oEiI4cioNVe0mot9WUIapu1XexyUSiUQi+Tv59wTpukS2TX+Wp4cOZejQp3lh/kEy72iUXkxWcjY4+1AuHjKTf449p/U07XGPZYuJnoyoCDIsQZwmMZxEdUsG9Qm4FjzfmJZH5K5wCjSnWTxhFC9O/4Ct8Y0Ys/Bt+vmrK8ifz7k9p9E37cE9li0C+owoIjLcaF6vGmXXVqsu26HpYMaEVmPn1CcYMn0t4Vnlfy7kJrIlhJNgXYdWvuX2x6Ah4WQCqpaD6BuobFYXgXd8NNk1Aqgj9JITuZtIVWt6BLla5BWTrZxsdA7uOKvKX6sn62IshTVDGfSAeWuBJjGSqw71aeguImdNIhGX1bQY1I+mpn3xBgrTM9A6eeNiOn17+i6DCLpPpjnQuEVNywOphUK2ZGzqluyxNts7s8TeCSdJUIm6+gZianV+PNHZNQioU00caYg/mYi1f0tq2+UQ+VMkqlYhtKhe2mIifbdIb92DIFdLulFLTrYOB3dn83HJcwBugdR1Kmft6D2c0gfS/R7LFgx9BlERGbg2q4+z1a23OyfyJ2GfVoS0qF7Gn/LP7eG0vik9ypXv1rwe1Qqi2XNKT2D3cn3BtRn1na2qvrZMMyrTzc38XkNieCJq4Td9Aq71thvT8iLZFV6A5vRiJox6kekfbCW+0RgWvt0Pf3UF+W/SxyUSiUQi+Tsx3wH/DahrM2DxTvbs3cvevXvY/nZn3O7ofVOFg7M9xrwUMir4bT9DbhIpGhfqeluCVM15vtsag7qeEsTpyYyJJte7LYGuJSqtIE2XSXyqHr8h77NuwzrWrPiEd6aNIKSJszBEBfkNuSSlaHCp6425Vg3nv9tKjLoezcs/nVdl2QKbWnSdtJSNn71IvVMreW/bJTEtKcVNZMs4F0muVyvqKjFoafRZnI/KxfueQMxiKw8QJmJVuxW+9jpyU9LRO/tSsmNE+QnFk/tisQ3sQD278tcWEHcyFYeANviZmldE0mkhZ60g0wqsPvMcUTnetAt0NbfJIMraG4t9sweo63C7+i6LLusy6Xp3Gnpb9KpLJ/p8Ph4tapsDfk0M324+h8pi76zzUaKue67VVSgmMYlWtc2TGBGUxpzNxat1XRx12SSl63Hx9yj7MKculxSR7uzreu1XaowZJ9kXa0tgh3qWhExOHUjEsUV76pSZG+nJS05BW70OJe5YdOF7tp1TUbdFLexuud06spOEfVz88SgjnIHcpBQ0LnWvla85/x1bY9TUa14LdV4yKdrq1LleOd9vE7qp20Lopupry+qgEt3czO/1mcREC79pW+I3ggrSdJnxpOr9GPL+OjasW8OKT95h2ogQmjiLDBXkr7qPm5MkEolEIvm7KHvP/k+jpua9HfEr/I2ln+0hLt+AUZNKxLdLWbg1lmJbBxFM5RCXkIdeE8+uj95kYwLUalUHRyW4DBfBZcOmeF5bha8gzdoBVxHkZkTHXvsNbm1GIqkFykEF+a1scRARXE5cAnl6DfG7PuJNc6XUKf8LK1WUbcg6x4nzOSL0ssLR2w8Pe1uquzqWNf7NZDuRimOjQDzLLUBTcImTKQ40CvTEJLYIUM+J4MdT6MVJTHycPFyxyjhremAUYwEXdyzkk+OePD7sftwKy12rTSHykpaaJVt5lO0tp82rwy5C2IK4cJKKs7lwNpkio5ak3YtZesqT0KfaUv229V0WfVE+WisH3JwtDyOIIPqK4gM6oT+TveexMfG6vS+dTMFB0Ye50WISIyYInsIuyk6pgjhOpDrSKMATtZDB2cHA1TNnuSJUYMg9z57N+0nSO+HhakXGWeWBUUU1F9mx8BOOez7OsPvdlEIxXDnMt1EOdAhtRtm5kTW2TiKQzEngcr6eosTdLHrzS+LwoZXiGLfcbmsxMXXAcPUMZ83CcX7PZvYnFWNrdjwS8vRo4nfx0ZsbSaCWqXxrWycRPOeQcDlf6C2R3Yve5Ms48DHpxqrKa8tQmW6Kb+L3Qr/hqQ40bGrxG4UK0qwdXIXeMoiOzRa+r6AlIzEVs0vfmN+qyj4uro77jo8XrOb4Dd9CSSQSiURy55FBeilsGw1mzkudsf7xfwx7tAudezzJzG1Xqd3MGzvXdgzs4sLRtwbQrdd4tlp3or2XF4EB7qi0V4i6VIxfUKl94hWlWXvScUR//MPnMvCxAQzoE0rv55dwIsdYcX4rV9oN7ILL0bcY0K0X47da06m9F16BAbiXf7C1irKLrxzkswl96dWvP48PmMnJZi8wKdhHhNClqFK2NCJjhWxtKnho9EoUscW+tC7Zs1uYwKk0Jxo38xLBjxWu94/gqYALfDikF70efYyRK7PoOvMdhgc63HCtMT+O0xmuNG/kYnZMTSKnklXUbeUrgkItV6ISsA1oSeayYfQI6cbgd88RNF7YKlAErLer73JY29ihPJtpLDll50/H9j7ErxxOj0fHscX6ER6q6U1AE4u9hT58W5fUVUjCqTScGjfDS0R82rRI0S4/2ig/E2ntQYehPfGK+IAh3YIJ6fsq27NccbZ15f4RTxFw4UOG9OrFo4+NZGVWV2a+MxyhGkGxCE43EuUZSr+W5Z+REHpt9yTBNY4yr38IoWO+wtChA14eAeaHRm+53dZ4dBhKT68IPhjSjeCQvry6PQtXZ1tR/kC6uBzlrQHd6DV+K9ad2uPlFUiAcDwr0ReeDK7B0Xn9CQkdw1eGDnTw8iDA9NCoIlvl15ahCt1U5feK31wS+g0qtU+8ojRrz46M6O9P+NyBPDZgAH1Ce/P8khOYu9uN+ZV2VdrH0ZH860Y2fX+SK7fwa5gSiUQikfxZ5E8wVoRBQ1ZGHji5UsOhdGChIzftClpnb9wdrNBrdVjZ2pgCSoNWK6J82zKznorSTOjySEvJMO3L9nZX1pvNVJZfl5vGFa2zyOuAlV6LzsoWmxsKtVBJ2ehFenIWRhcfvJ3LL4eX4jZlE2cwnyo5Y0RXpMPazqwXMwYK0pNJ1zrg6e2G/bUTN15bXKRHbaeEemb0IoNVSb2i7VrRdlujkDE1D1sPb2rYXt/zdLv6LkPmLsYNXE3bJWHmn180YbZ3kZMXHk4qUX1xpfY26orQWdtZ7FK+XeJ8USYpaRocvH3KyIyhgPTkdLQOnni72V8vL/cQbw75H3kvrmZe10p++k+XS9oVLU5e7jip9GiLrbAt7Ri30m4FYxGZKWloHLzxqWF7Tfcl5Tt7u+NgJcrXlS7f0heEbtzL6cZEldeWpTLdVO73N+q34jQzurw0UjKUvf6i3wpZzVSWv/I+LoxOoVaFg32lmpRIJBKJ5I4hg3SJREEbw/LhE4kdu44325c8uPlPUcjZpaOYHN6LTxc+QZ1rezokEolEIpH8V7hx2Uki+S9iW5ceI4fygJsV//isVZdLplsvps7sIwN0iUQikUj+o8iVdIlEIpFIJBKJ5C5DrqRLJBKJRCKRSCR3GTJIl0gkEolEIpFI7jJkkC6RSCQSiUQikdxlyCBdIpFIJBKJRCK5y5BBenn0WUT9dpCoLL0lwYwhL5bDv0SQfkdfZGIk/aeJ9Bq6nBitJek/TFFMGCMHTGNfliXhVjBkEbEljI3H0ilrsb8GQ1YEW8I2cixdqc1Ixp5X6DN8ZYX2K5v3bkH6nEQikUgk/wZkkF4OXdL3vDN7ET+nlQ6sjGQfXsTs93YQd0cDGw3xR8+j8WyIt60l6T+LkdyYYySo/fG5/hLIm1MYw/Z12zmUVGRJ+GspjNnOuu2HMFenIeH3C2g9GlRov7J57xbuTp8ruriNT5fvIVm+zVMikUgkEhMySC9HYdxJUm3r0bxm6QhGQ2J4PAbf1vjdTgB5M/TpnDubi3frejhakv67FJIQnoSqTnNq2VmSbgWndszYuIUFvWtV/kbNO4hTuxls3LKA3rVEbfoMzkXl4tGyDhW5RZm8dwt3pc9pSdy3ka1HsuWIJJFIJBKJBXlLLEMRl0/HUezTCv/SEYw+i5iobNya1cfFCgrCP2L8jE3sXf8mLwzoSUjv55i/L63C7Ra6qwdZMXUovYKD6T1iDqu/nMPo2btJN4iTBXGcSHWkUaAHanI5Mv95Xl59XkhhupLL26cxclZJ3nA+Gj+TzT9/xbzn+9OjWx/GfHqUtLjdfDxxEL1CQhk6ezvxxcq1BYR/NJ4Zm/ay/s0XGNAzhN7PzWfftW8HDOSc3sTb4wYSGtyFkMeHM3PNSbKUesqj1Pvia2zYvZ43XxhAz5BePPvW9ySZVjxvIrOyOh61jfkThHzBXenefzTzd8aLkMyc9+qhlUx9uhfBoi3PzVnNj6fy8GpVxxQ8GnOj2DZ/AoN6BdO1e39Gz99JfAXfYuQfX8CoscuJUgQw6WgGm/aWyNqb5+bvo6TZRXE/8P74JwkNCeHRJycSFqUxpevTj7B61ij6Cz316DuC2evPkm/M58SH43jty20smiDK6jeD/Vm5HF8wirHLo8ztFfYLT3PE3/YgH4x9wqybeTu5bLJBfpm8+Sc+ZNxrX7Jt0QRhj37M2J8lJoQVy3Orba+sPYac02x6exwDQ4PpEvI4w2eu4WSJccv43M3883Z8TmDMJWrbfCYMEjbt2p3+o+ez0yJ4pX1Gd5ntr41g8rrLFF/4nJcGP8vcA5kYqyirLFX42E38oTS5R+bz/MurOW92ZHSXtzNt5Cx2mxVxk/4kfPngCqYOFbIG92aE8OUv54xm9u500dPKISZJR1bPYlR/oYMefRkxez1n842KITi4YipDhc2De49gzuovmTN6tqX+in3xxjRjFb5TURnGqu0vkUgkkn8UGaSXxphH7Ol0qjVpjFvpxc/COE4mqanTohZ24vaffPwopw+tYtlJXwa/8R7jmyWzc90vpJW/sWnOsWbqbLbpQ5j+6VLmhMKOZftIcXTDQWhem3yai8W+BNVxEHkTOHwsDp2XK+Y1/AIuKHvgnUryHufo6UOsWnIcv6FzeedZX85/PZcJr2zB0G0a86d2IO/ARnYniDuyNpnjR09zaNUyTvoO5o33xtMseSfrfkkzlaw5t4Ypkz8nre04Fq5Zx6KRdTi18m3WnbNEKKUw13uQtZ+dxHfQ//ho5sPk7fqMLyMLby7zxfVMm7Sa7Aens2qHCA766Nm1eDUR+eLS6DW8Omsr+m4zWLx4Bl0137Mz2ZHGASJ41F5k/bRJrM5+kOmrdojAtg/6XYtZrVxYBi2Xjx7mfLEXbjaldLRMyDr4Dd4b34zknev4RTGMLo7Nc9/nSL3xhO34hpUz+xPkJsLUgkhWTJrJdmMw05esYemMUDzz8yjWJvH70TMcXLuelLZjmD1tCC3tkjl6+DzFXm4oLwLVpkQSm5fN75tP4DlwDgtf60Tujyv4KkroRnu5VF4tSb8f5czBtaxPacuY2dMYEpjB1orkudW2V9YexeemTObztLaMW7iGdYtGUufUSt5ed850WVmfu5l/3obPiTZeXD+NSauzeXD6KnZsW0Qf/S4Wr44Q4WEVfQYPOgx9kmaOagKem8nrs2cw6h5HYistqyxV+ViV/lAGDQmHjxGn88LV8gVawYVfiEh3ws2siJv2p6mzt6EPmc6nS+cQyg6W7UvB0c2h3ABbQOSKSczcbiR4+hLWLJ1BqGc+ecWFnFszldnb9IRM/5SlZkOwL8XRUn9FvphSQVps5b5TURk2MVXaXyKRSCT/LP+iodiINjOZxMRE0ycpvVCk3GEK44m4DH6tapfZvqAEYxeLvGlVx1GIkc+liBSMNUOZMWsYDwbWp4FfNdQqe2ysLBeYMJJ5KIyvk4MYP3UwDzSqT1DPAXTyshPl+4vyjeReFAGtazMaVLfGkHORyCw3mterhqmYosucitPja8mbfymCFKMPPV+bxdMdA2jQ0Ad7o5HGo+cwrlsLGjTwp7pKhb3aWoh4iYgUIzVDZzBr2IME1m+AXzU1KnsRWhrS2LtkPcn3TmamONfQx5smnUJoZp9OTEr5IF3UGyvqxZdHZ85iWKcAGrZ+gEaO+aRk66qW2ZDOgaVriQsay7jufugSIjhyKg1V7SZ42WRwMOxrUoLGM/Wp+2hYvy19ng7Gy9aPVrVtST+wlLVxQYwd1x0/XQIRR06RpqpNE6G7MhhzuRiejlvzBrhYl+ioJqEzhKwPBlK/gR/V1EInimGKs0hML8ZaHKus7fBq1p7WXtak7V/Olsz2TJzSnzb+3vi36cu4Ee1wyYvlVCr49p7JjKcf4b57AqhRcJHwdNHeBi6i4xjJiz1FKn70mvk6wzsF0qhNBxo75pGUpROilcor5Iw1F8bMGU/zyH33EOCcW6E8t9z2ytqzdwnrk+9l8kzhm8JHvJt0IqSZPekxKeKi0j5ndVP/vB2fM6QfYOnaOILGjqO7n46EiCOcSlNRu4kXdlX1GZUdNVyKSNP4cO99LQkMqI9HwS+Vl2VuvZmqfMzuJv5QGkMOFyOzhB/Vo5rZkbl8Kg69byv8xUBQZX8yZnJI+HKy4suDRd+oH0TPAZ1E/cKXlYtLYUjbz/ItmbSfOIX+bfzx9m9D33EjuMd4hLCvkwkaP5XBDzSiflBPBnQSbfWz1J9bkS+WT2uM4bfKfefGMprA0arsL5FIJJJ/mn9PkK5LZNv0Z3l66FCGDn2aF+YfJPMOR+n6zPOcy3OnWR1L0GlCCWzCuVKtCYEeykplAicTVLQc1JdA076MfOKjs6kRUMdygy8hn3N7TqNv2oN73M1q1mdEEZFREtRqSAhPwLpOK3ztxfwg4STJNnVpbtmQbcqbWSrvyQRULQfR11SpnqyLsRSKoGfQA+4mI2oSI7nqUJ+G7moh4kkSVC0Z1DfQvHUkP57o7BoEiHaRE8nuSBWtewThapHXqM0hW+eAu3P5vdNmGVUtB9OvqVKSCDQK08nQVsPHRV21zHmR7AovQHN6MRNGvcj0D7YS32gMC9/uh39RNHtO6Qnsfg9m1ejJiIogQwSP9Z0LiNwVToHmNIsnjOLF6R+wNb4RYxa+TT9/ZYNGKTTxnEy0xr9lbRG8ldeRCNLio8muEUAdxTAOTRk8JpRqO6fyxJDprA3PUjb9EPlTJKpWIbQQQWtpNInhJKqFDvsEXAtYNPEnSbT2p2Vtpb0aEsWMTt1iUDndOOEtdFMmryaR8ES18Jk+BJQUVqE8ebfe9sras1u0p3UPgq4blxwxoXJwdxYHpX3uFvzzNnwuL3IX4QUaTi+ewKgXp/PB1ngajVnI2/38Ud+kzxTECT+yb0BTL+X7Caouy5TDQlU+pr6JP5SmUMiXbEPd5so3ZQJ9BlERmdeC9ir7U/459pzW07RHOV92a069cvXkRP5EpKoVIS2qlxpflCL2cFrflB73mPVqrj/jev0V+eINaVX7zo35b2Z/iUQikfzTmEfnfwPq2gxYvJM9e/eyd+8etr/dGbc7fCfRZiSSbXTEvXqpUMBwhaO7YrBt0YkG4g6tzzpPVK439wS6mpUnbvDhiVbUbuWLiLWvY8glKUWDS11vS7qG899tJUZdzxzUKg8dRubi1aou1dCRHn2efI8W1DbdQTXEfLuZc6qSvFmcj8rF+55AXE2VFhB3MhWHgDb4maKKIpJOX6K4VhD+DiKYOh9Frvc9BJozCxHFDdqqNq3EbECXm0K63hnfku/1RfCScXIfsbaBdKinhCClsNTrc28gNUy6Noi8e4m1b8oDdW2qlFmXGU+q3o8h769jw7o1rPjkHaaNCKGJszX6vGRStNWp423RWNEFvt92DlXdFtRSZRKfqsdvyPus27CONSs+4Z1pIwhp4nyDs+ozYjib60XruibDlNOR8iBqIla1zZMgsKFW10ks3fgZL9Y7xcr3tnGpIJukdD0u/h5lV2hFoJUZEy102PaaDpW0jJiz5Hq1RqlOzOg4F5WDd7uS+kp000zoxrZMXn1mDNHCZ9qW+IyJiuS59bZXfH0uKaI9zr4l24+EdTNOsi/WlsAO9YQgpXzupv55Oz6nIzM+Fb3fEN5ft4F1a1bwyTvTGBHSBGHum/QZLamRFymqGYTyRZWyv7uqskpTlY/d3B+uo0uP5ny+By3Mjowm5ls2n1NRzxS0V92fDLlJpGhcqFviy5rzfLc1BnW98g9A68hOSkfv4o9HmXQDuUkpaFzqcr2I79gao75Wf0W+eEOarirfqSD/zewvkUgkkn+cklFfIrD1qIsn8fz4wxmUn0k3FFzmYNhcFp2uw5PD2lFd5Cm4dJIUh0YEeppX/fQZ50QA5kmrOk6m42tY2eIgIqWcuATy9Brid33EmxsToFYrczBy7QE+T9TiBp57JR+DUYfBYM47b2NiqbyXOJniYMprqlWbQuQlLTVLvpY27aXPwFV5sNW6gEsnU3BoFIhZRBFcnhM3aE9RlhBR5eSBq1UGZ6OvUiwC9IKLO1j4yXE8Hx/G/eVnPUq9SVoyok6RqDFSnLyHJctO4fnoU7SpXrXM1g6uYvKRQXRstghDFEQ5iakUiANrWycRGOSQcDkffVEiuxe9yZdx4KM8NGrtgGs1yIiOJduydViZPKUqF5ajIO4EqY6NCPAUk6ryOlIC0uhcPEWZToYszp04T44owsrRGz8Pe2yru+Jo44Czg4GrZ85ypViJW86zZ/N+kopFQBouAtKGTS06VBBpJ1JxbBSAUp3podGkYrIvnCW5yIg2aTeLlwrdhD5F2+pl8xbEhZPq0JCmJYVVIc8ttb2y64VePVytyDgbzVXRHmPBRXYs/ITjno8z7H43k8zXfO6m/nk7PmeNg1lwYq8LTmJqgcn2VfeZItIuZGDt7IK9lQ6tvuqySlOVj1XpD8pxKXS5V8g3GNEZDGjid/HRvI0kUsu8vU3Yvar+ZGXrICZEOcQl5KHXxLProzcxq9H8APR1RLucHTBcPcNZs7Nxfs9m9gsfsjUbgoQ8vbn+NzeSUKr+Cn2xfFqV/aaC/DezvzaO7z5ewOrjyjc0EolEIvknkEF6KVQ+IUx47h6y10ygT9dH6BI6hDcOuDH03bd4qr6yNqnlSlQsxb6tTXtFFQoTTpHm1Jhmlq/qr2HlSruBXXA5+hYDuvVi/FZrOrX3wiswAHeVKCktkthiP9ooD/Bhh3/H9vjEr2R4j0cZt8WaRx6qiXdAE3PeK1Eiry+tLZUa8+M4neFK80bK3miBJpFTySrqKiuT2itExRbj27pkX2khCafScGrcDEVEK9f7GfFUABc+HEKvXo/y2MiVZHWdyTvDAy35r6NNjeSi1pNG2asY0TOEkEHvEN36JeYOCxRBdtUyW3t2ZER/f8LnDuSxAQPoE9qb55ecIMeoyNCOJ4NrcHRef0JCx/CVoQMdvDwIUB4atfak44j++IfPZeBjAxjQJ5Tezy/hhHJhGbSkRQpb+LVBUWF5HSmrtafSnGjczAub4isc/GwCfXv1o//jA5h5shkvTArGx0Z5aLEnXhEfMKRbMCF9X2V7livOBqHDS8X4BZXam6tNI1Lo1a+N+ecWlfoSbANombmMYT1C6Db4Xc4Fjed/im7K5FV85pKQU1lxNhdFpfLcYtsru17tyv0jniLgwocM6dWLRx8bycqsrsx8ZziBio5K+9zN/PN2fE6keHYcQX//cOYOfIwBA/oQ2vt5lpzIEdPAm/UZe+GrDTD8Pod+PUewPFpbRVllqcrHqvQHc8o17Pw70t4nnpXDe/DouC1YP/IQNb0DaGJWxE36UzsGdnHh6FsD6NZrPFutO9Hey4vAAPdyPwlqjUeHofT0iuCDId0IDunLq9uzcHW2xbXdQLq4HOWtAd3oNX4r1p3a4+UVSEBJ/Tf4YgVpVfWbivLfxP665F/ZuOl7Tl6RP1wvkUgk/xRWBw4cKH/vk+hySUvJRO/khberEoKUwqAVYYcttiWJRh1FOmvsbCqe7+hy07iidcbb3QErvRadlS3mrAa0WrC9VpAlb5ETXh5OqETe4krzGiku0qO2U1/bO6oXGaxsbU2yGsyZr8lt1BWhs7azlGXGUJBOcroWB09v3OxLnbiGkYwfX2LwyiZ8EPY8tfNSyVF74FPDtsx+1cplNqPLSyMlQ9kT7Y27U+mwRUdu2hW0QsdKul5bLOS3ua5rXZ6wQQY6B3ehO1G2JbkMZWxxo450RTqs7UrK1JOXlkyW0QUfb+cye5uNRZmkpGlw8Pahhq25deV1qFA2TS/qsxKHRlFuKnm2HniX0k2ZvOV9xkTl8txS26u63lBAenI6WgdPvN1K+28lPndL/lm1z5nRCZlSyFCeb/B255q5b9pnDBSmC/9SueN1TYeVlFUBFfvYzfyhHEqfv1KEk5gsOqmEbYuFbS3y3bw/WXzZWdTvYCX0oivry6UxFpGZkobGwbtsXzLVr8VZtNXBStSvq7x+hYrSTFTiO5Xlr9L+hVpUDvZ/y/sHJBKJRHIjMkiXVEIh4fOHMv3qeL58p5Npq49EIpFIJBKJ5O/hhoUYicSMAXWt9vTpHXDDHl6JRCKRSCQSyV+LXEmXSCQSiUQikUjuMuRKukQikUgkEolEcpchg3SJRCKRSCQSieQuQwbpEolEIpFIJBLJXYYM0iUSiUQikUgkkrsMGaSXR59F1G8HiVJeOVoKQ14sh3+JIP2OvtvDSPpPE+k1dDkxWkvSf5iimDBGDpjGvixLwq1gyCJiSxgbj6VT1mJ/DYasCLaEbeRYulKbkYw9r9Bn+MoK7Vc2792C9DmJRCKRSP4NyCC9HLqk73ln9iJ+TisdWBnJPryI2e/tIO6OBjYa4o+eR+PZEG/lhab/aYzkxhwjQe2Pz7XXIt4ChTFsX7edQ0lFloS/lsKY7azbfghzdRoSfr+A1qNBhfYrm/duQfqcRCKRSCT/BmSQXo7CuJOk2tajec3SEYyGxPB4DL6t8budAPJm6NM5dzYX79b1cLQk/XcpJCE8CVWd5tSysyTdCk7tmLFxCwt61/pb3ozo1G4GG7csoHctUZs+g3NRuXi0VF7/fyNl8t4tSJ+TSCQSieRfgQzSy1DE5dNxFPu0wr90BKPPIiYqG7dm9XGxgoLwjxg/YxN717/JCwN6EtL7OebvS6twu4Xu6kFWTB1Kr+Bgeo+Yw+ov5zB69m7SDeJkQRwnUh1pFOiBmlyOzH+el1efF1KYruTy9mmMnFWSN5yPxs9k889fMe/5/vTo1ocxnx4lLW43H08cRK+QUIbO3k58sXJtAeEfjWfGpr2sf/MFBvQMofdz89l37dsBAzmnN/H2uIGEBnch5PHhzFxzkiylnvIo9b74Ght2r+fNFwbQM6QXz771PUmmbT83kVlZHY/axvwJQr7grnTvP5r5O+Mxfxmh4+qhlUx9uhfBoi3PzVnNj6fy8GpVxxQ8GnOj2DZ/AoN6BdO1e39Gz99JfAXfYuQfX8CoscuJUgQw6WgGm/aWyNqb5+bvo6TZRXE/8P74JwkNCeHRJycSFqUxpevTj7B61ij6Cz316DuC2evPkm/M58SH43jty20smiDK6jeD/Vm5HF8wirHLo8ztFfYLT3PE3/YgH4x9wqybeTu5bLJBfpm8+Sc+ZNxrX7Jt0QRhj37M2J8lJoQVy3Orba+sPYac02x6exwDQ4PpEvI4w2eu4WSJccv43E3ylqFqW9+sT1TZD0rQp/L9jOd4bWeK5TojOYcX8PzoTzlVqBzmErVtPhMGCZ/p2p3+o+ez06SYPGGrFxj01JM8+aTyGcToTyJELyhHpdffXP7r3Eo/rdwHhSI4uGIqQ4Vtg3uPYM7qL5kzeja7yyjCTMV+eRNd5p/gw3Gv8eW2RUwQ7eg3Yz9ZuRWkGavomxWVYRT99eAKpg4VugvuzQjRX7+cM5rZu9PFaCKRSCSSvwIZpJfGmEfs6XSqNWmMW+nFz8I4TiapqdOiFnbiNpZ8/CinD61i2UlfBr/xHuObJbNz3S+klb9baf6vvTMBj6o6G/CbhSSTEEK2SSQhYSdhD4sLIK0FghBBgaTI5o9GXBChBa2AiYhFClVRtAooiwJFEJWlVCwtiFULEoQsGLKRkIVkEshC1slklv/cmQlkkpkJa8V63+fhecidc8/5zrec850758zNYOuipezVRbLkvfUsi4L97x9B5e6DQmheU3Sa7IYgIkIVomw+35/IRav0xvQMv5az0h54j8ayJ0k4fYwP150keOZyVj0WRNany5n/h93oxyzmtUXDqP5mF4fyxTSrKeJkwmmOffg+iUHTeeX1efQuOsD2b0uMNasztvL8cx9RMmgua7Zu553ZoaRsWsn2DFPa0RRTu0fZ9kEiQdP+yNvxv6b64Ad8nCqyptZkzt7B4oVbuHTvEj7cL5LdiToOrt1Cco24NX0rL7y0B92YONaujWOU+ksOFLnTI0wkj5psdixeyJZL97Lkw/0isZ2I7uBatkg3WqDhfML3ZDUo8WnTREfvC1mnv8Lr83pTdGA730qG0eby+fLVHO88j837/8am+GgifESaWpvKxoXx7DOMZsm6rayPi8K/ppoGTSE/JPzI0W07UA2aw9LFM+jnWkTC91k0KH0QzaFRpZJTfYkfPj+F/5RlrHlxBFX/3MgnaUI3mvNNymoo/CGBH49uY4dqEHOWLmZGeBl7rMlztX231R/J555/jo9KBjF3zVa2vzOb0JRNrNyeYbzN0ufsl7XArq1biYlW4uAyTgo8hN5TE4tMCbChgh92H6ZIOYBQhYbsHYtZuOUS9y75kP0igZyoO8jaLcliOeROt0m/48UX43h+Rm+R3OroMjik2bcb9u6/lpi+yji15oOoydi6iKV7dUQueY/1JkVwROWOj4UiBLb8sq6VMaXwBxJ+FPG6Q8WgOUtZPKMfrior13Jsx6a1OtpkbmXR0r3oIpfw3vplRLGf94+ocPdRyJOIjIyMzC3iZzS+GtCUF1FQUGD8V1haJ67cZOrySD4Pwf07WkzwUjKWXR9A/1B3IUYN55JVGO6IIu6lWdwb3oWuwW1xdnKjjYP5BiMGyo9t5tOiCOYtms493bsQMS6GEUpXUb+UQBioyhaTu3dvurZzRF+ZTWqFD306t8VYTf15UnJ1BJnL1pxLRmUIZNyLL/HI8DC6dgvEzWCgx9PLmDumL127htDOyQk3Z0ch4jmSVQbuiIrjpVn3Et6lK8FtnXFyE6mlvoSv1u2g6M7niBefdQsMoOeISHq7lZKpap6ki3ZzRLsE8UD8S8waEUa3AffQ3b0G1SWtfZn1pXyzfhu5Ec8w9/5gtPnJHE8pwaljT5Rtyji6+VNUEfNYNPUuunUZxMRHRqN0CaZ/RxdKv1nPttwInpl7P8HafJKPp1Di1JGeQncWGKrITirFp09XvBwbdXQHUXFC1nvD6dI1mLbOQieSYRoqKChtwFH87eToirL3UAYoHSn5egO7y4ey4PloBoYEEDJwEnNjh+BVnUNKMQRNiCfukfu4a3AY7WuzSSoV/e3qJQLHQHVOCsUEMz7+ZR4dEU73gcPo4V5NYYVWiNakrJAzx1QZ8XGPcN9dgwnzrLIqz1X33VZ/vlrHjqI7eS5e+KbwkYCeI4js7UZppkrc1NTnaKWsJXZtbTcmWouDprgR0L09NXnnqRY5rU71bz5LdOfXkwfQtvQb1m/LJeKZudwfrCU/+TgpJU507KkUC2dHPEPCCLujjINbv0c5azlz72pvktOM3t79Vx3Trejhcpxa90FD+TE2f1pExLxFTL+nO10ixhEzQrQf3J8QC0XobfjlYAzHWxlTjD4ZxIT4OB657y4Gh7Wntvm1Hnr+Yys2Xa3U0RMSRLwWSfE6XcR/lwjGxYwQZUW8WgouIyMjI3MT+fkk6doC9i55jEdmzmTmzEd46rWjlN/kLF1XnkVGtS+9Q80TsBEpsUniQtuehPtJTyrzScx3ot+0SYQb92XUkJd+ifZhobS1mNBryDh8Gl2vsQz2NalZV5ZGclnjBK8mPykfx9D+BLmJ9UF+IkVtOtHHvCHbWLa8SdnEfJz6TWOSsVEdFdk51ImkYto9vkYjqgtSuajoQjdfZyFiIvlO/Zg2Kdy0daQmj/RL7QkT/aIylUOpTgwYG4G3WV6DppJLWgW+ns33TptkdOo3ncm9pJpE+lBXSpmmLYFezvZlrk7lYFIt6tNrmf/Esyx5cw953eewZuVkQurTOZyiI/z+wZhUo6MsLZkykTx28awl9WASterTrJ3/BM8ueZM9ed2Zs2Ylk0OkDRpNUOeRWOBISL+OIlFrriORMOWlc6l9GKGSYRS9mD4nirYHFvHbGUvYllQhbfoh9V+pOPWPpG87C+MJfSZR4Cx0ODHsciKpzkukwDGEfh2l/qopECs6577TmunGgwChG4uy6gKSCpyFz0wkrLEyq/JUX33fbfXnkOjPgLFEXDEulWJBpfD1FH809bnWylpi19Z2Y6K1OGiKC8qugThdzKKkXk36np1khcYQLfRbnXqQpFo1p9fO54lnl/Dmnjy6z1nDyskhxm07qLPYufQ1TvZ9jmUPd2+W/GP//quO6WuNU0sfrMk4zGldL8YONsWsuJm05DKxyOzcrB1bftn6mFKQVICzaH/iZUezcs1ebDpbKV+TweHTOnqNbRavPn3o3FxBMjIyMjI3DdNI/3PAuSMxaw9w+Kuv+Oqrw+xb+Rt8bvL8oCkr4JLBHd92TRIi/QUSDmbi0ncEXcW8q6vIIq0qgMHh3ibl1eWLBMyBjv2DELn2FfRVFKrUeHUKMF9Xk/XFHjKdO5smeOnQYWoVyv6daIuW0vQsavz60tE4L6rJ/PvnZDg1lq0gK62KgMHheBsbrSU3sRhF2ECCjblCPYWnz9HQIYIQhUjgs9KoChhMuKmwEFEknA4d6S9WA9oqFaU6T4K8TV/WS4lEWeIRclzCGdbZlGxextxu4J3htDfqWi/KfkWOWy/u6dTGrsza8jyKdcHMWL2dndu3svHdVSyOjaSnpyO66iJUmnaEBpg1Vn+WL/dm4NSpLx2cyskr1hE8YzXbd25n68Z3WbU4lsieni2cVVeWyZkqJQM6GQ3TTEfSQdQCHDqaFkHQhg6jFrJ+1wc82zmFTa/v5VztJQpLdXiF+Ikkvyk6yjPThQ4HXdahdK0s8wxVygFIzYkVHRlplQQMaWyvUTe9hW5cLMrqyjNJFz4zqNFnjFiT5+r7bv3+KlSiP55BjVsxhHXLEjmS40L4sM5CkCY+p22lrAX2/dNuTLQWB81Q3NENr6ocCs/9g/f/rmPMU+NE4qilPK8YXfAMVm/fyfatG3l31WJiI3si3EmovpRv17zIX7XR/HHBr/FrcU7X/v1XHdPXHKdNfVBPVaEKtVcnGt1enfUFezKd6dxH2kbXBK0Nv2x1TCknM120P6ixfYGVa/Zi01p5fVUhKrUXna4Izhd7MnHufI2HvGVkZGRkronGoVxG4OLXCX/y+Oc/fkT6mXR97XmObl7OO6dDeXjWENqJMrXnElEpuhPuL+1KFnNaWYZIwPzpH+ph/PsyDi4oRPZTmZtPtU5N3sG3eXVXPnToj7Rr5soBPn+cxeRfdaEGvUGLXm8qu2JXQZOy50hUKYxlja1qVKSe03BH43YB4176Mrylg62OtZxLVKHoHo5JRJFcZoiE01/UJUR08vDD26GMM+kXaRAJem32fta8exL/h2Zxd/NVj9RuoYaytBQK1AYaig6z7v0U/B+YysB29mV2VHiLxUcZ6TmXRPoqIeopKKZW/OHo4iGSjEryz9egqy/g0Duv8nEuBEqHRh0VeLeFsvQcLpn3A0uLp2LpxmbU5p6i2L07Yf5iUdVcR1JCKpINf1Gnh76CjFNZVIoqHNwDCPZzw6WdN+5tFHgq9Fz88QwXGqRkJIvDn39NYYNYBCWJRVC3XmYdSohrp4px7x6G1Jzx0GhhA5fOnqGo3oCm8BBr1wvdRE1lUDvLsrW5SRQrutGrsTI78lxV323dL/Tq5+1A2Zl0Lor+GGqz2b/mXU76P8Ssu32MMl/2OadWylpg39Z2Y6K1OGiGS0A3lIaz7FzxPnl3PsP/9RcKEcOUwqQYcq4ohoLiWuFb9WR/8gqrEnqx4JUZhFmp0/79rchvwTXGaVMfxAEXkyLIr9ahzjvI26/uIp8Opm10TRExYN0vWx9TkooVdOtlbl/CyjV7sWmtvIOLQizkKsnNr0anzuPg269iatZ0yFuT+wV/eWMLJ60eOJaRkZGRuV7kJL0JToGRzH98MJe2zmfiqPsYGTWDV77xYeaf/8TULtLzRg0X0nJoCBpweQ9pXX4KJR496K28PC2acPBmyJSReCX8iZgx45m3x5ERQ5Uow8PwdRI1laSS0xDMQOkAH66EDB9KYN4mHh37AHN3O3Lfr+4gIKynqeyFNFE2iAHmRg01uZwu86ZPd2lvtEBdQEqRE52kJ3+aC6TlNBA0oHG/bx35KSV49OiNJKKD993ETg3j7FszGD/+AR6cvYmKUfGsejS8xRYBTXEq2Rp/ul/6kNhxkUROW0X6gN+xfFa4SLLty+zoP5zY6BCSlk/hwZgYJkZN4Ml1p6g0SDIM4eHR7UlYEU1k1Bw+0Q9jmNKPMOnQqKM/w2OjCUlazpQHY4iZGMWEJ9dxSrrRAg0lqcIWwQORVNhcR9LT0JQSD3r0VtKm4QJHP5jPpPGTiX4ohvjE3jy1cDSBbfwYNnMcyuQ3mTFmNJGTXmBfhTeeeqHDcw0ERzTZM60pIVXoNXig6ecWpfbyXcLoV/4+s8ZGMmb6n8mImMcfJd1YlJV85pyQU/qWw1QVNuW5yr7but/Zm7tjpxJ29i1mjB/PAw/OZlPFKOJXPUq4pKOmPif8015ZS+zZupWYaCUOmuPgHkS3djXC737N888Ox8fo4I74D48lOiSJ5VMeJCZmIlETnmTdqUoRC6f5eHsy1aVHxGejuO+++xj/SgKWx2zt3H8tMX2NcWrhgyJJ9x4yhZFeCfwpZgzj5+3BccRQlMpwwporwtGGX7q0MqaI9s8J+0ZcdjTr1+zFprXyUrxOGelFwp9iGDN+HnscRzBUqSQ8zBcnsXAp+m4Xn32ZyIWb+qI3GRkZGRmHb7755ibv7P4fQFtFiaocnYeSAG83y5WMXiOmdRdcGi8atNRrHXFtY329o60q4YLGkwBfBQ46DVoHF0xF9Wg04HK5InPZeg+Ufh44ibINNssaaKjX4ezqfHlPr04UcHBxMcqqNxW+LLdBW4/W0dVclwl9bSlFpRoU/gH4uDX54DIGyv75O6Zv6smbm5+kY3Uxlc5+BLZ3udymhG2ZTWirS1CVSfucA/D1aJqMaKkquYBG6Fi6rtM0CPnbXNG1tlrYoAytwlfoTtRtvmyBhS1a6khbr8XRtbFOHdUlRVQYvAgM8DTtYzZjqC9HVaJGERBIexdT75rrUMLymk605yD+NIh6i6l28SOgiW4syjb3GSO25bmqvtu7X19LaVEpGoU/AT5N/belz9ku2xKbtr6KmLAdBy0xNKjROIplYIuOa0WfVZRJ5ycCfLFwp6vCxv3XE9NXGaeWPiiQxpYLGjxF+woH4UNa4UM22rHmlxK2dWnFvlavmbAem7bKm+PVU5RVOIh41V6JV6G/Oo0TCrdrNoiMjIyMjB3kJF3GBnUkvTaTJRfn8fGqEcatPjIyMjIyMjIyMv8dWj5ekZExose5w1AmTgij+c5cGRkZGRkZGRmZW4v8JF1GRkZGRkZGRkbmNkN+ki4jIyMjIyMjIyNzmyEn6TIyMjIyMjIyMjK3GXKSLiMjIyMjIyMjI3ObISfpMjIyMjI/cwzo9fLxKhmZ2wM9DQ037+VmBr1eRPhthL6Bm9g9u8hJenN0FaT95z+ckV45epuir0hm9+ZdnCgVMhrKOPyHiTy6KRON+fPbAUPteZL/8y3ffPON+d93nMytFqF7HZj7OOsW9FFXkcZ//nPG+IbZ2wpDLeeT/8O3l/X3Dd+dzKX6+hRI2eE/MHHWJjJvtgJtyqmnInk3m3edQHLTG8FQ+i8WjJ/JBkl4fQXJuzez60Qpt2+E3l7UZ25mdsxijlSYL/xEWNjxpmGgKvlDFkweyciRkTzx13Pm69fALRxfbgW3Ro8/IYZS/rVgPDM3XKv+DZT+awHjZ264+ePabcPNG0evCovx1TxvPGpj3rA1FuvL+HbFVKat+DelN5jIGqqS+XDBZBHbI4l8YhvJJ2/BnHKNOtaXfcuKqdNY8e/S68tnrhE5SW+GTvVPXlv6NkdUP8Hr8+qz2fveBg4X2W+7LnMf2/cdo7Be/KHO54ezGvy6BiC9E/XaqCd773tsOFzEze2tjqIvXuZ3L/6Zte9/wAcfSP8+ZE9K42vIrxFjH+vx7+J/HX20h5DzHyt58c3D/BTmtoeu6Ate/t2L/Hnt+2b9fcCHe1JofKv9taEm/4ez1Pt3wf/mKtCOnHVk7tvOvmOFwstuDHVeAllqf7oFCOHrMtm3fR/HjM4v0zoiic08Qb5zCIFXXiL6k2Bhx5tFfSY7XtvOhci32PfPv/FGdIj5g2vglo0vt4ZbosefEnUeCVlq/Ltd6xymJi8hC7V/N/5XVNGSmzeOXhUW46tp3tD4dbWuX6tjsZ6y79ayLuc3xC/4Fb43lGHWk7njNbZfiOStff/kb2+Mpe6LWzCnXIuOxQLku7XryPlNPAt+5ftfSaDlJL0ZtbmJqJw70aeDq/nKfw9NwRF27TnOpVbM4jEkjl2732BCByd0ZRmkVfnRT3rV+7WiKeDIrj0cv3SzHaGWc6cKcb3zedZt3cKWLdK/D3jlgSDLN2NeJY197Bt6s3+xvZbcxCLadOrHT2Buu9SeO0Wh6508v26rWX9b+OCVBwi6PgWSkVaFX9/Qm/6b97bl9GBI3C52vzEB4aY3gI7SjDNUBQygs7v402MIcbt288aEDjbexCpjSR35SYU4hfb5iX28mR1vEtriE3yn6sC4sb3wdHbD0/XaR7JbN77cCm6NHn9KdKUZnKkKYMC1dkhXSsaZKgIGdOZ/RBVWuFnj6FXSdHxtnDf6hWI1u7A6Fjug6DGdVatn08+z6bvJrwNtMSe+U9Fh3Fh6eTrj5unLXbdiTrkWHTso6DF9Fatn9+NGu3e1yEm6BRpUqTloAvoR2izq9ZWn+WzlXKZEjWZk5EM8Gr+VxArzY836XP6xeh4PR0US+cDDLNicJtag1tBy8ehGFs0cz+jRE4hdtoWPlz3N0kMq8ve9SOxz2znfcJaPfjedx5Z/Q7mhhlNvzeXFj/fyzvwYxk2O4+uKKk6+8QTPbEgzrvpqc5MocQ/B5eibPPPbcUSOf4wVB87TYGyviuOvPcnvt2SZV4hazu9bzOyXDqHK38eLsc+x/XwDZz/6HdMfW8435Qapo5z+bCVzp0QxemQkDz0az9bECtMT8Kvtp6aIH3M0BPQLaTl4GqpI2/sa86cJHYy6n+inX+NAnvm7NDHoHt/yEk9Ei36MnUTs0h2cqTGY+qjoKPq4mjnGPsbyZ6Gzxoff2otH2bhoJuNHj2ZC7DK2fLyMp5ceav2rNk0hp7M1BEaY5KxNept5cZ/x1Y5XeSpGtDPhcV47UiJCWqKe3H+sZt7DUURGPsDDCzaTZuy8CPjjW3jpiWjGRY5lUuxSdpypwXL/nJ6Sg/HELtpLQaPQVSdY/eRTvJNca77QFA1FP5r8MKS5Aq9Df0KBJJUo6OhylNVzfivkHE/sn4UPmGW5bv3Zk7PmJG888Qwb0oxeStLb84j77Ct2vPoUMeMimfD4axwpafxu0VZcSF8nioXUqWLcu4fjJxYoNSff4IlnNiBVW33qLZ6aNpWHH37Y+G/a0+9iVZ0CXelxtrz0BNGi7bGTYlm64wySauzFdY2of+6LH7P3nflC5snEfV1BlZVrBjs2qc/9B6vnPUxUZCQPPLyAzUankfTxLC/uPHRZH+Mf+xNfFjY6h57K05+xcu4UokaPJPKhR4nfmkjjcGPfT4Uuj21i0SNCljETeVzo8p8p1Sj7h5pi0Y6s9uttybX5jaUdxc0c3biImeNHM3pCLMu2fMyyp5dyyHizrVhrio6iAy8RO38zudo8djz/KAv+epb6qjT2vjafaaLeUfdH8/RrB7gSHtZ9wP74Ys83bdnXCjdN7830aFe+q9GjNTu+zJNijjCaouo4rz35e7ZkmZ8xas+zb/FsXjL332BH3xbY63/uKYrduxNu6pAFdn1MjGunit3pHu6Hs525zlQ2ibfnxfP5vz9hxZPRjBWxMee9BEpyD/GXBdMYHxnFzKX7yDNNnK3YxH58WmBrzrQ3jjflGsZRW75oy++tjm9NxlfTvOFOiJg33nzGNG88tuKAyFGM1VqMxVd08jDRM2J5dGasVZ3oSw4SH7uIvVcmQk6sfpKn3kkWvbuCrugAL8XOZ3Oulrwdz/Pogr9ytvzWzCkWOq4+xVtPTWOqeU55eNrTvCtNKo150cPRzIh9lJmxTfKiW4ycpDfFUE1OykXce4Th23S8UGew9fnn+KhkEHPXbGX7O7MJTdnEyu0Z4kMtuZ8vZ/XxzszbvJ+/bYonOsLH6hNjdcZWFi3diy5yCe+tX0YU+3n/iAp3H0+Uw2bycG93nMMeJ/7lpcQ9MZj2DYX8kPAjR7ftQDVoDksXz6CfaxEJ32fRoPShjXlRUX3pBz4/5c+UZWt4cUQV/9z4CWl1UoP5fH8iF63S2/w1Yi1nv02m1MMHT+UwZj7cG3fnMB6Pf5mlcU8wuH09GVuf57mPShg0dw1bt7/D7NAUNq3cTkb91ffTUHWOlAtuhHR0obqiggrxr1ojpa0asncsZuGWS9y75EP2732HibqDrN2STI2QLXXjQuL3GRi9ZB1b18cR5V9DdYO5j5Wn2J2oZOqy15jXt5gvd/6HC1I8SrZZtJS9ukiWvLeeZVGw//0jqNx9ULTi3YaqHJIvtqVnmL/oh0g4TyZw+tiHvJ8YxPRXXmde7yIObP+WEhGJ2tzPWb76OJ3nbWb/3zYRHx2Bj+h8bepGFsbvwzB6Ceu2ricuyp+aavModhlHFG31qE6fIN80QlNxajeHC/0ZEGLlGYUYwM+lXMAtRCQO1Sb9VVRrxF3Xoz+hdVUqOdWVnNqdiHLqMl6b15fiL3fyH0mBN6A/23KKNs8n8H1WA0qfNuKPIk4mnObYh++TGDSdV16fR28xCG//tsRYje24UOAo7j2d3UBQhPQ0R8P5hO/JalAiVevebRK/e/FF4p6fQW+xQNF1GYw1dQojsXFhPPsMo1mybivr46Lwr6mmoc5eXGso/CGBH49uY4dqEHOWLmZGP1dUVq7l2LKJNpfPl6/meOd5bN7/NzbFRxMhOY1ZH0e3fSD0MY0/vh3Pr6sP8sHHqUZxJX08/9xHlAyay5qt23lndigpm1ayPUOanOz7qTp9Ky+8tAfdmDjWro1jlPpLDhS50yNMSmTs+Y/9eltwrX5jYUe1GGcWsXSvjsgl77HedDNHVO74iJttxZolTvjeOYNpEW1x7jqLF1+O5/f36/l88UK2XLqXJR/uF8nHRHQH17Iluca2D4h+2xtf7PqmLfu24Cbq3UKP9uXTX40e1elsfWEp+/T3E7e20Y5fUyzmCMmO6vzvOSESJaW3eb9D7Vm+TS7Fwxib2eywpW8LWun/6WwagiJo8WVwKz6mKTpNdkMQEdKNduY6U9mTJJw+xofrThI8czmrHgsi69PlzP/DbvRjFvPaomFUf7OLQ/lSotxKjNmNz6bYmjPt6cOSqx5HbfmiHb+3Nr4VNRlfTfPGJX74/BT+U5ax5sURVP1zI58YkwvLsfhqdeKoaItedZoTpokQQ4WIu8OF+A8IMfpzI06+dzJjWgRtnbsy68WXif/9BDpcuBVzSjMdu3dj0u9e5MW455nRW0eprguDQ7CTFxmbu6W0Ng3fRogUpbyIgoIC47/C0rpmTytvAuoCkgsMBPUPbuIwekq+WseOojt5Ln4W93YLJKDnCCJ7u1GaqRKfN1BRUEqDozNOTo64KnszdICyZfJqKOfY5k8pipjHoun30L1LBONiRqB0DaZ/iDuu7b2oL1ETeOdd9AsPo4tSSCCSyJRiCJoQT9wj93HX4DDa12aTVOpDn65eOBoXFaJA8HiR2D/KiPDuDBzWA/fqQirEQlVfmU1qhSjbuS3Gb2bqz5OSqxP9C8HdtT1e9SWoA+/krn7hhHVR4nrhK9btKOLO5+KZdW83AgN6MiKyN26lmajqr7Kfgrr8RPK11XyzdBoTJ04U/37Lgl251Jd+w/ptuUQ8M5f7g7XkJx8npcSJjj1FPSVfs2F3OUMXPE/0wBACQgYyaW4sQ7xqTH3s8ABxSx/l3vCudA3ywNnJlTaOBsqPbebTogjmLZrOPd27EDEuhhFKV4JFH5sGvTXq8oSchiChf1HSUMO5ZBWGO6KIe0nYObwLXYNFAuDkRhuhvIaKAkobHMXfTji6Kuk9dABKxxK+3rCb8qELeD56ICEBIQycNJfYIe1N+m6CW4ee+NYXcK5MGEZXwrefncRtxCQGtrfynVldPon5WjFpLGWaUX8T+e2CXeSorkN/7aE6J4ViOvBA3FIevTecrl2D8HB2wlWMSTeiP1ty5jYYqMpOotSnD129HIVqz5GsMnBHVBwvzbqX8C5dCW4r/MhNCGA3LhRiHZBNcqk3vbu2E/5eRXZSKT59uiKqxdEzhLCwOyg7uJXvlbNYPvcuWqpTxO/XG9hdPpQFz0czMCSAkIGTmBs7CM3XduJatGX0u6AJxMc9wn13DSasfW2Laz30/7FpE9eGCgpKG3AUunZydEXZeygDlM5CH2JxKJoIeiBe6GMEYd0GCN27U6O6JD1q4qt1Oyi68zniha66BQbQc0Qkvd1KyVSJGcGenxrKOCp0qZJ0OfUuunUZxMRHRqN0EbrsKJI2O/Hn2or/W3LtcdfUjg7lx9j8aRER8xYx/Z7udIkYR8wIIUNwf+Miy2qsWRloXHx80BXX4jfoTvqHd8M9cQPbciN4Zu79BGvzST6eQolTR3qKm637wBDaYx5DrY0v2PdNIahV+zbn5undUo+OrcRO63oUdvz+Iz5TDWDuH6ZyV7cmduwn2VFPZXYqFSKOO7c1CVN/PoVcnTRmulD6zXob+rbcV2W//yKmRdLv3bsr7SyykdZ8TBpjRBLu3Zuu4kZ7c51UtuZcMipDIONefIlHhofRVcS7m8FAj6eXMXdMXzEmhtBO6MnNWQhhzyatxacF1udMR3v6MN9p4hrGUau+6GjH762Pb1fGV4N53ghmfPzLPDoinO4Dh9HDvZpCKbloOhZzDTpx60BP33oKzpWJJYyOkm8/46TbCCYNbDZnuvjgoyum1m8Qd/YPp0fHttTeijmlmY7FpEJIWBh3lB1k6/dKZi2fyxDN13byIrO8t5CfT5KuLWDvksd4ZOZMZs58hKdeO4q0O+NmoivPJK3Sh95dRAJsvgaVpB5KxWnAWCK8zW5k0FB5SYvC11P8oaDX9DlEtT3Aot/OYMm2pBZf8RipyeDwaR29xg42H6bQUZaWTFnjAFibS2KRG117KcXkYEJdkESBcz+RAIVdnvjUIrEscAyhX0cRztKi4rwzfadNppfxu2w9daVlaDwC8BKDsZQsF7W5sr9eV5ZGcnnjQGbaj+3WtRdKc4OVqYdIdRrA2Ahvc8CIhVHlJbQKXzydrrKfol/lmelUK2N478uv+Oor6d9B3p/eifrUgyTVqjm9dj5PPLuEN/fk0X3OGlZODqEu9V+i7f5E9hWTuLkmI+Y+9pkWTW9py6gYQPPSL9E+rBNtHWrIOHwaXa+xDDafUDH2sazJYG0Tof+MNKp8xQAtbS5TSwmnE/2mTSJc0uXldkJFO8LKvaYzJ6otBxb9lhlLtpEkdb4ylX+lOtE/si/t7DdGG99uhLiWkqFSU5+1j53pQUyM6WN1j7jkh+nVSmLe+9Ksv684+P50/DKvQ3+oKUg+j3OfaUSbFEhNXjqX2ofRqW3dDejPtpyd2qjJSyzAMaQfRjeVFm1Owo8nhRu3XBhq8ki/1J6w0LatxoU6P4l8x1D6B7mJivJILHAkpF9H82SmJmvnUl472Zfnlj1Md6urChG//xLx2z+SvhZGaiWuhd8lFTgLf5hI2OXga3mt2o5POyt6MX1OFG0PLOK3M5awLcn09aixT0If0yf3Mm1B0ddRWqahbaCX0acOCZ8aMDaCK2JVckmrwNfTSbrZtp/WpnM4RUf4/c10KRKZLsLH7craiv9bcu1x19SONRmHOa3rxdjB5oNXujLSksvEhN/ZdqxZoy6PpEJnQvsECX+oJvVgErXq06yd/wTPLnmTPXndmbNmJZND6mz4gMDe+FLXyphtw77NuXl6t9Rja7HTuh6FHQ+loA0fyxC/RjueMdqxbxfJjnXkG8/sNJ5nMNVfbqy/1o6+LRcqrfU/Kd+R0P5BiB41oTUfU5OflI9jaH8kVdif60TZxHyc+k1jklHJOiqyc6gTSfi0e0w+qC5I5aKiC92kr9Dt2aS6lfi0wPqcaVcf5jtNXMM4atUXbY19AqvjW9Px1Txv9J3GZFNyIYapUso0HgRIyUXTsq2NWU1p40u3EFdKM1So67PYtzOdoIkx9GkxEdaRl1SIc2gfgowmvUVzSrN6JdRZO1n62kn6PreMh8WkYj8vMl64pZi8/+eAc0di1h7gsDEZOMy+lb/Bx8ogdiPU5SWhcg6lr8krTGirUJXq8Axq/BpNmKgskSM5LoQP62z8u02HUSxcv4sPnu1MyqbX2Xuu+XYH4eBVhajUXnQKMA9F6iy+2JOJc2fTAKgpTiW7/g4iLm+GNyW7VQGDCPduNJNwtswzVCkH0EkU05VniEVFAEPCvU2G1JeR+FUObr3voZNCS2l6FjV+feloDEI1mX//nAynzqaBTFNManY9d0SY96qKdW2VqhSdZxCN32xKP02WeCQHl/BhxgMWV9NP6WvG3EQVzp36moOrES3lecXogmewevtOtm/dyLurFhMb2RNPRy2XCkXbXiH4WdzT2EclQ3qZ+1gnBvUCBzpKg7q+ikKR9Hp1CjAP8CJp+2IPmc7mPtrFtEhplFNXkUVaVQCDG3XZtB3p7zYdGLVwPbs+eJbOKZt4fe85ai8VUqrzIqS50NZwCyLMVwwI57I5tHEfdb+ezfjQxuWYJY2Hly388Dr1JxRIRlolyiG9MLmRdJCwAIeOYnJzuRH92ZJTIJKuzDNVKAd0Er4lJsQssRgKGHzZj+vEIFng0NE4SNqPC+HvGanC3/uLBYVUbSZnqpQMkJxfTEGl367hxb9qif7jAn7tZ2O01F6iUMSvV4if5VOqVuLauAAR/jCo0R8ELa/Zs4n0eRs6jFrI+l0f8GznFDa9vpdzDWZ9BN5JuPmxv160+1WOG73u6STEUgmf8iToShBSlniEHJdwhokgtOenbaqLUGnaEdqoy/qzfLk3Ayfh4x1c7cvaqv835Zrjrqkd9VQVignaqxNXTP4FezKd6dyng8lGVmLN2kijvZhOek2A8AcxwGnLySvWETxjNdt3bmfrxndZtTiWyJ6eONryAYG98cWllTHbun2NJZtwE/VuocfW55RW9WjFjpmSHZ1C6S1VoC0lPasGv74dTQ+J1Jn8/XPhT1L9Tnb0bayrkVb6X5ZBqojp/lKHmtKaj0mHGlPFGNNfLKZEG3bnOl0FWWlVBAwON4+B0thfjCJsIMFGO9ZTeFropkOE8ZscezZxbiU+m9NyzqxtZcxowjWMo1Z9sdae31sZ35qOr+Z5I2BIo870op9fkePWm3tEvDUt29qYZYkbQWG+Isc/R/ahjeyr+zWzx4defjB5Ge1F0tNrCBB9N5r0Fs0plvWKXpZ+y5oX/4o2+o8s+LUfTsK3WsuLbjXN3eIXjIbi1GzUfj3waTDvr62spsHBAz+xPCw7k85FMcIZarPZv+ZdTvo/xKy721ORcYqsSrE8dnAnINgPN5d2eLu3VKuDi0IkA5Xk5lejE6vQg2+/yq586GA+0FVfcpYyR0+83BzQanTiihhIksRA0q0X/pc9WFwzHngIw18sZqUDT4UNlzh7poh6g4bCQ2tZn+JP1NRBtJOc60INeoMWvV4khwffZsWuAqlB06HY+hLOljni6eWGg1Yj3N4JDz+xUiw7Q7qpo2TvX8O7J/15aNadOGZeXT+lvWLGQ6MDGpP/RhxReIuoKEsnp/F3BDVlFBTXivAXn3kq0F/8kTMXRNtigM46/DlfFzYY+1is6E64+XG/NKinV/nTX/olBgcXFCJwKnPzqdaZ+viqSaktDv62oPHQqFnO2nMi4ZTaMSu7aTv6igxOZVUKOR1wDwjGz82Fdt7utFF4otBf5MczF8TkJ5KPrMN8/nWh1YSCNj50FUv1/M9W8m56P558bLCNp+8a82HMAc36cH36k76hSSpW0D3c/A2NNLmlV+Ev/M7jRvRnU05B44Eu417/Ws6JRZuie7jZj6VBUiw+/UUbRhPai4tGfxf3Gv3ddMAsTPxRn/0Jr6xKoNeCV5gRZkdYRwWeCj0XfzyDSTVZHP78awp19uLax+x33eh1JfisXLNjE30FGaeyMIVMAMF+bri088bdUdJHoSiWRkqBGkNDEYfXvU+K/wNMHdgOJw8/vB3KOJN+UfiRgdrs/ax59yT+D83ibh8Hu37q6OIhpsBK8s/XoKsv4NA7r/JxLgQadWnPf+z7fwuu2W+a2tEBF9PN5FfrxGR9kLdf3UU+HURb7jZjzdpEJdnjQtue9JSefgo7m7qXc/lnSjVlBRTXij9s+YAxPGyPL3Z906Z9jdU04SbqvVk82JPP7Wr0aLbjpbzzV+y4wzxHSJmRWMheqNFj0OrRG+tfgWkKEf23p28LWul/46FRqUNNac3HLh8alcaYVua62nMkqqQx0N80BmpUpJ7TcEfj1ixp2+jpMrx7dzFuo7Nnk9bi8wp6G7lBG7v6sOBqx1GFDV9s05rfNx/froyvUttJouCls2coqjeI6fIQa9en4B81lUHtLMtevU4k2uDTtSOu+Z+x8t10+j35GIOtTYRS+xfa0rOnr+nbhVs0p1jUW5/NJ6+sIqHXAl6ZEWbOX+zlRXff9AfF1rA29v1Cqaco4wK6gr/ybLRpf+3EB+fxSUFb7o6dStjZt5gxfjwPPDibTRWjiF/1KOGKBi4c/YD5k8YzOfohYuIT6f3UQkYHtnyq5+A9hCkjvUj4Uwxjxs9jj+MIhiqVhItVpVTaLWgAXfU/sGzyOGI3pKPWXCDtXAPBEU32eGpKSM0R1waaDtFdSMvHJawf5e/PYmzkGKb/OYOIeX9kVri0gnQlZPhQAvM28ejYB5i725H7fnUHAWE98TU1yICuen5YNplxsRtIVzvgfXcsU8PO8taM8Yx/4EFmb6pgVPwqHg13vup+Sl87nS5tK/olHVRriiP+w2OJDkli+ZQHiYmZSNSEJ1l3qlKEtSN+w2YyTpnMmzPGMDpyEi/sq8DbUy/6eI6G4CuHiuryUyjx6EFvaVJ18GbIlJF4JfyJmDHjmbfHkRFDlSjDw0x9tEdNLilCzl69pKCXdJlDg7CB9CRFomk7DReO8sH8SYyfHM1DMfEk9n6KhaMDaeM3jJnjlCS/OYMxoyOZ9MI+Krw9m/W7EQUdwn1pKKlm0Lz5/EZpQ0Dpq9XTpbQVfbD8sYPr0Z/o2YU0zjUEmw5XSdTlk1LiQY/eImm/Ef3ZlFNy01RyRJsDpTYlPxY+G3T5YFAd+SklePTobdxmZTcumvl7SaqwUfBA4Qs1nP54O8nVpRxZPoVR993HfeNfIaH5qSsJRz+GzRyHMvlNZowZTeSkF9hX4Y2ni7eduJb8weR3jf4gOmLlmh2bNFzg6AfzmTR+MtEPxRCf2JunFo4mUCd9g6XBv/slPowdR2TkNFalD+B3y2chha2D993ETg3j7FszGD/+AR6cvYmKUfGsejTcHPO2/VTS5cOj25OwIprIqDl8oh/GMKUfYcZYtOc/9uttwbX6jYUdxTgzZAojvRL4U8wYxs/bg+OIoSiV4YSJm23FWstq6ylMOYcuyLSPHUd/hsdGE5K0nCkPxhAzMYoJT67jVKXBtg84X7GptfHFrm/asm8LQW+i3i30aD929FejR8mOv/0N7RJWEBMp7LgPBnQXyXcPMUdIMe0awvChgeRtepSxD8xlt+N9/OqOAMJE4uRkT98W2O//lZg2F2+kFR+zGGNameukMTCnQcx3ZiUbxNh/usybPt3N21rVBaQUOdHJ+O1FazFmLz6bYis3aGNHH5Zc9TiKDV9s07rfN/ZRNGBhC0ln+S5h9Ct/n1ljIxkz/c9kRMzjj7PCjTpqWvbqdWJC0SEc34YSqgfNY/5vlFZiW0R3YQrnjGcfTDXcmjnFst6a0x+zPbma0iPCp0eJOeW+8bySUGsnL7LWu5uPwzfffHPTz1/+T6KvpbSoFI3CnwAfN1Nwm9FVl1BUYcArMEAEgPmiVcSKv+QCGs8AfBUO6DRaseprc7kuac9XcaUTvsr2uIgVml6jARcXi7Ysruk0aBxccDFUU1JcjYtfAO2lG5ugrSrhQr0HSj8PnET5BlG+zZUGKS2uxMlX2eQ+PbWlRZRqFPgH+ODWpPGr66cBbb0WJ1cxoJmvWKKlukRFmbRfLcAXj6YRaqinXFWCWhFAYHsX0/160UexLnZplMOgpV7riOvlTpj7qPEkwFekAKKP2qZ9tEkzOVtrRyd0XFSBwSuQAIvOG6gvV1GiVhAQaLKbVcQq/eOFYsAIWcK654aav0K0jkFbj9bJ1erBsWvWn7CnyWUud8zYb0fR78Yr16c/e3Jattncj433OUoHf80X7MSFxb3NbXQNGOrLUZWoUQQEWsaIrbi21pbN9m3ZRCeuF1Fh8CIwwLR4M5T9k99N30TPNzfzZMdqEe/O+FnxG31tKUWlGhT+Afg0DcJW48GsSw8lvkIQnabBYoyxKWur9bbkWvymxVimraLkggZPIYPCQYdG64BL4802Y60JuvN8+vRj7Bu2lo3/1+XK1+Vaca+qzLhfNMBXjHnmyxJWfeBq9Wl1zG5pX9vcHL23nBPsyHc1ehRoq4qNdlR65LL+/35P6qy/8s5YX/P4Yaq/XviTnzV/sqNvS66y/82w7WPNxzVzWatzXcsxsKFeh7Or8+U5SicKONgaZ6zYxGZ8NsP2nGlnHL/MtYyjtn3xqvxewuKaiEmNiEkXg6i3mGoXPwIuzykCK/dfnU7qyf54oVh0hbBk3XMMtToR6jj/6dM8tm8Yazf+H12MwX2L5hQrfmQd23nRrUZO0mX+96hJY/dHX5Bj5TeBcWxHv+j/Y1SwlSdVtwpDJSf/8gxLjt/Nqvfm0F86qHpbU0Pa7o/4wroCadcvmv8bFdxyH6FMq9QlvcbMJReZ9/EqRrQzX5S5Bhoo/PbvfHXyCDu/qGfa+rd52MbZDplrQ1+yn2dm/pUBaz7kybDmu5hlZG4UA5Un/8IzS45z96r3mNPf80rSb6ah8Fv+/tVJjuz8gvpp63n7YSv71X9hyEm6zP8cDTlbePqpzZwVK+QWtAll6tvv80SYi/nCrUdffoKPNnyPMjqWqM7mwyy3Mw05bHn6KTZbVyChU9/m/SfC+O9p8H+Hmh//yvqjnZjx6DBs7XiSsUc1P368lt35nvS9fwoP9PO28/RW5lrQFh3ig51l/ObJGHr+d77Jl/kloS/nxEcb+F4ZTWxUZ/OBYEuqf/yYtbvz8ex7P1Me6Ie3HNxyki4jIyMjIyMjIyNzu/Ff3FkjIyMjIyMjIyMjI3M1yEm6jIyMjIyMjIyMzG2GnKTLyMjIyMjIyMjI3GbISbqMGS1VRQWU1d9uRxT0NDS0eM2DjMytRd/Az8XtpJ/Fa1VUXTVF58vQyCeQZGRkZH42yEl6Mwyl/2LB+JlsyLT2yxb/qxioPvUOs5/8CwmNb0G7ZdSTuXk2MYuPUGG+YhN9Gd+umMq0Ff+m9KaKZaD0XwsYP3MDP7WZb7a/6SuS2b15FydKpbfW3hp+PjGipyJ5N5t3neBa1KEv+5YVU6ex4t+lrSe/10l95mZmxyzmSKtBYA8dqgN/YOL01SS0eImMJYaKb3n1icV8ofqZrDxkZGRkZOQkvTnqvASy1P50C/gF/cCcOp2/vvEPvKbPYaT0u3D12ex9bwOHi7TmAjcRQxWZJ/JxDgm0+jayK+gp+24t63J+Q/yCX+F7Uz1VTV5CFmr/bvzUZr7Z/laXuY/t+45RWG++cAu4fpnryd77HhsOF3ELPMsKdWTu286+Y4Wi5atELAy/W7uOnN/Es+BXvjYGyBvth4GqzBPkO4cQeAM/dacr+pLVmyqZtHwed1l7tXYTHNqG0NOjgOM51l7LKiMjIyNzOyIn6RboKM04Q1XAADq7my/9z6On5NA6dtfcxxNRIcY3lWkKjrBrz3Eu3Qr3qMsnqdCJ0D4dsP+6DAcUPaazavVs+t3sl//oSsk4U0XAgM78tGa++f7mMSSOXbvfYEKHW/UDszcgs6aAI7v2cPzSf2vg8WBI3C52vzGBq1aHg4Ie01exenY/bLrdDfejjvykQpxC+9DhBt4Z49BuAE+9vZpHruZHrZ3bE+hRT8G5cvMFGRkZGZnbHTlJt6CW3FPFuHcPx0/KVrUXObpxETPHj2b0hFiWbfmYZU8v5ZCVvRe60uNseekJosdFMnZSLEt3nKHGIFVxlI2LZjJ+9GgmxC5jy8fLeHrpIdP2jZpTvDX3RT7e+w7zY8YxOe5rKqqsXDMYqErby2vzp4l6RnF/9NO8diAP42YDa3UYtFw8upFFM8czevQEYpdt4eNlT7P0kJWv7zXZ7P84Bf8JMfRrq+X8vheJfW475xvO8tHvpvPY8m8ot9d+bRJvz4vjs6928OpTMYyLnMDjrx2hpHF7gdDhsU2LeETocMzEx4UO/0lKtZL+oSLDsyv7BCbMmMdLq7dZl11XzJdxj/PiAZVIGyUMVH7/Bk8+/R4pdeJPe7arzeVUsTvdw/2MixJ95Wk+WzmXKVGjGRn5EI/GbyWxwtyaVRlNH5moJentecR99hU7Xn2KGGH/CY+/xhGzAqqOv8aTv99ClvlRrvb8PhbPfsnsQ838TV/J6c9WMndKFKNHRvLQo/FsTaywuuWiPvcfrJ73MFGRkTzw8AI2p0lvB63h5BtP8MyGtJZPjluxk10dWHB9MSL1+8XY59h+voGzH/2O6Y8t55tyA4aqNPa+Np9p4v5R90fz9GsHyDM5NqfemsuLH+/lnflC3slxfF1RY9R1/Of/5pMVTxI9dgwT57xHQkkuh/6yQNQRSdTMpezLazC2Sc1J3njiGTakSdqwb6fLun84mhmxjzIz1rrubfXDvv6ETx/bxKJHRDyOmcjjIh7/mVKNsn+ocZFoc4xosOfjNSSufZk3/p6HqbetxLyjC4o2Buov1RpLy8jIyMjc/shJelM0RZzObiAoIhQFajK2LmLpXh2RS95j/bIo2P8+R1Tu+Ciaqa02lY0L49lnGM2SdVtZHxeFf001DXUZbF20lL26SJa8tx5TFUdQufsgVaEp/IGEH4+ybYeKQXOWsnhGP1xVVq7l7GDxwi1cuncJH+4XSctEHQfXbiG5xnodbTK3smjpXnSRS3hv/TKi2M/7R1S4+yhaGLw++x98WdiRsb8JoQ1O+A2bycO93XEOe5z4l5cS98Rg3O21X3SShNPH+PD9RIKmv8Lr83pTdGA735ZIqYGa9K0v8NIeHWPi1rI2bhTqLw9Q5N6DMJHh3ZDsTgo8NIWkJhaZElJDBT/sPkyRcgChCvu20xSdJrshiIhQhRBR2Oj55/ioZBBz12xl+zuzCU3ZxMrtGcZmrMlo8YRV+MzJhNMc+/B9EoOm88rr8+hddIDt35aID9Xkf3+CXK0Sb/POkNqz35Jc6mHyoRb+9jzPfVTCoLlr2Lr9HWaHprBp5XYymmfc2lw+X76a453nsXn/39gUH02Ej8iYNedJ+D6LBqVPi1cp27VTKzqw4DpjxMlvGDMf7o27cxiPx7/M0rgnGOyew47FC9ly6V6WfLifve9MRHdwLVtMjs0PCT9ydNsOVIPmsHTxDPq5qsy6XsfJ4JksX/UYQVmfsnz+H9itH8Pi1xYxrPobdh3KN7apOZ/A91kNKH2ENlqx09Xq3mo/XDPt6k+dvpUXXtqDbkwca9fGMUr9JQeK3OkRJhaJku5tjRFt7Pi4k7D18bOXba3OaCVudHVU1xtwcpFWVjIyMjIyPwea52y/aAxV2SKB8qZ313Y4lB9j86dFRMxbxPR7utMlYhwxI5S4BvcnxOLbZT0lX29gd/lQFjwfzcCQAEIGTmJu7GAMxzfzaVEE8xZN557uXYgYF8MIpSvB/UNEgmOgKieFYoKYEB/HI/fdxeCw9tQ2v9ZDz3/WbyM34hnm3h+MNj+Z4yklOHXsidLVSh09IWHzpxRFzGPR9Hvo3iWCcTEjRNlg+lsKLmjg/LH/cCFgOHfeIU3eDri296K+RE3gnXfRLzyMLn61fGun/ZpzyagMdxAV9xKz7g2nS9dg2jo74dbGAUPZUaFDlVGHU+/qRpdBE3lktBIXocOOihuV3Y2A7u2pyTtPtcgzdap/81miO7+ePABPu7YT7WYnU+rdG2FmSr5ax46iO3kufhb3dgskoOcIInu7UZqpEm1Ys5Hla8gNNedIVhm4IyqOl2bdS3iXrgS3dcbJTaRO+kqyUyvw6dOZtsbEvp7zKbnogkw+1NTfhCCs21HEnc/FCz12IzCgJyMie+NWmomqeZLeUEFBaQOOQs9Ojq4oew9lgNLZWF9SqQ99uno1C2x7dhL+a1cHllxfjAjPcm2PV30J6sA7uatfOGFd/Kj9dj3bciN4Zu79BGvzST6eQolTR3qKGDFU5ZBSDEET4ol75D7uGhxGe7VJ14HjXuSlR4YT1lXoyc2AocfTLJs7hr5duxLSTujETfJlyc5JlPr0oauXo1076a9B99b6UfW1Hf0ZyjgqfFol+fTUu+jWZRATHxmN0kX4dEdXyo/ZGyPs+HhTWxvKOdZa3DSUklcOnoHepr9lZGRkZG575CS9Cer8JPIdQ+kf5EZNxmFO63oxdrD58JiujLTksiYJVyOVpP4rFaf+kfS1OLxVQ8bh0+h6jWWw+dSjriyN5DIxsXZuK9JhNQVJBTj3m8bEsMaMxsq16lQOJtWiPr2W+U88y5I395DXfQ5rVk4mxNlK+ZoMDp/W0WvsYPNhSx1lacmUiWSls6XgghrOJZag6NGXOxrPANbmkljkRtdeStPT2Fbaz0/Mx0m0Pylc+uJeJIN56VxqH0aoaKs6/TApunDub6ZD795d8HS4UdldUHYNxOliFiX1atL37CQrNIboXu6t2E7InJSPY2h/gtyE7Q4J2w0YS4S3uX6DhspLWhS+nuIPazayRJ2fSL5TP6ZNCjduXTDU5JF+qT1hoW2N++8Ti9rQqXH/vVGO8ss+1NTfKlMPkeo0gLER3sI3JAxoKi+hVfji2Xw/taIX0+dE0fbAIn47YwnbkkzbMtR5iRQ4htBPJH+W2LNTdSs6sOT6YkSiltzEIty69kJpcixSDyZRqz7N2vlP8OySN9mT1505a1YyOcQZdUESBc5CrxPDRLJqormudRXZ5NSJhce0e0z+oi4g9aKCLt18pT/ISyzAMaQfkjrs2emadN+iH634UHU6h1N0hN/fzKfFIrGLZ10rY4RtH7ew9VXEja40gzNVPoR38jD+LSMjIyNz+2OaGWQEYmLLSKVK2Z9ObfVUFapQe3UiwM30qTrrC/ZkOtO5+YFH7SUKS3V4hfhZXtdXUahS49UpAFMVarK+2EOmc2f6SKfFdOVkplcRMCgc70YrWLmmLc+jWBfMjNXb2bl9KxvfXcXi2Eh6eooCVsrrqwpRqb3odEVwvtiTiXNnK4fUtBWcF7L7dgu4LLumOJXs+juIkPaMC+y3X0FWmmh/cGP70oG4Ahw6SgmwjuoiFZp2oZd1WH/2S/ZmONGpr9DhjcouUNzRDa+qHArP/YP3/65jzFPjxMKhFduJRDIjtQpl/0601VahEv33DPIW6ZAJQ1kiR3JcCB/W2bqNLNBRkZVGVcBgws0F6kQSW+DQ0ZjEakvTyarxo29HU5qpzvw7n4v+m3yoqb9pqVKVovMMurwtRnoCm3gkB5fwYVYOaLahw6iFrN/1Ac92TmHT63s51yDqyzwj6htAp+bl7dnJuRUdWHCdMSKhKSY1u547Ikz7sIVjkVesI3jGarbv3M7Wje+yanEskT09xaCkozwzXeh10GW9WtN1bW4ixYowBgabWqsvPC300IEI6emxsHPmGWHnAZ1Ee/bs5Hxtum/RD/v601UXodK0I/RKEPDl3gycOvWlQ5tWxgiBdR+3tHXrcWOgPOUbCtz7MjTUXEZGRkZG5rancQaUaXIgzt/ZAReFmHIrc8mv1qHOO8jbr+4inw6mA49NcVTgqdBz8cczXGiQJswsDn/+NYUNLpiqyKdapybv4Nu8uisfOvTHWEVtLknFCrr18r+yf9jKNUeFN20pIz3nkvkQm4aygmJqpT+slHdwUYhkoZLc/Gp06jwOvv0qpmbNSUVTdPXUaBxQ+Hhe3sJRX3KWMkdPvNwc0Gp0rbR/jkSVgu7h5valBFgktf6iLQ/hWi4eIiGozOd8jY76gkO88+rH5BJo0uGNyi5wCeiG0nCWnSveJ+/OZ/i//m3F1VZsJ9o1HRr1x9nJAz9vB8rOpHNR2M5Qm83+Ne9y0v8hZt3tY1VGS2o5l6hCIfmMSQEiiRXJpb+wsYeUv12gRm9Aq9eb5Fixi4LLPtTU35zw8PPGoewM6SZByN6/hndP+vPQrLvxafpUWl9BxqksKoX+HdwDCPZzw6WdN+6OjfWFifrMZRuxZ6fWdGDBdcaIRH0JZ8sc8fRyw0GrQSfixluYqyw9h8af5teUFVBscixyk4pRdOtl1qtEc11rUKWeQ3NH49YaA9U5p01PqL3EsNZo5zBhZ7t2ugbdSzTvRyv6c3TxEAl4Jfnna0S4FXDonVf5OBcCJZ92aGWMEFj3cUtbtxo3+gt8//c0FMOi6C1u1+R+wV/e2MJJqweDZWRkZGRuF+QkvRFNCak5DQQPlA7EOeA9ZAojvRL4U8wYxs/bg+OIoSiV4YT5Nvv+29GPYTPHoUx+kxljRhM56QX2VXjj6eLNkCkj8Ur4EzFjxjNvjyMjhipRhochVaG5kMa5hmDTUz8z1q45+g8nNjqEpOVTeDAmholRE3hy3Smkd5dYK+/gPYQpI71I+FMMY8bPY4/jCIYqlYSH+VrspTbi2AZXkWxhuPJzJW5BA+iq/4Flk8cRuyEdTSvt5zQEMaCx/bp8Uko86NFb2ioj6fBhRrdPYEV0JFFzPkE/bBhKvzDTodEblV3g4B5Et3Y1ZGt+zfPPDsfH6M32bacpSRUyBzNQOjTq4M3dsVMJO/sWM8aP54EHZ7OpYhTxqx4lXHxsTUYLNBdIEz4TNEDaPyxRR35KCR49ehu3QriGDGdoYB6bHh3LA3N343jfr7gjIIyeRgdo5m93xzI17CxvzRjP+AceZPamCkbFr+JRSZCmNFzg6AfzmTR+MtEPxRCf2JunFo4mUNe0Pkvs2qkVHVhwvTEi4Sba76rnh2WTGRe7gXSNP8NjowlJWs6UB2OImRjFhCfXccrkWKSdE+1ENOpV0FzXhhpyT5fh3ac7Uk4uPYUuSCnCqZP0LY4kahM727XTNeheonk/6u3rT/Lph0e3J2FFNJFRc/hEP4xhSj/CpEOjQvf2xggJqz5uYQdTG/bipkEsoHal+RM1uZ9YPGsp+m4Xn32ZyIX/zo/Vy8jIyMhcJw7ffPONxQ/K/ZLRazTg4nJl5aKtouSCBs8AXxQOOjRaB1zaWF/XGOrLUZWoUQQE0t7lyuM3bVUJFzSeBPiKtEanQevggqkKPabmmtZn7ZoJbXUJqjJpn2sAvh6NSZCt8lqqSi6g8RRlFQ7oNFocXNpYWZGVc3DuFLYMWsfmR7tcflqsryuluNIJX2V7Grtyde0b0NZrcXRt0pZZhx5KXzychA4bGnV4o7KbMDSo0Ti64do8L7RpOyvt6mspLSpFo/AnwMetSVu27dFIc58xaOvROrqabSwwylEv+u/XrP8t75Xaqy0tolSjwD/ABzebzeqoLimiwuBFYICn8WckJVrW18hV2MmmDiy5kRgRjkVpcSVOvsorMaKtpkRVZtz/HeDrcXkxZq0vLXTdUI/O2VUku+YLIr40Ir5M3bTsc4t7m9vpqnUvsNYPu/oz+7SH0hg70mv8m/q07THChDUfb6kfG3FjqOLYqzP4Y/WzbFkxyrRnXa+hTuOEwq150MjIyMjI3E7ISfovGg2ZGx5lQc4zbH91KC2PCcrIyPycqTuznieeS2L8e2v4bejlvUMyMjIyMj8DLB/4yPzCcKHT2NnMvMcHB3mpJiPzP4aWqnIfxi+KZ6KcoMvIyMj87JCfpMvIyMjIyMjIyMjcZshP0mVkZGRkZGRkZGRuM+QkXUZGRkZGRkZGRuY2Q07SZWRkZGRkZGRkZG4z5CRd5r+CvqEB+dUpMjIyMjIyMjJXh5ykW0FflUvCwb189vkBvk0rRWO+/rNAX0Hy7s3sOlGKznzpp0VP2bcrmDptBf8ubUzTDZT+awHjZ24g8yYq11D6LxaMn8mGq6i0PnMzs2MWc6RCUlkyuzfv4kTp7aGx25trsV09mZtnE7P4CELN/3Wa2lhGRkZGRubnhpykW2CgJnULv5v6GMt3fs3xb3fz1vyneSe5zvz57UY92XvfY8PhIi6/PLAuk33b93GssN584adFX/Yda9fl8Jv4BfzK+CYVCTV5CVmo/bsR4GK+dBNQ5yWQpfanW6uVGqjKPEG+cwiBCkll+9i+7xg3W2X12Xt5b8Nhin7iNzveXDmuwXaGKjJP5OMcEnjlzaH/NSxtLCMjIyMj83NDTtKboiviH29v5dyQpWz+YDWrVr/Pzs/XMtva68FvBzQFHNm1h+OXmhjSYwhxu3bzxoQOVl+l/9/GQdGD6atWM7ufJ5ffw6orJeNMFQEDOuNuvnTj6CjNOENVwAA6t1ppHflJhTiF9qGDq6SyOHbtfoMJHW6mxjQUHNnFHgvj/BTcZDmuxXZ1+SQVOhHapwNCzf9lLG0sIyMjIyPzc0P+nfSmqE/z1ox5nBj3AZse64rFg0JDFWn71rF2579JLWnAq/tIYhfPZ2xIs8eJtUm8vehTgqP7kvbXT/jmnI7ODy7h5ahKPlmzkX+cvkT7e57k1bgJhEjvF9Fe5OhHr/Penh9QOYQwPHoUHE1j+PKljPRVk/T2InYFTaRP2k4++y6b+g6jWbBiAcMb/s7SRZv5vqACg5cSpU9f5rzxIgNzVvP7jV4sWP04Ya4GqtL2sW7tTv6dWkKDV3dGxi5m/tgQXIxy7iJoYh/Sdn7Gd9n1dBi9gBULfo1S5KqGqjT2rVvLzn+nUtLgRfeRsSyeP5bm3a3P/QfvvrGZQ2llOPj0YfLLK3g0zA195Wl2v7eOT75J52KDByF3TWb+wukMaC8yxarvWBS9AsXyT1g6xMN+2WbYlquK7xZFs0KxnE+WDsHDXN6ElovHtvD6e7v5odiZ0KFj6JH+GWfGb+SDqb4kv/F7NnotYPXjYWhPvcULnwYwOvAY2w4U0POFjfxxhBPptmwvktbjf13Dhn0nOFfjRsc7f8tzvx9O5muL2fx9gfHV/UqlD33nvMGLw5z4cfd7rPvkG9IvNuARcheT5y9k+oD2ONac4q0XPiVgdCDHth2goOcLbPzjr2h/eWUjucpRPnr9Pfb8oMIhZDgmVxnO8qUj8XUUi5Tjf2XNhn2cOFeDW8c7+e3vZqDY8QofNpdjQCavP/cxAc+v5JFuIoPVnmdf/MucGLWSl0f64mjPJ12OWtjOAnHfsS3ivt0/UOwcytAxPUj/7AzjN37A1BDnq/Ypqzr9wxTCXUvtxIrejo1DcLYbZ8387Hrad0tqab8X2vHh4uY2HYFTuo2YtOoDw9Ae+0j0aw8/qBwIGR7NKI6SNnw5SyVbmUWWkZGRkfnfQx7jm+Iayoh7/Dm/7SVWfnaaistblDVk71jMwi2XuHfJh+zf+w4TdQdZuyWZGnOJRjRFJ0k4fYwP150keOZyVj0WRNany5n/h93oxyzmtUXDqP5mF4fypQ29ajK2LmLpXh2RS95j/bIo2P8+R1Tu+CiEaTRFnEw4zbEP3ycxaDqvvD6P3kUH2P5tCU5+w5j5cG/cncN4XCRYS+OeYHD7Bs4nfE9WgxIfsQDQZO9g8cItXLp3CR/u38s7E3UcXLuFZCH0ZTnfTyRo+iu8Pq83RQe2822JXrqRHYsXsuXSvSz5cD9735mI7uBatkg3NkWby+fLV3O88zw27/8bm+KjifBxFt3KYOvzz/FRySDmrtnK9ndmE5qyiZXbM4y3aYpOk90QRESootWyFtiTS+jqdHYDQRGhLbZWqNO38sJLe9CNiWPt2jhGqb/kQJE7PcL8cNacJ+H7LBpEAttG2LnwhwR+PLqNHapBzFm6mBn9XMmxaftaUjcuJH6fgdFL1rF1fRxR/jVUG3wZNvNhers7E/Z4PC8vjeOJwa5kbn2e5z4qYdDcNWzd/g6zQ1PYtHI7GfVC/MIfSPjxKNt2qBg0ZymLZ/TDs0mCbtTToqXs1UWy5L31mFzlCCp3HyRXqU3dyML4fRhGL2Hd1vXERflTU9uOoS3kaE99/vecyNWi9DZnx7Vn+Ta5FA8fhRgQ7Pukhe0sUJO+9QVe2qNjTNxa1saNQv3lAYrcexDmJ3zian3Klk4b6uzKZdfGrcWZBdfXvjX7uaqsXMuxE5NW6miTuZVFS/eii1zCe+uXEcV+3j+iwt1oKxkZGRmZ/2V+RuO8AU15EQUFBcZ/haV14spNxsGTgfPW8McpAZz6y7NM/90mTlXo0Zd+w/ptuUQ8M5f7g7XkJx8npcSJjj2Vzb7GN1BzLhmVIZBxL77EI8PD6NotEDeDgR5PL2PumL507RpCOycn3JwdMZQfY/OnRUTMW8T0e7rTJWIcMSNEncH9CRE5kKHmHMkqA3dExfHSrHsJ79KV4LbOOLm1wcG1PV71JagD7+SufuGEdVGK5LSK7KRSfPp0xYtSvlm/jdyIZ5h7fzDa/GSOp4jkvmNPlK6Nct5BVNxLzLo3nC5dg2nrLORqo6f0m/Vsy43gmbn3E6zNJ/l4CiVOHempbLZvoKGCgtIGHMV9To6uKHsPZYDSkZKv1rGj6E6ei5/FvaL/AT1HENnbjdJMlbjJQFV2MqXevenajlbKNsW+XIaqbJJLvektKrVwakMZRzd/iipiHoum3kW3LoOY+MholC7B9O+oMN6XVOpDn65eOBqqyEkphqAJxMc9wn13DaaH/j82be9c8jUbdpczdMHzRA8MISBkIJPmxjLEW0F7r3pK1IHceVc/wsO64Ff1Net2FHHnc/FC390IDOjJiMjeuJVmoqoXOslJoZggJsTH8ch9dzE4zLvJdiUD5cc282lRBPMWTeee7l2IGBfDCNHv4P4hKPQlfL1hN+VDF/B89EBCAkIYOGkusXcF4NNMDqXCQGV2KhU+fejc1rQKqD+fQq4uiP7C6ez7ZFPbWQ4dhrKj4j6V8b6pd3Wjy6CJPDJaiYu4r6Pi6n1Kb0Ongw3Hbcvl2oqNW4mzplxX+5JeWtivPbXNr/XQ8x87Mdmijp6QIPpVJPVr+j107xLBuJgRoqzoV3PBZWRkZGT+5/j5JOnaAvYueYxHZs5k5sxHeOq1o5Tfio06bQIZ/uQbbH3vcTqnb+XPOzK4mHqQpFo1p9fO54lnl/Dmnjy6z1nDyskhOJtvM6EmPzEfp37TmBQu7djVUZGdQ90dUUy7x/TVtLoglYuKLnTzdaYm4zCndb0YO9j8tbWujLTkMpFkd0bKn9T5ieQ79WPapHDj/l9DTR7pl9oTFtpW/FVLbmIRbl17oZS2zUio80gscCSkX0dcq1M5mFSL+vRa5j/xLEve3ENe9zmsWTmZEOfmcoqkPS+dS+3DCG1bS+rBJGrVp1k7/wmeXfIme/K6M2fNSiaHWPYWRS+mz4mi7YFF/HbGErYlVYhUupLUQ6k4DRhLhLf5UbBBQ+UlLQpfT/GHaDspH8fQ/gS5tVa2KdV25VLnJ5HvGEr/IDdzeTPV6RxO0RF+/2BMuxp0lKUlUyYSzS6eDkJliRQ4htCvo0gW1QUkFTjTb9pEwsw5ULUd29el/otUp/5E9m13Zb+9mdrcRIrcutLLbJzK1EOi7ADGRniby4pFZ+UltApfPJ3UFCQV4CzsMbGxYQtqyDh8Gl2vsQw2b83QlaWRXCYWF53b4lCZyr9Snegf2Zd2zQRpLodxr7bwmzadGvdqm/RRbk7a7ftkU9tJH16hOv0wKbpw7m92n3fvLng62LddUypt6NSuXLX2bdxanDXlutoXemlpPyvXWonJFuVrMjh8Wkevsc361WSBJSMjIyPzv4tx6P9Z4NyRmLUHOPzVV3z11WH2rfwNPrdsnnKgbY/7uC/EgeqSckrzitEFz2D19p1s37qRd1ctJjayJ57NtaerICutioDB4XgbP5MS6WIUYQMJNiZE9RSePkdDhwhCFHqqClWovToRYE541FlfsCfTmc7Gg3Yiwc9KoypgMOGmyqgTiWiBQ0dTIqopJjW7njsiQi8f4NOVZXKmSsmATu5oy/Mo1gUzY/V2dm7fysZ3V7E4NpKektAt5JQO2RXg0FEkX87l5BXrCJ6xmu07t7N147usWhxLZE9PK87Shg6jFrJ+1wc82zmFTa/v5VxtFapSHZ5B3pf39BvKEjmS40L4sM7G5CYjtQpl/0601bZStilae3KJ5CUjlSplfzpJ65cm6KqLUGnaEdqo5PqzfLk3A6dOfUWSKu7LPCPuG4BQGbryTNKrAhgU7m3uq5Zym7bXcqmwFJ1XCH7NvmAQxqE4NZv6OyIINRpHS5VKlPUMonGHifSEP/FIDi7hw+jsWk5murDHoEZ7NENfRaFKjVenAEy9UJP1xR4ynTvTR2Ta2kuFlOq8CGkhSHM5BNpS0rNq8Ovb0bQtSJ3J3z8X+ugsJe2t+GRT25k+NqOjukiFpl3o5fvqz37J3gwnOvUV99m1XVNs6dS+XM52bdxanDXl+tp31Vmxn5Vr9mOyZXl9VSEqtRedrjTKF3sycTbaynRJRkZGRuZ/F8s58hdMQ94/2LzjW3Jr9GJ2rCHn0Ed8ku3JkJE98PEWKUlZOjmXzL/zrSmjoLhWTN3NqD1HokpB93B/kb4KNCpSz2m4Q9qSIP1tqCbntOnpopejAy4KkbFV5pJfrUOdd5C3X91FPh3ob8yoajmXqELRPRx/Y2VSIppOlX9/QqXzevUlnC1zxNPLDQetRnwqPTU9RbF7d8L8nXFUeItEqoz0nEtmOTWUFRRTK/3RXE4p+RIJgn//UDwcFZi6m8OV7hZQbLyxCfoKMk5lUSkuO7gHEOznhks7b9xdPPDzdqDsjHQIVHS5Npv9a97lpP9DzLrbRxKSU8XuxradnVop2xS7conF0Kli3CVdNXvY7yjkcaOS/PM16OoLOPTOq3ycC4Gir+6X7wsz3lebm0Sxohu9TAqX7kZh0/biM08F+os/cuaCEF4k0lmHP+frQvF/sRgrOVuGo6cXbg5aNDonPPy8cSg7YzwwKjpK9v41vHvSn4dm3Y1PXS5JxQq69TLbozkOLphcJZ9qnZq8g2/z6q586CB8QbiKo8IThf4iP565gPTKqKqsw3z+daH4f3M5RF1iYXRB+LhBq0evzuPg2yvYVSBVJemjFZ9sajuTZGYccfEQiWRlPudrdNQXHOKdVz8ml0DTfVfrU3Z0ak8u+zZuLc6acn3tS3ppYT8r1+zHZMvyDi4KsXitJDe/Gp3RVq9iMrtpYa7J/YK/vLGFkxXN9SgjIyMj87+AnKSbMegqydq7jFkPjOS+kQ/w2Jos+s5dxYKhviiHxxIdksTyKQ8SEzORqAlPsu5UJc1322gupJHTEMQA835RQ00up8u86dPdy6RodQEpRU506h8kkgoHvIdMYaRXAn+KGcP4eXtwHDEUpTKcMF8nqTLSchoIGmBO8KWn3SklePTobdre4iba6arnh2WTGRe7gXS1hpLUHBqCByKd6XP0H05sdAhJy6fwYEwME6Mm8OS6U1QKoZvLKf1UXkqJBz16K2nj6M/w2GhCkpYz5cEYYiZGMeHJdZySbmxKwwWOfjCfSeMnE/1QDPGJvXlq4WgCnb25O3YqYWffYsb48Tzw4Gw2VYwiftWjSL9kqSlJFW0HM1AS0sF+WQvsyaUpIVXoKnhgy0OjDt5DeHh0exJWRBMZNYdP9MMYpvQjzHhotOl9Gi6knRP6k77lMN8srOZv0/aO+A2byThlMm/OGMPoyEm8sK8Cb08pfXUTduuK/odlTB4Xy4b0erzvjmVq2FnemjGe8Q88yOxNFYyKX8WjoqOSPc4JnUTY2mcs9DRkyki8Ev5EzJjxzNvjyIihSpThYUiu4igdIh6nJPnNGYwZHcmkF/ZR4e0pEunmcqjBNYThQwPJ2/QoYx+Yy27H+/jVHQGE9fTFqRWftLCdBdJ9DzO6fQIroiOJmvMJ+mHDUPqFmQ6NXq1P2dSpi1257Nq4tTiz4Prat2Y/a9dai8nm5aV+TRnpRcKfYhgzfh57HEcwVKkkPEyylZai73bx2ZeJXPiJf4dfRkZGRubWIP8EowU6akuLKdUo8A/wxs1iCaOlukRFmVaBb4AvHs3ndyN6NBpwcWm80UBDvQ5nVylVMKETBRxcXExJu4S2ipILGjxFnQoHHRqtAy5tTJ/qTZVdLmvQ1qN1dBWJtPmCvo7S4kqcfJW0dxEt6DUi1XThcvMCbXUJqjJpj3cAvpeFbimntl6Lo2ubJnJVU6IqM+6ZDvD1sPGb6zqhkyLjz/sFBkhJYRP0tZQWlaJR+BPg43al3hZtC2yWtYINuZrryhItVSUX0HgojTrQaRqEDUx9tbjPiv5M2LG9oZ5yVQlqRQCB7V0u21nqZ53wpUonsci7fF0v/KvI7F8+TfzLik6soK0q4YLGU/RbgYNOg9bB5YovCBvWl6soUSsICGyP5A4mrMlh0ke90IdfM30YsemTrchpvs9DKelI3NdwxZeNXJVPCWzp1E6sNPbJmo2N2L23GdfcvjW92NbV1cVkI+Z+eYqyCgfRL+2Vfgl/rdM4oXCzqUkZGRkZmZ8xcpIuIyMjIyMjIyMjc5vR8jGPjIyMjIyMjIyMjMxPipyky8jIyMjIyMjIyNxmyEm6jIyMjIyMjIyMzG2GnKTLyMjIyMjIyMjI3GbISbqMjIyMjIyMjIzMbYacpP9C0TdIr72R+XlgQK+Xf4RJRkZGRkbml4ScpDdHV0Haf/7DmQrp9Yw3ifpMNs+OYfGRCvOF/wZ6KpJ3s3nXCUotuqKn7NsVTJ22gn+X3ow0vZ7MzbOJWXyEa+qdoZR/LRjPzA2ZaMyXZJpjoCr5QxZMHsnIkZE8sS2Z5N2b2XWi1PiG2dsBQ+m/WDB+Jhsyb08r6iuS2b15Fycsg8DMdfqukWu590basY2hMoUdf1rE4lXbRf/UFP7jbdZ/XyG85tZQn7mZ2TGL+a8OYzedm2eLn1Yft8anZGRkbi/kJL0ZOtU/eW3p2xxR3bzX+BmqMjmR70xIoI03St4S6sjct519xwrFcH4Ffdl3rF2Xw2/iF/Ar35tgfkMVmSfycQ4JbPG2T7uo80jIUuPfLQAX8yWZZojF3Y7XtnMh8i32/fNvvDG2jn3b93GssKlFf1rUeQlkqf3pFnAbWLE+m73vbeBw0ZXYrcvcx/Z9x7Cqsuv1XYlrufdG2rGJlvy//4W/O9zNPe7f8cdHpvL02iy8AjyavFDrZiIWjJknyHcO4b86jN1sbpotfmJ93BKfkpGRud2Qk/Rm1OYmonLuRJ8OruYrN05dfhKFTqE3tc7W8WBI3C52vzGBDk1eSOig6MH0VauZ3c/z5kzmdfkkFToR2qcD19I7XWkGZ6oCGNDZ3XxFpjna4hN8p+rAuLG98HR2w9P3LuJ27eaNCR1sv63zv4qO0owzVAUM4HYwo6bgCLv2HOdSk2HNY0gcu3a/wYSmQdDIdfqukWu590basYkzd4x9mTfmP8iEZ//Cjo/eYd2W1TzcqY3585tNHflJhTiF9uG/OozdbG6aLX5ifdwSn5KRkbndkN84aoGGzA2zmPPtA2zcMI2QJu+51148ykevv8eeH1Q4hAwnehQcTRvO8qUjaf5AWnvxGFtE2d0/FOMcOpQxPdL57Mx4Nn4wFe+Tr/HcxwE8v/IRuonRVXt+H/Evn2DUypcZ6VvHqbde4NOA0QQe28aBgp68sPGPDNMes9O2SJSO/5U1G/Zx4lwNbh3v5LfP/YEpIems/v1GvBas5vEwV/SVp9n93jo++Sadiw0ehNw1mfkLpzOgvSO1SW+zaFcQE/uksfOz78iu78DoBStY8Gtly2RQe5FjW17nvd0/UOwcytAxPUj/7AzjN37AVKEwQ1Ua+9atZee/Uylp8KL7yFgWzx9LSLMHrVXfLSJ6hYLlnyxliIeWi0c/4vX39vCDyoGQ4dGM4ihpw5ezdKSv5UpSV8rxv65hw74TnKtxo+Odv+W5P0wh3LWUox8Jufb8gMohhOEmJTF8+VIben2Bdh8ubqHrEU7pNuSvuQ7bmGU2Yv1+6+1F0ubQMha9f5S8Ch3tlEF0nfAy8eF7xD1eLFj9OGGuBqrS9rFu7U7+nVpCg1d3RsYuZv7YEFxqTvHWC58SMDqQY9sOUNDzBTb+cQRO6TbKmyVs5Op9vYrvFkWzQrGcT5YOwUP4hm0bWAaJrvQ4f12zgX0nzlHj1pE7f/scf5gSjmupnbbVSby9aBdBE/uQtvMzvsuup8PoBaxYMJyGvy9l0ebvKagw4KVU4tN3Dm+8OJCc1b9no9cCVj8ehmsrvmu333r791pgtx0n23Yz396IXXls6uLXKEXQ2ot36nP5x7tvsPlQGmUOPvSZ/DIrHg3DzdyuCRGTx7aImNzND8XOhA4dQ4/0zzgzfiMfTA3B2VBF2r51rN35b1JLGvDqPpLYxfMZ2zzQpYWctfEp+Edef+5jAp5fySOmgZB98S9zYtRKXh7pRpKVWLn70kHefWMzh9LKcPDpw+SXV/BomNsN2c2uniy4xfoId6XU3hho16e4+vHzutq3Zo+bM37+qq29cbu5DWRkfnnIUdAUQzU5KRdx7xGGb9N5V53B1kVL2auLZMl761kWBfvfP4LK3QdFcw2q09n6wkvs0Y0hbu1a4kap+fJAkbFOP2c1+d+fIFerxNs8dtee/ZbkUg98pIo0hfyQ8CNHt+1ANWgOSxfPoF+bTLtt16ZuZGH8Pgyjl7Bu63riovypqW5Acz6B77MaUPq0Mcn//HN8VDKIuWu2sv2d2YSmbGLl9gwhgYaikwmcPvYh7ycGMf2V15nXu4gD27+lpMWWdTXpW1/gpT06xsStZW3cKNRfHqDIvQdhfkJhmmx2LF7Ilkv3suTD/ex9ZyK6g2vZklxjvr8R0ebpbBqCIghVSOJtZdHSvegil/De+mVEsZ/3j6hw91E0c9BaUjcuJH6fgdFL1rF1fRxR/jVUN9SRsXURS/fqiFzyHutNSuKIyt22Xl1VVq7l2Jb/OmxjgVUZbLWnxvfOGUyLaItz11m8+HI8v5/QgQsJ35PVIBJQYVJN9g4WL9zCpXuX8OH+vbwzUcfBtVswifoDCT8eZdsOFYPmLGXxjH645tgub8G1+LqmiNPZDQRFhKIQvmHXBk2pTWXjwnj2GUazZN1W1sdF4V9TTUOd/bY1RSdJOH2MD99PJGj6K7w+rzdFB7bzbQn4DZvJw73dcQ57XCx6lxL3xGDaN5wn4fssGpQ+tGnNd+32u5V7LbBf1p7dLGjFDrZ1IYLWbrxryf18OauPd2be5v38bVM80RE+tOhF+lZeeGkPujFxrF0bxyj1lxwocqdHmJ8oqyF7x2IWbrnEvUs+ZP/ed5ioO8jaLcliKWqJrfGpLv97TuRqUV4ZCPk2uRQPKeatxYoij8+Xr+Z453ls3v83NsVHE+Fzg3azqydLbrk+7I6B9vtx9ePndbZ/q8ZPz/qrHzNkZH6h/IwiwYCmvIiCggLjv8LSupt/QEpdQHKBgaD+wU32+RkoP7aZT4simLdoOvd070LEuBhGKF0J7h/SbD+ggbKjoqxKKjuVu7p1YdDERxitdBFlO6LQV5KdWoFPn860Ne41qed8Si66oP6EiIoMVTmkFEPQhHjiHrmPuwb3hAQ7betL+HrDbsqHLuD56IGEBIQwcNJcYod4UZ2dRKlPH7p6QclX69hRdCfPxc/i3m6BBPQcQWRvN0ozVaLRGs4lqzDcEUXcS+Lz8C50DRbJoZMbbZrthzGUHWXzpyoi5i1i6l3d6DJoIo+MVuIS3J+OCj2l36xnW24Ez8y9n2BtPsnHUyhx6khPIa8FhiqyxYTs3bsr7RzKObb5U4oi5rFo+j107xLBuJgRKF2D6S8ppQn6kq/ZsLucoQueJ3pgCAEhA5k0N5bBhuNCriKjXNPv6U6XiHHEjFDiKuSyrtcw2tc2v9YD/X9sy3/NtjHL3EjL++235+Ljg664Fr9Bd9I/vAcd29aSnVQqfKcrXpTyzfpt5EY8w9z7g9HmJ3M8pQSnjj2F3gxU5aRQTBAT4uN45L67GNxDz39sljcLaORafF3qU7ZYYHrTu2s7HMqP2bXBFfSUfL2B3eVDWfB8NANDAggZOIm5sYMxHLfXtoGac8moDHcQFfcSs+4Np0vXYNo6O+HWxgnX9l7Ul6gJvPMu+oWH0UUpGhXyJZX60EcEgYNd37Xfb1e795q7ZcZujLjYs5u5AiOt2cGeLoR+7cU7DVQUlNLg6IyTkyOuyt4MHaC0TNINZRwVMamSYnLqXXTrMoiJj4xG6SJiUnRYX/oN67flEvHMXO4P1pKffJyUEic69hT2NldhxOb41E6MT6lUiPGps2kgpP58Crm6IGPMW4tXb30FBaUNOIo+Ojm6ouw9lAFKpxuwW2t6asKt1sdgA8ftjIF2fcr16sfP627/loyfoo7Kqx0zZGR+ufx8knRtAXuXPMYjM2cyc+YjPPXaUcpvcpauK88krdKH3l28miimhozDp9H1Gstg89dvurI0ksvE5N+5bbN93dWkH05BF35/s7IikeniiUNdPolFbejUuI9QV0ZacvnlpF1dkESBcz+mTQwzJ0SttF2Zyr9Snegf2Vcku8aPzajJSyzAMaSfGMQrST2UitOAsUR4mwsZNFRe0qLw9RRFhUz5TvSbNolwaV+xSNrz0i/RPizUvJC4QnX6YVJ04dw/2PwVqlH+MpFsd8HToZrUg0nUqk+zdv4TPLvkTfbkdWfOmpVMbr4dQLSZlO9IaP8g3GoyOHxaR6+xg81bKXSUpSVT1mQCb6Qy9V+kOvUnsq9ICs3XJGoyDnNa14uxzeSyrVdr1+zLf822MV65wrW2R10eSYXOhPYJMvmKOo/EAkdC+nXEtTqVg0m1qE+vZf4Tz7LkzT3kdZ/DmpWTCXFWU5BUgHO/aUwMM/fWbnlTERPX2Kf8JPIdQ+kf5NaqDa4g/PFfwh/7R9LXwmlba1tNfmI+TqJfk0yOSk1eOpfahxEqNVCbK2LLja69lLQx3i2pLJECxxD6dXRtxXftt11r915j8cvYbaf2ZtnBni6EX9mLd+F9vabPIartARb9dgZLtiVR0fwbs+p0DqfoCL+/WUx696aL6HB16kGSatWcXjufJ55dwpt78ug+Zw0rJ4dYJvs2x6c6IX8RbTo17uc21V9ujnlr8YqiF9PnRNH2wCJ+O2MJ25IqxHLvRuzWyrjYlFutj1bGQLs+VXf14+f1tn9rxk+p2asdM2RkfrkYY+NngXNHYtYe4PBXX/HVV4fZt/I3+NzkQK7LS0LlHErfoCbPP/RVFKrUeHUKMO/ZVJP1xR4ynTu3PAiqq6ZIpaFdaGPZes5+uZcMp070FWW1pelk1fjR1/z4TZ35dz7PcKKzMWnXUZ6ZTlXAIMK9zWZppW3tpUJKdV6E+DWXo4zMM1UoB3TCXVuFqlSHZ5D35T2vhrJEjuS4ED6sM7qKLNKqAhgc7m1yBulAUoEDHaUE2li6ER3VRSo07UIJMH9Qf/ZL9gr5O/UV8mvLySvWETxjNdt3bmfrxndZtTiWyJ6eLZxMV5ZBapWS/p3aii4WolJ70amxUnUWX+zJxLlz8wNZWi4VlqLzCsGyu3qqClWovTpdlkud9QV7Mp1t69XaNbvyX7ttLLnW9sTHF9NJrwlgQCeTr+jKMjkjdDagk7u4NY9iXTAzVm9n5/atbHx3FYtjI+npKe7UlZOZXkXAoHCuNGWnfFOusU9lGalUKfvTqW1rNmiC9hKFwh+9Qvwsr7fWtq6CrDTRr8GN/ZIO7hXg0LE/Yo2ApjiV7Po7iAhtPMEq5Ms8I+QbQCf3VnzXbtvO9u81XTJjvx2nm2UHe7pwth/vEm06jGLh+l188GxnUja9zt5zDcbrjeiqi1Bp2hF6pRN8uTcDp059RUxqKc8rRhc8g9Xbd7J960beXbWY2MieNO+GzfFJW0p6Vg1+fTuaEjZ1Jn//XNRvjHlr8SrRhg6jFrJ+1wc82zmFTa/v5Vz9DditlXGxKbdaH/bHQPs+1eaqx8/rb/+WjJ+tjtsyMjISzYaRXzIailOzUfv1wKehgooK8a+ymgaDCwoxilfm5lOtU5N38G1e3ZUPHfpzOR9oxNEFDzHgVOafp0ZXT8Ghd3j141wINJXVVl2gRm9Aq9ejzjvI2yt2UUAH+hsrqiU3qRhFt174Nz4KdLDftqPCE4X+Ij+euYD0aqKqrMN8/nUhDbW5nCp2p3uYP85OHvh5O1B2RjoYJSai2mz2r3mXk/4PMetuH2rPJaJSdCfc3KiUQKdX+QuZPIx/X8ERF1PnOF+jo77gEO+8+jG5BJrkd1Tg3RbK0nO4ZH4ypykroLi25W+x1+aeothdatNZdFEhJslKcvOr0anzOPj2q5i6GIqleh1ReCrQX/yRMxdER0Qik3X4c74ubMDFpCTyq3Umvb66i3x7erV2za78124bS661PUlHSVxo25Oe5sMRjToLEzpzVHjTljLScy4Jq0toKCsoxiRqLknFCrr18r/8RNlu+aZca59OFePePRx/Z4dWbNAE0W9PhZ6LP57BZMYsDn/+NYUNrbRde45ElYLu4eZ+iYVohliM+As/kTy1vuQsZY6eeLk5oNVIv4neKF+YkK8V37Xb71butcB+2ZtmB3u6sBvv7anIOEVWpWjQwZ2AYD/cXNrhLfrYFEcXD5H0VpJ/vgZdfQGH3nkV0zAmxaSIQ5PjknPFcSkorjX36Qo2xyeRIF+o0WPQ6tEbY34Fuwqk7kn1W4kVfQUZp7IwiR1AsJ8bLu28cXe6Abu1Mi425Zbrw+4YaL8fVz9+Xm/7VuxxzeOZtTpaGTM0uXzxlzfYclL6xkRG5peLnKRfpp6ijAvoCv7Ks9ETmThR/HtwHp8UtGXIlJF4JfyJmDHjmbfHkRFDlSjDw/Bt/tMnDt4MeXg07RNWEB0ZxZxP9AwbpsQvTDo0Cq4hwxkamMemR8fywNzdON73K+4ICBOJmKhIc4G0cw0ERzTZ+yvVZ6dtR79hzBynJPnNGYwZHcmkF/ZR4e2JviSVnIZgBkqnMkUdd8dOJezsW8wYP54HHpzNpopRxK96lHCFhgtpOTQEDbi8B7AuP4USjx70Vl4eTc044D3kYUa3T2BFdCRRcz5BP2wYSr8w0yEsR3+Gx0YTkrScKQ/GEDMxiglPruNUZfM9SRpKUkWbwQONh0YdvIcwZaQXCX+KYcz4eexxHMFQpZLwMN9mvyzjaDwcOE6ZzJszxjA6chIv7KvA29NFyDWFkV4J/ClmDOPn7cFxxFCUynDCbOnV2jV78l+HbSy41vaELxamnLt8VqG5zhz9hxMbHULS8ik8GBPDxKgJPLnuFCZR0zgnbB/RZFOnvfIWXFOfSkjNEX0aKB0alXzDjg2a4ujHsJnjUCa/yYwxo4mc9AL7KrzxdLHfttSvnIYgBlxxVFJKPOjR27S9xU34cFf9DyybPI7YDemoW8hnx3ft9ruVey2wX/Zm2cGuLuzGewMXjn7A/EnjmRz9EDHxifR+aiGjAy1tJMXkw6Pbk7AimsioOXyiH8YwpR9hxkOSjvgPjyU6JInlUx4kJmYiUROeZN2pSpp3w9b45OwawvChgeRtepSxD8xlt+N9/OqOAMJ6ipi3FisNFzj6wXwmjZ9M9EMxxCf25qmFowl0vgG72dWTuV0zt1ofLnbHQPv9uPrx8zrbv1XjZytjhrboO3Z99iWJF27e+0pkZH6OyD/BeJVoq0q4oPEkwFdM+ToNWgcX2thY4pjKeqD09cBJlG1oWlZbRcmFejzEIO/hpEPT4ICL+UO9RgMuLi1WTvbbNlBfrqJErSAgsD0uxi1AekxVNalJX0tpUSkahT8BPm5X2tBrRArowuWiBi31WkdcbXdOyK8R8vu2kN+ItpoSVRlaha+QV/TffNmC5m2iparkAhrPAHwVDug0Whxc2rTQgxFDPeWqEtSKAALbu4ih3oxZLs8AXxQOQi6tfb3a0rUt+a/PNle4pvZ05/n06cfYN2wtG/+vi+lpaQudSbeWoCqT9tAKvXlclrSl7c1YL9+S6+6THRs0x1BfjqpEjSIgkPYmpzViu+3m/TKgrdfi6HrFT/R1pRRXOuGrNMWBLfls+a7dfrfm901prZ0btkPrurAZ7wKdaL9I+qnKwAA8m68zLmOOSQ+lUUadpqFZTGqpLlFRplXgK+xtuxvWxicJU/31on6/ZvVbjxWdaK+ICoMXgQEi0Tdflbghu9nRkyX/HX3YHAPt9uMaxs/raN+aPa5pPBPYLm/qV8sxQ/h4nQYnhZv1OURG5heCnKTLyNw2NFD47d/56uQRdn5Rz7T1b/NwaPNvNGRkZGRkZGR+CbRY2MrIyPxU1FOen0mOOozYP68gRk7QZWRkZGRkfrHIT9JlZGRkZGRkZGRkbjPkJ+kyMjIyMjIyMjIytxlyki4jIyMjIyMjIyNzmyEn6TIyMjIyMjIyMjK3GXKSLiMjIyMjIyMjI3ObISfpMjIyMjIyMjIyMrcZcpIuIyMjIyMjIyMjc5shJ+kyMjIyMjIyMjIytxlyki4jIyMjIyMjIyNzmyEn6TIyMjIyMjIyMjK3GXKSLiMjIyMjIyMjI3NbAf8POXROSZ0wZ+oAAAAASUVORK5CYII=;" vertex="1" parent="1">
          <mxGeometry x="20" y="80" width="745" height="230" as="geometry" />
        </mxCell>
        <mxCell id="OZp4CBMIkcKh4JHKjuI_-2" value="Alumnos = {cuil, carrera, fechaInsc, fechaFinal, duracionCarrera, directorCarrera}" style="text;whiteSpace=wrap;fontSize=19;" vertex="1" parent="1">
          <mxGeometry x="60" y="350" width="700" height="40" as="geometry" />
        </mxCell>
        <mxCell id="OZp4CBMIkcKh4JHKjuI_-7" value="" style="group" vertex="1" connectable="0" parent="1">
          <mxGeometry x="231.25" y="378.75" width="441.5050000000001" height="20.004999999999995" as="geometry" />
        </mxCell>
        <mxCell id="OZp4CBMIkcKh4JHKjuI_-4" value="" style="strokeWidth=2;html=1;shape=mxgraph.flowchart.annotation_1;align=left;pointerEvents=1;rotation=-90;" vertex="1" parent="OZp4CBMIkcKh4JHKjuI_-7">
          <mxGeometry x="140" y="-140" width="20" height="300" as="geometry" />
        </mxCell>
        <mxCell id="OZp4CBMIkcKh4JHKjuI_-6" value="" style="strokeWidth=2;html=1;shape=mxgraph.flowchart.annotation_1;align=left;pointerEvents=1;rotation=-90;" vertex="1" parent="OZp4CBMIkcKh4JHKjuI_-7">
          <mxGeometry x="361.19000000000005" y="-60.31" width="20" height="140.63" as="geometry" />
        </mxCell>
        <mxCell id="OZp4CBMIkcKh4JHKjuI_-11" value="carrera = {duracionCarrera,directorCarrera}" style="text;html=1;align=center;verticalAlign=middle;resizable=0;points=[];autosize=1;strokeColor=none;fillColor=none;" vertex="1" parent="1">
          <mxGeometry x="320" y="420" width="250" height="30" as="geometry" />
        </mxCell>
        <mxCell id="OZp4CBMIkcKh4JHKjuI_-15" value="Alumnos = {cuil, carrera, fechaInsc, fechaFinal, duracionCarrera, directorCarrera}" style="text;whiteSpace=wrap;fontSize=19;" vertex="1" parent="1">
          <mxGeometry x="60" y="490" width="700" height="40" as="geometry" />
        </mxCell>
        <mxCell id="OZp4CBMIkcKh4JHKjuI_-13" value="" style="strokeWidth=2;html=1;shape=mxgraph.flowchart.annotation_1;align=left;pointerEvents=1;rotation=-90;" vertex="1" parent="1">
          <mxGeometry x="237.22" y="457.82" width="22.32" height="141.86" as="geometry" />
        </mxCell>
        <mxCell id="OZp4CBMIkcKh4JHKjuI_-17" value="cuil = {fechaInsc}" style="text;html=1;align=center;verticalAlign=middle;resizable=0;points=[];autosize=1;strokeColor=none;fillColor=none;" vertex="1" parent="1">
          <mxGeometry x="380" y="555" width="110" height="30" as="geometry" />
        </mxCell>
        <mxCell id="OZp4CBMIkcKh4JHKjuI_-18" value="Alumnos = {cuil, carrera, fechaInsc, fechaFinal, duracionCarrera, directorCarrera}" style="text;whiteSpace=wrap;fontSize=19;" vertex="1" parent="1">
          <mxGeometry x="65" y="610" width="700" height="40" as="geometry" />
        </mxCell>
        <mxCell id="OZp4CBMIkcKh4JHKjuI_-19" value="" style="strokeWidth=2;html=1;shape=mxgraph.flowchart.annotation_1;align=left;pointerEvents=1;rotation=-90;" vertex="1" parent="1">
          <mxGeometry x="295.45" y="569.25" width="30.53" height="200.32" as="geometry" />
        </mxCell>
        <mxCell id="OZp4CBMIkcKh4JHKjuI_-20" value="" style="strokeWidth=2;html=1;shape=mxgraph.flowchart.annotation_2;align=left;labelPosition=right;pointerEvents=1;rotation=-90;" vertex="1" parent="1">
          <mxGeometry x="195.31" y="629.07" width="31.25" height="49.37" as="geometry" />
        </mxCell>
        <mxCell id="OZp4CBMIkcKh4JHKjuI_-22" value="cuil+carrera = {fechaFinal}" style="text;html=1;align=center;verticalAlign=middle;resizable=0;points=[];autosize=1;strokeColor=none;fillColor=none;" vertex="1" parent="1">
          <mxGeometry x="355" y="700" width="160" height="30" as="geometry" />
        </mxCell>
        <mxCell id="OZp4CBMIkcKh4JHKjuI_-24" value="Claves Candidatas" style="shape=table;startSize=30;container=1;collapsible=0;childLayout=tableLayout;fontSize=19;" vertex="1" parent="1">
          <mxGeometry x="100.00000000000003" y="769.57" width="180.46" height="70" as="geometry" />
        </mxCell>
        <mxCell id="OZp4CBMIkcKh4JHKjuI_-25" value="" style="shape=tableRow;horizontal=0;startSize=0;swimlaneHead=0;swimlaneBody=0;strokeColor=inherit;top=0;left=0;bottom=0;right=0;collapsible=0;dropTarget=0;fillColor=none;points=[[0,0.5],[1,0.5]];portConstraint=eastwest;" vertex="1" parent="OZp4CBMIkcKh4JHKjuI_-24">
          <mxGeometry y="30" width="180.46" height="40" as="geometry" />
        </mxCell>
        <mxCell id="OZp4CBMIkcKh4JHKjuI_-26" value="carrera" style="shape=partialRectangle;html=1;whiteSpace=wrap;connectable=0;strokeColor=inherit;overflow=hidden;fillColor=none;top=0;left=0;bottom=0;right=0;pointerEvents=1;" vertex="1" parent="OZp4CBMIkcKh4JHKjuI_-25">
          <mxGeometry width="90" height="40" as="geometry">
            <mxRectangle width="90" height="40" as="alternateBounds" />
          </mxGeometry>
        </mxCell>
        <mxCell id="OZp4CBMIkcKh4JHKjuI_-27" value="cuil" style="shape=partialRectangle;html=1;whiteSpace=wrap;connectable=0;strokeColor=inherit;overflow=hidden;fillColor=none;top=0;left=0;bottom=0;right=0;pointerEvents=1;" vertex="1" parent="OZp4CBMIkcKh4JHKjuI_-25">
          <mxGeometry x="90" width="90" height="40" as="geometry">
            <mxRectangle width="90" height="40" as="alternateBounds" />
          </mxGeometry>
        </mxCell>
        <mxCell id="OZp4CBMIkcKh4JHKjuI_-44" value="Atributos no primos" style="shape=table;startSize=30;container=1;collapsible=0;childLayout=tableLayout;fontSize=19;" vertex="1" parent="1">
          <mxGeometry x="370" y="769.57" width="400" height="70" as="geometry" />
        </mxCell>
        <mxCell id="OZp4CBMIkcKh4JHKjuI_-45" value="" style="shape=tableRow;horizontal=0;startSize=0;swimlaneHead=0;swimlaneBody=0;strokeColor=inherit;top=0;left=0;bottom=0;right=0;collapsible=0;dropTarget=0;fillColor=none;points=[[0,0.5],[1,0.5]];portConstraint=eastwest;" vertex="1" parent="OZp4CBMIkcKh4JHKjuI_-44">
          <mxGeometry y="30" width="400" height="40" as="geometry" />
        </mxCell>
        <mxCell id="OZp4CBMIkcKh4JHKjuI_-46" value="duracionCarrera" style="shape=partialRectangle;html=1;whiteSpace=wrap;connectable=0;strokeColor=inherit;overflow=hidden;fillColor=none;top=0;left=0;bottom=0;right=0;pointerEvents=1;" vertex="1" parent="OZp4CBMIkcKh4JHKjuI_-45">
          <mxGeometry width="100" height="40" as="geometry">
            <mxRectangle width="100" height="40" as="alternateBounds" />
          </mxGeometry>
        </mxCell>
        <mxCell id="OZp4CBMIkcKh4JHKjuI_-47" value="directorCarrera" style="shape=partialRectangle;html=1;whiteSpace=wrap;connectable=0;strokeColor=inherit;overflow=hidden;fillColor=none;top=0;left=0;bottom=0;right=0;pointerEvents=1;" vertex="1" parent="OZp4CBMIkcKh4JHKjuI_-45">
          <mxGeometry x="100" width="100" height="40" as="geometry">
            <mxRectangle width="100" height="40" as="alternateBounds" />
          </mxGeometry>
        </mxCell>
        <mxCell id="OZp4CBMIkcKh4JHKjuI_-48" value="fechaIns" style="shape=partialRectangle;html=1;whiteSpace=wrap;connectable=0;strokeColor=inherit;overflow=hidden;fillColor=none;top=0;left=0;bottom=0;right=0;pointerEvents=1;" vertex="1" parent="OZp4CBMIkcKh4JHKjuI_-45">
          <mxGeometry x="200" width="100" height="40" as="geometry">
            <mxRectangle width="100" height="40" as="alternateBounds" />
          </mxGeometry>
        </mxCell>
        <mxCell id="OZp4CBMIkcKh4JHKjuI_-49" value="fechaFinal" style="shape=partialRectangle;html=1;whiteSpace=wrap;connectable=0;strokeColor=inherit;overflow=hidden;fillColor=none;top=0;left=0;bottom=0;right=0;pointerEvents=1;" vertex="1" parent="OZp4CBMIkcKh4JHKjuI_-45">
          <mxGeometry x="300" width="100" height="40" as="geometry">
            <mxRectangle width="100" height="40" as="alternateBounds" />
          </mxGeometry>
        </mxCell>
      </root>
    </mxGraphModel>
  </diagram>
</mxfile>
